<?xml version="1.0" encoding="utf-8" standalone="no"?>
<!DOCTYPE svg PUBLIC "-//W3C//DTD SVG 1.1//EN"
  "http://www.w3.org/Graphics/SVG/1.1/DTD/svg11.dtd">
<!-- Created with matplotlib (https://matplotlib.org/) -->
<svg height="170.754375pt" version="1.1" viewBox="0 0 630.085938 170.754375" width="630.085938pt" xmlns="http://www.w3.org/2000/svg" xmlns:xlink="http://www.w3.org/1999/xlink">
 <defs>
  <style type="text/css">
*{stroke-linecap:butt;stroke-linejoin:round;}
  </style>
 </defs>
 <g id="figure_1">
  <g id="patch_1">
   <path d="M 0 170.754375 
L 630.085938 170.754375 
L 630.085938 0 
L 0 0 
z
" style="fill:#ffffff;"/>
  </g>
  <g id="axes_1">
   <g id="patch_2">
    <path d="M 52.160938 133.198125 
L 610.160938 133.198125 
L 610.160938 22.318125 
L 52.160938 22.318125 
z
" style="fill:#ffffff;"/>
   </g>
   <g id="matplotlib.axis_1">
    <g id="xtick_1">
     <g id="line2d_1">
      <defs>
       <path d="M 0 0 
L 0 3.5 
" id="mf6b4859274" style="stroke:#000000;stroke-width:0.8;"/>
      </defs>
      <g>
       <use style="stroke:#000000;stroke-width:0.8;" x="52.160938" xlink:href="#mf6b4859274" y="133.198125"/>
      </g>
     </g>
     <g id="text_1">
      <!-- 0 -->
      <defs>
       <path d="M 31.78125 66.40625 
Q 24.171875 66.40625 20.328125 58.90625 
Q 16.5 51.421875 16.5 36.375 
Q 16.5 21.390625 20.328125 13.890625 
Q 24.171875 6.390625 31.78125 6.390625 
Q 39.453125 6.390625 43.28125 13.890625 
Q 47.125 21.390625 47.125 36.375 
Q 47.125 51.421875 43.28125 58.90625 
Q 39.453125 66.40625 31.78125 66.40625 
z
M 31.78125 74.21875 
Q 44.046875 74.21875 50.515625 64.515625 
Q 56.984375 54.828125 56.984375 36.375 
Q 56.984375 17.96875 50.515625 8.265625 
Q 44.046875 -1.421875 31.78125 -1.421875 
Q 19.53125 -1.421875 13.0625 8.265625 
Q 6.59375 17.96875 6.59375 36.375 
Q 6.59375 54.828125 13.0625 64.515625 
Q 19.53125 74.21875 31.78125 74.21875 
z
" id="DejaVuSans-48"/>
      </defs>
      <g transform="translate(48.979688 147.796563)scale(0.1 -0.1)">
       <use xlink:href="#DejaVuSans-48"/>
      </g>
     </g>
    </g>
    <g id="xtick_2">
     <g id="line2d_2">
      <g>
       <use style="stroke:#000000;stroke-width:0.8;" x="121.910938" xlink:href="#mf6b4859274" y="133.198125"/>
      </g>
     </g>
     <g id="text_2">
      <!-- 250 -->
      <defs>
       <path d="M 19.1875 8.296875 
L 53.609375 8.296875 
L 53.609375 0 
L 7.328125 0 
L 7.328125 8.296875 
Q 12.9375 14.109375 22.625 23.890625 
Q 32.328125 33.6875 34.8125 36.53125 
Q 39.546875 41.84375 41.421875 45.53125 
Q 43.3125 49.21875 43.3125 52.78125 
Q 43.3125 58.59375 39.234375 62.25 
Q 35.15625 65.921875 28.609375 65.921875 
Q 23.96875 65.921875 18.8125 64.3125 
Q 13.671875 62.703125 7.8125 59.421875 
L 7.8125 69.390625 
Q 13.765625 71.78125 18.9375 73 
Q 24.125 74.21875 28.421875 74.21875 
Q 39.75 74.21875 46.484375 68.546875 
Q 53.21875 62.890625 53.21875 53.421875 
Q 53.21875 48.921875 51.53125 44.890625 
Q 49.859375 40.875 45.40625 35.40625 
Q 44.1875 33.984375 37.640625 27.21875 
Q 31.109375 20.453125 19.1875 8.296875 
z
" id="DejaVuSans-50"/>
       <path d="M 10.796875 72.90625 
L 49.515625 72.90625 
L 49.515625 64.59375 
L 19.828125 64.59375 
L 19.828125 46.734375 
Q 21.96875 47.46875 24.109375 47.828125 
Q 26.265625 48.1875 28.421875 48.1875 
Q 40.625 48.1875 47.75 41.5 
Q 54.890625 34.8125 54.890625 23.390625 
Q 54.890625 11.625 47.5625 5.09375 
Q 40.234375 -1.421875 26.90625 -1.421875 
Q 22.3125 -1.421875 17.546875 -0.640625 
Q 12.796875 0.140625 7.71875 1.703125 
L 7.71875 11.625 
Q 12.109375 9.234375 16.796875 8.0625 
Q 21.484375 6.890625 26.703125 6.890625 
Q 35.15625 6.890625 40.078125 11.328125 
Q 45.015625 15.765625 45.015625 23.390625 
Q 45.015625 31 40.078125 35.4375 
Q 35.15625 39.890625 26.703125 39.890625 
Q 22.75 39.890625 18.8125 39.015625 
Q 14.890625 38.140625 10.796875 36.28125 
z
" id="DejaVuSans-53"/>
      </defs>
      <g transform="translate(112.367188 147.796563)scale(0.1 -0.1)">
       <use xlink:href="#DejaVuSans-50"/>
       <use x="63.623047" xlink:href="#DejaVuSans-53"/>
       <use x="127.246094" xlink:href="#DejaVuSans-48"/>
      </g>
     </g>
    </g>
    <g id="xtick_3">
     <g id="line2d_3">
      <g>
       <use style="stroke:#000000;stroke-width:0.8;" x="191.660938" xlink:href="#mf6b4859274" y="133.198125"/>
      </g>
     </g>
     <g id="text_3">
      <!-- 500 -->
      <g transform="translate(182.117188 147.796563)scale(0.1 -0.1)">
       <use xlink:href="#DejaVuSans-53"/>
       <use x="63.623047" xlink:href="#DejaVuSans-48"/>
       <use x="127.246094" xlink:href="#DejaVuSans-48"/>
      </g>
     </g>
    </g>
    <g id="xtick_4">
     <g id="line2d_4">
      <g>
       <use style="stroke:#000000;stroke-width:0.8;" x="261.410938" xlink:href="#mf6b4859274" y="133.198125"/>
      </g>
     </g>
     <g id="text_4">
      <!-- 750 -->
      <defs>
       <path d="M 8.203125 72.90625 
L 55.078125 72.90625 
L 55.078125 68.703125 
L 28.609375 0 
L 18.3125 0 
L 43.21875 64.59375 
L 8.203125 64.59375 
z
" id="DejaVuSans-55"/>
      </defs>
      <g transform="translate(251.867188 147.796563)scale(0.1 -0.1)">
       <use xlink:href="#DejaVuSans-55"/>
       <use x="63.623047" xlink:href="#DejaVuSans-53"/>
       <use x="127.246094" xlink:href="#DejaVuSans-48"/>
      </g>
     </g>
    </g>
    <g id="xtick_5">
     <g id="line2d_5">
      <g>
       <use style="stroke:#000000;stroke-width:0.8;" x="331.160937" xlink:href="#mf6b4859274" y="133.198125"/>
      </g>
     </g>
     <g id="text_5">
      <!-- 1000 -->
      <defs>
       <path d="M 12.40625 8.296875 
L 28.515625 8.296875 
L 28.515625 63.921875 
L 10.984375 60.40625 
L 10.984375 69.390625 
L 28.421875 72.90625 
L 38.28125 72.90625 
L 38.28125 8.296875 
L 54.390625 8.296875 
L 54.390625 0 
L 12.40625 0 
z
" id="DejaVuSans-49"/>
      </defs>
      <g transform="translate(318.435937 147.796563)scale(0.1 -0.1)">
       <use xlink:href="#DejaVuSans-49"/>
       <use x="63.623047" xlink:href="#DejaVuSans-48"/>
       <use x="127.246094" xlink:href="#DejaVuSans-48"/>
       <use x="190.869141" xlink:href="#DejaVuSans-48"/>
      </g>
     </g>
    </g>
    <g id="xtick_6">
     <g id="line2d_6">
      <g>
       <use style="stroke:#000000;stroke-width:0.8;" x="400.910938" xlink:href="#mf6b4859274" y="133.198125"/>
      </g>
     </g>
     <g id="text_6">
      <!-- 1250 -->
      <g transform="translate(388.185938 147.796563)scale(0.1 -0.1)">
       <use xlink:href="#DejaVuSans-49"/>
       <use x="63.623047" xlink:href="#DejaVuSans-50"/>
       <use x="127.246094" xlink:href="#DejaVuSans-53"/>
       <use x="190.869141" xlink:href="#DejaVuSans-48"/>
      </g>
     </g>
    </g>
    <g id="xtick_7">
     <g id="line2d_7">
      <g>
       <use style="stroke:#000000;stroke-width:0.8;" x="470.660938" xlink:href="#mf6b4859274" y="133.198125"/>
      </g>
     </g>
     <g id="text_7">
      <!-- 1500 -->
      <g transform="translate(457.935938 147.796563)scale(0.1 -0.1)">
       <use xlink:href="#DejaVuSans-49"/>
       <use x="63.623047" xlink:href="#DejaVuSans-53"/>
       <use x="127.246094" xlink:href="#DejaVuSans-48"/>
       <use x="190.869141" xlink:href="#DejaVuSans-48"/>
      </g>
     </g>
    </g>
    <g id="xtick_8">
     <g id="line2d_8">
      <g>
       <use style="stroke:#000000;stroke-width:0.8;" x="540.410938" xlink:href="#mf6b4859274" y="133.198125"/>
      </g>
     </g>
     <g id="text_8">
      <!-- 1750 -->
      <g transform="translate(527.685938 147.796563)scale(0.1 -0.1)">
       <use xlink:href="#DejaVuSans-49"/>
       <use x="63.623047" xlink:href="#DejaVuSans-55"/>
       <use x="127.246094" xlink:href="#DejaVuSans-53"/>
       <use x="190.869141" xlink:href="#DejaVuSans-48"/>
      </g>
     </g>
    </g>
    <g id="xtick_9">
     <g id="line2d_9">
      <g>
       <use style="stroke:#000000;stroke-width:0.8;" x="610.160938" xlink:href="#mf6b4859274" y="133.198125"/>
      </g>
     </g>
     <g id="text_9">
      <!-- 2000 -->
      <g transform="translate(597.435938 147.796563)scale(0.1 -0.1)">
       <use xlink:href="#DejaVuSans-50"/>
       <use x="63.623047" xlink:href="#DejaVuSans-48"/>
       <use x="127.246094" xlink:href="#DejaVuSans-48"/>
       <use x="190.869141" xlink:href="#DejaVuSans-48"/>
      </g>
     </g>
    </g>
    <g id="text_10">
     <!-- Array Index -->
     <defs>
      <path d="M 34.1875 63.1875 
L 20.796875 26.90625 
L 47.609375 26.90625 
z
M 28.609375 72.90625 
L 39.796875 72.90625 
L 67.578125 0 
L 57.328125 0 
L 50.6875 18.703125 
L 17.828125 18.703125 
L 11.1875 0 
L 0.78125 0 
z
" id="DejaVuSans-65"/>
      <path d="M 41.109375 46.296875 
Q 39.59375 47.171875 37.8125 47.578125 
Q 36.03125 48 33.890625 48 
Q 26.265625 48 22.1875 43.046875 
Q 18.109375 38.09375 18.109375 28.8125 
L 18.109375 0 
L 9.078125 0 
L 9.078125 54.6875 
L 18.109375 54.6875 
L 18.109375 46.1875 
Q 20.953125 51.171875 25.484375 53.578125 
Q 30.03125 56 36.53125 56 
Q 37.453125 56 38.578125 55.875 
Q 39.703125 55.765625 41.0625 55.515625 
z
" id="DejaVuSans-114"/>
      <path d="M 34.28125 27.484375 
Q 23.390625 27.484375 19.1875 25 
Q 14.984375 22.515625 14.984375 16.5 
Q 14.984375 11.71875 18.140625 8.90625 
Q 21.296875 6.109375 26.703125 6.109375 
Q 34.1875 6.109375 38.703125 11.40625 
Q 43.21875 16.703125 43.21875 25.484375 
L 43.21875 27.484375 
z
M 52.203125 31.203125 
L 52.203125 0 
L 43.21875 0 
L 43.21875 8.296875 
Q 40.140625 3.328125 35.546875 0.953125 
Q 30.953125 -1.421875 24.3125 -1.421875 
Q 15.921875 -1.421875 10.953125 3.296875 
Q 6 8.015625 6 15.921875 
Q 6 25.140625 12.171875 29.828125 
Q 18.359375 34.515625 30.609375 34.515625 
L 43.21875 34.515625 
L 43.21875 35.40625 
Q 43.21875 41.609375 39.140625 45 
Q 35.0625 48.390625 27.6875 48.390625 
Q 23 48.390625 18.546875 47.265625 
Q 14.109375 46.140625 10.015625 43.890625 
L 10.015625 52.203125 
Q 14.9375 54.109375 19.578125 55.046875 
Q 24.21875 56 28.609375 56 
Q 40.484375 56 46.34375 49.84375 
Q 52.203125 43.703125 52.203125 31.203125 
z
" id="DejaVuSans-97"/>
      <path d="M 32.171875 -5.078125 
Q 28.375 -14.84375 24.75 -17.8125 
Q 21.140625 -20.796875 15.09375 -20.796875 
L 7.90625 -20.796875 
L 7.90625 -13.28125 
L 13.1875 -13.28125 
Q 16.890625 -13.28125 18.9375 -11.515625 
Q 21 -9.765625 23.484375 -3.21875 
L 25.09375 0.875 
L 2.984375 54.6875 
L 12.5 54.6875 
L 29.59375 11.921875 
L 46.6875 54.6875 
L 56.203125 54.6875 
z
" id="DejaVuSans-121"/>
      <path id="DejaVuSans-32"/>
      <path d="M 9.8125 72.90625 
L 19.671875 72.90625 
L 19.671875 0 
L 9.8125 0 
z
" id="DejaVuSans-73"/>
      <path d="M 54.890625 33.015625 
L 54.890625 0 
L 45.90625 0 
L 45.90625 32.71875 
Q 45.90625 40.484375 42.875 44.328125 
Q 39.84375 48.1875 33.796875 48.1875 
Q 26.515625 48.1875 22.3125 43.546875 
Q 18.109375 38.921875 18.109375 30.90625 
L 18.109375 0 
L 9.078125 0 
L 9.078125 54.6875 
L 18.109375 54.6875 
L 18.109375 46.1875 
Q 21.34375 51.125 25.703125 53.5625 
Q 30.078125 56 35.796875 56 
Q 45.21875 56 50.046875 50.171875 
Q 54.890625 44.34375 54.890625 33.015625 
z
" id="DejaVuSans-110"/>
      <path d="M 45.40625 46.390625 
L 45.40625 75.984375 
L 54.390625 75.984375 
L 54.390625 0 
L 45.40625 0 
L 45.40625 8.203125 
Q 42.578125 3.328125 38.25 0.953125 
Q 33.9375 -1.421875 27.875 -1.421875 
Q 17.96875 -1.421875 11.734375 6.484375 
Q 5.515625 14.40625 5.515625 27.296875 
Q 5.515625 40.1875 11.734375 48.09375 
Q 17.96875 56 27.875 56 
Q 33.9375 56 38.25 53.625 
Q 42.578125 51.265625 45.40625 46.390625 
z
M 14.796875 27.296875 
Q 14.796875 17.390625 18.875 11.75 
Q 22.953125 6.109375 30.078125 6.109375 
Q 37.203125 6.109375 41.296875 11.75 
Q 45.40625 17.390625 45.40625 27.296875 
Q 45.40625 37.203125 41.296875 42.84375 
Q 37.203125 48.484375 30.078125 48.484375 
Q 22.953125 48.484375 18.875 42.84375 
Q 14.796875 37.203125 14.796875 27.296875 
z
" id="DejaVuSans-100"/>
      <path d="M 56.203125 29.59375 
L 56.203125 25.203125 
L 14.890625 25.203125 
Q 15.484375 15.921875 20.484375 11.0625 
Q 25.484375 6.203125 34.421875 6.203125 
Q 39.59375 6.203125 44.453125 7.46875 
Q 49.3125 8.734375 54.109375 11.28125 
L 54.109375 2.78125 
Q 49.265625 0.734375 44.1875 -0.34375 
Q 39.109375 -1.421875 33.890625 -1.421875 
Q 20.796875 -1.421875 13.15625 6.1875 
Q 5.515625 13.8125 5.515625 26.8125 
Q 5.515625 40.234375 12.765625 48.109375 
Q 20.015625 56 32.328125 56 
Q 43.359375 56 49.78125 48.890625 
Q 56.203125 41.796875 56.203125 29.59375 
z
M 47.21875 32.234375 
Q 47.125 39.59375 43.09375 43.984375 
Q 39.0625 48.390625 32.421875 48.390625 
Q 24.90625 48.390625 20.390625 44.140625 
Q 15.875 39.890625 15.1875 32.171875 
z
" id="DejaVuSans-101"/>
      <path d="M 54.890625 54.6875 
L 35.109375 28.078125 
L 55.90625 0 
L 45.3125 0 
L 29.390625 21.484375 
L 13.484375 0 
L 2.875 0 
L 24.125 28.609375 
L 4.6875 54.6875 
L 15.28125 54.6875 
L 29.78125 35.203125 
L 44.28125 54.6875 
z
" id="DejaVuSans-120"/>
     </defs>
     <g transform="translate(302.164844 161.474688)scale(0.1 -0.1)">
      <use xlink:href="#DejaVuSans-65"/>
      <use x="68.408203" xlink:href="#DejaVuSans-114"/>
      <use x="109.505859" xlink:href="#DejaVuSans-114"/>
      <use x="150.619141" xlink:href="#DejaVuSans-97"/>
      <use x="211.898438" xlink:href="#DejaVuSans-121"/>
      <use x="271.078125" xlink:href="#DejaVuSans-32"/>
      <use x="302.865234" xlink:href="#DejaVuSans-73"/>
      <use x="332.357422" xlink:href="#DejaVuSans-110"/>
      <use x="395.736328" xlink:href="#DejaVuSans-100"/>
      <use x="459.212891" xlink:href="#DejaVuSans-101"/>
      <use x="520.720703" xlink:href="#DejaVuSans-120"/>
     </g>
    </g>
   </g>
   <g id="matplotlib.axis_2">
    <g id="ytick_1">
     <g id="line2d_10">
      <defs>
       <path d="M 0 0 
L -3.5 0 
" id="mf9c297514c" style="stroke:#000000;stroke-width:0.8;"/>
      </defs>
      <g>
       <use style="stroke:#000000;stroke-width:0.8;" x="52.160938" xlink:href="#mf9c297514c" y="129.896434"/>
      </g>
     </g>
     <g id="text_11">
      <!-- −1.0 -->
      <defs>
       <path d="M 10.59375 35.5 
L 73.1875 35.5 
L 73.1875 27.203125 
L 10.59375 27.203125 
z
" id="DejaVuSans-8722"/>
       <path d="M 10.6875 12.40625 
L 21 12.40625 
L 21 0 
L 10.6875 0 
z
" id="DejaVuSans-46"/>
      </defs>
      <g transform="translate(20.878125 133.695652)scale(0.1 -0.1)">
       <use xlink:href="#DejaVuSans-8722"/>
       <use x="83.789062" xlink:href="#DejaVuSans-49"/>
       <use x="147.412109" xlink:href="#DejaVuSans-46"/>
       <use x="179.199219" xlink:href="#DejaVuSans-48"/>
      </g>
     </g>
    </g>
    <g id="ytick_2">
     <g id="line2d_11">
      <g>
       <use style="stroke:#000000;stroke-width:0.8;" x="52.160938" xlink:href="#mf9c297514c" y="104.261465"/>
      </g>
     </g>
     <g id="text_12">
      <!-- −0.5 -->
      <g transform="translate(20.878125 108.060684)scale(0.1 -0.1)">
       <use xlink:href="#DejaVuSans-8722"/>
       <use x="83.789062" xlink:href="#DejaVuSans-48"/>
       <use x="147.412109" xlink:href="#DejaVuSans-46"/>
       <use x="179.199219" xlink:href="#DejaVuSans-53"/>
      </g>
     </g>
    </g>
    <g id="ytick_3">
     <g id="line2d_12">
      <g>
       <use style="stroke:#000000;stroke-width:0.8;" x="52.160938" xlink:href="#mf9c297514c" y="78.626497"/>
      </g>
     </g>
     <g id="text_13">
      <!-- 0.0 -->
      <g transform="translate(29.257813 82.425716)scale(0.1 -0.1)">
       <use xlink:href="#DejaVuSans-48"/>
       <use x="63.623047" xlink:href="#DejaVuSans-46"/>
       <use x="95.410156" xlink:href="#DejaVuSans-48"/>
      </g>
     </g>
    </g>
    <g id="ytick_4">
     <g id="line2d_13">
      <g>
       <use style="stroke:#000000;stroke-width:0.8;" x="52.160938" xlink:href="#mf9c297514c" y="52.991529"/>
      </g>
     </g>
     <g id="text_14">
      <!-- 0.5 -->
      <g transform="translate(29.257813 56.790747)scale(0.1 -0.1)">
       <use xlink:href="#DejaVuSans-48"/>
       <use x="63.623047" xlink:href="#DejaVuSans-46"/>
       <use x="95.410156" xlink:href="#DejaVuSans-53"/>
      </g>
     </g>
    </g>
    <g id="ytick_5">
     <g id="line2d_14">
      <g>
       <use style="stroke:#000000;stroke-width:0.8;" x="52.160938" xlink:href="#mf9c297514c" y="27.35656"/>
      </g>
     </g>
     <g id="text_15">
      <!-- 1.0 -->
      <g transform="translate(29.257813 31.155779)scale(0.1 -0.1)">
       <use xlink:href="#DejaVuSans-49"/>
       <use x="63.623047" xlink:href="#DejaVuSans-46"/>
       <use x="95.410156" xlink:href="#DejaVuSans-48"/>
      </g>
     </g>
    </g>
    <g id="text_16">
     <!-- Value -->
     <defs>
      <path d="M 28.609375 0 
L 0.78125 72.90625 
L 11.078125 72.90625 
L 34.1875 11.53125 
L 57.328125 72.90625 
L 67.578125 72.90625 
L 39.796875 0 
z
" id="DejaVuSans-86"/>
      <path d="M 9.421875 75.984375 
L 18.40625 75.984375 
L 18.40625 0 
L 9.421875 0 
z
" id="DejaVuSans-108"/>
      <path d="M 8.5 21.578125 
L 8.5 54.6875 
L 17.484375 54.6875 
L 17.484375 21.921875 
Q 17.484375 14.15625 20.5 10.265625 
Q 23.53125 6.390625 29.59375 6.390625 
Q 36.859375 6.390625 41.078125 11.03125 
Q 45.3125 15.671875 45.3125 23.6875 
L 45.3125 54.6875 
L 54.296875 54.6875 
L 54.296875 0 
L 45.3125 0 
L 45.3125 8.40625 
Q 42.046875 3.421875 37.71875 1 
Q 33.40625 -1.421875 27.6875 -1.421875 
Q 18.265625 -1.421875 13.375 4.4375 
Q 8.5 10.296875 8.5 21.578125 
z
M 31.109375 56 
z
" id="DejaVuSans-117"/>
     </defs>
     <g transform="translate(14.798438 91.871406)rotate(-90)scale(0.1 -0.1)">
      <use xlink:href="#DejaVuSans-86"/>
      <use x="68.298828" xlink:href="#DejaVuSans-97"/>
      <use x="129.578125" xlink:href="#DejaVuSans-108"/>
      <use x="157.361328" xlink:href="#DejaVuSans-117"/>
      <use x="220.740234" xlink:href="#DejaVuSans-101"/>
     </g>
    </g>
   </g>
   <g id="line2d_15">
    <path clip-path="url(#p5c4325c002)" d="M 52.160938 82.150053 
L 52.439938 53.47813 
L 52.718938 69.933389 
L 53.276938 38.068047 
L 53.555938 69.949035 
L 53.834938 59.581768 
L 54.113938 55.613856 
L 54.392938 75.264098 
L 54.671938 48.393068 
L 54.950938 67.372083 
L 55.229938 105.513173 
L 55.508938 69.124473 
L 55.787938 61.955319 
L 56.066938 76.3656 
L 56.345938 68.069909 
L 56.624938 101.531179 
L 56.903938 95.36339 
L 57.182938 38.556213 
L 57.461938 47.671772 
L 57.740938 64.613632 
L 58.019938 48.746676 
L 58.298938 45.640877 
L 58.577938 39.948737 
L 58.856938 60.661366 
L 59.135938 101.176007 
L 59.414938 95.862508 
L 59.972938 53.276292 
L 60.251938 63.433898 
L 60.530938 91.177993 
L 61.088938 51.01696 
L 61.367938 101.847235 
L 61.646938 108.426522 
L 61.925938 64.199004 
L 62.483938 30.487394 
L 62.762938 50.708727 
L 63.041938 96.183258 
L 63.599938 40.169351 
L 63.878938 70.088288 
L 64.157938 84.916327 
L 64.436938 68.594062 
L 64.715938 59.320474 
L 64.994938 75.248452 
L 65.273938 116.745682 
L 65.552938 110.718711 
L 65.831938 63.601314 
L 66.110938 72.716873 
L 66.389938 89.708802 
L 66.668938 74.082799 
L 66.947938 85.194832 
L 67.226938 69.672095 
L 67.505938 30.485829 
L 67.784938 60.863204 
L 68.063938 70.297949 
L 68.342938 27.358125 
L 68.621938 49.466408 
L 68.900938 81.701003 
L 69.179938 74.979334 
L 69.458938 115.68799 
L 69.737938 128.158125 
L 70.016938 69.557877 
L 70.295938 69.520325 
L 70.574938 101.60941 
L 70.853938 88.216141 
L 71.132938 87.984575 
L 71.411938 83.972852 
L 71.690938 50.07818 
L 71.969938 72.899936 
L 72.248938 118.656101 
L 72.806938 64.486897 
L 73.085938 92.110515 
L 73.364938 79.257045 
L 73.643938 37.227838 
L 74.201938 44.725566 
L 74.480938 34.873064 
L 75.038938 92.54079 
L 75.317938 69.920872 
L 75.596938 80.979707 
L 75.875938 113.516277 
L 76.433938 83.564483 
L 76.712938 108.396794 
L 76.991938 117.174392 
L 77.549938 82.082774 
L 77.828938 75.758522 
L 78.107938 78.451258 
L 78.386938 103.02384 
L 78.665938 108.794211 
L 78.944938 69.499985 
L 79.223938 48.64341 
L 79.502938 67.21249 
L 79.781938 68.761478 
L 80.060938 62.804915 
L 80.339938 69.578217 
L 80.897938 46.005437 
L 81.176938 61.656473 
L 81.455938 54.723579 
L 81.734938 50.863626 
L 82.013938 68.284264 
L 82.292938 58.48183 
L 82.571938 59.027888 
L 82.850938 88.266209 
L 83.129938 80.003375 
L 83.408938 64.028459 
L 83.687938 77.701798 
L 84.524938 85.351295 
L 84.803938 67.303239 
L 85.082938 64.199004 
L 85.361938 63.732743 
L 85.640938 39.261863 
L 85.919938 37.850563 
L 86.198938 56.041001 
L 86.477938 64.488462 
L 86.756938 84.23884 
L 87.035938 95.161552 
L 87.593938 64.561999 
L 87.872938 64.885879 
L 88.151938 71.623194 
L 88.430938 75.536344 
L 88.709938 64.824858 
L 88.988938 73.937288 
L 89.267938 101.618798 
L 89.546938 90.431663 
L 89.825938 56.766991 
L 90.104938 41.269289 
L 90.383938 38.670431 
L 90.941938 87.6826 
L 91.499938 50.187704 
L 91.778938 79.487046 
L 92.057938 88.295937 
L 92.336938 59.185916 
L 92.615938 68.844403 
L 92.894938 112.255182 
L 93.173938 107.817879 
L 93.452938 68.991479 
L 93.731938 69.517196 
L 94.010938 90.786835 
L 94.289938 88.051854 
L 94.568938 83.292237 
L 94.847938 73.273883 
L 95.126938 44.458013 
L 95.405938 48.402456 
L 95.684938 74.714911 
L 96.242938 27.358125 
L 96.800938 78.224386 
L 97.079938 87.521443 
L 97.358938 117.986437 
L 97.637938 110.524696 
L 97.916938 66.769698 
L 98.195938 72.685581 
L 98.474938 98.933886 
L 99.032938 89.813632 
L 99.590938 59.051357 
L 100.148938 100.446887 
L 100.427938 81.278552 
L 100.706938 83.433054 
L 100.985938 82.153183 
L 101.264938 51.91506 
L 101.543938 42.880862 
L 101.822938 49.915458 
L 102.101938 52.221729 
L 102.380938 64.993838 
L 102.659938 71.950202 
L 102.938938 70.574889 
L 103.217938 79.990858 
L 103.775938 108.883395 
L 104.054938 105.855828 
L 104.333938 90.309621 
L 104.612938 107.508082 
L 104.891938 117.584326 
L 105.170938 80.583855 
L 105.449938 67.343919 
L 105.728938 83.159243 
L 106.007938 85.143199 
L 106.286938 99.489331 
L 106.565938 96.558771 
L 106.844938 57.453866 
L 107.123938 60.179459 
L 107.402938 80.809162 
L 107.681938 60.359392 
L 107.960938 56.25692 
L 108.239938 69.255902 
L 108.518938 55.335351 
L 108.797938 50.289405 
L 109.076938 54.775212 
L 109.355938 51.936965 
L 109.634938 70.972306 
L 109.913938 81.26447 
L 110.192938 61.113545 
L 110.471938 68.231067 
L 110.750938 91.068469 
L 111.308938 57.430396 
L 111.587938 67.309497 
L 111.866938 84.001016 
L 112.145938 90.89323 
L 112.424938 86.114837 
L 112.982938 55.901748 
L 113.819938 36.431439 
L 114.098938 47.1883 
L 114.656938 94.078825 
L 114.935938 87.219469 
L 115.214938 75.370493 
L 115.493938 69.640802 
L 115.772938 69.021207 
L 116.051938 71.300879 
L 116.330938 70.174343 
L 116.609938 72.978167 
L 116.888938 90.196968 
L 117.167938 99.029328 
L 117.725938 51.015396 
L 118.004938 45.611149 
L 118.283938 54.751742 
L 118.562938 68.511136 
L 118.841938 72.979732 
L 119.120938 57.860671 
L 119.399938 54.395006 
L 119.678938 74.536543 
L 119.957938 75.777298 
L 120.236938 68.301475 
L 120.515938 92.34834 
L 120.794938 104.96868 
L 121.073938 80.355418 
L 121.352938 73.18157 
L 121.631938 84.601835 
L 121.910938 80.266234 
L 122.189938 82.727404 
L 122.468938 88.913968 
L 123.026938 46.621902 
L 123.305938 56.477534 
L 123.584938 55.643584 
L 123.863938 41.291193 
L 124.142938 49.258311 
L 124.979938 110.776603 
L 125.258938 115.248327 
L 125.537938 79.130309 
L 125.816938 62.191578 
L 126.095938 88.353828 
L 126.374938 103.42908 
L 126.932938 77.376354 
L 127.211938 63.779682 
L 127.490938 69.855157 
L 127.769938 93.520251 
L 128.048938 93.970866 
L 128.327938 79.15065 
L 128.606938 78.305747 
L 128.885938 67.699091 
L 129.164938 44.329713 
L 129.443938 43.564607 
L 129.722938 54.800246 
L 130.001938 56.022225 
L 130.280938 61.974094 
L 130.559938 70.673461 
L 130.838938 74.771238 
L 131.396938 111.058237 
L 131.954938 81.486649 
L 132.512938 113.1392 
L 133.349938 76.617507 
L 133.628938 79.665414 
L 133.907938 99.445521 
L 134.186938 100.601786 
L 134.465938 69.443658 
L 134.744938 50.901177 
L 135.023938 59.681905 
L 135.302938 64.310093 
L 135.581938 63.612266 
L 135.860938 67.703785 
L 136.139938 61.029055 
L 136.418938 50.431787 
L 136.976938 59.226596 
L 137.255938 55.305623 
L 137.813938 66.707113 
L 138.092938 63.806281 
L 138.650938 93.365352 
L 139.208938 66.456771 
L 139.766938 83.639585 
L 140.045938 84.856871 
L 140.324938 83.257815 
L 140.882938 40.910987 
L 141.161938 43.256374 
L 141.440938 48.929738 
L 141.719938 50.120425 
L 142.277938 84.338977 
L 142.835938 77.058733 
L 143.114938 80.361676 
L 143.672938 60.547148 
L 143.951938 59.785171 
L 144.230938 62.180626 
L 144.509938 75.587977 
L 144.788938 96.11285 
L 145.067938 89.128322 
L 145.346938 59.854015 
L 145.625938 48.546403 
L 146.462938 71.299315 
L 146.741938 72.582315 
L 147.020938 62.942603 
L 147.299938 61.881781 
L 147.578938 69.800395 
L 147.857938 73.197216 
L 148.136938 82.359714 
L 148.415938 97.561701 
L 148.694938 95.884413 
L 148.973938 82.581893 
L 149.252938 79.357181 
L 149.531938 79.959565 
L 149.810938 76.642541 
L 150.089938 75.203077 
L 150.368938 69.772232 
L 150.647938 60.234221 
L 150.926938 60.489256 
L 151.205938 61.493751 
L 151.763938 38.74084 
L 152.042938 51.027913 
L 152.600938 101.309 
L 152.879938 114.045124 
L 153.158938 100.202804 
L 153.437938 79.635686 
L 153.716938 81.481955 
L 153.995938 92.769226 
L 154.274938 89.02975 
L 154.832938 66.330036 
L 155.111938 69.643932 
L 155.669938 101.31213 
L 155.948938 93.817531 
L 156.227938 80.64644 
L 156.506938 73.575858 
L 157.064938 48.36334 
L 157.343938 47.890821 
L 159.017938 94.615495 
L 159.296938 95.186586 
L 159.575938 87.55743 
L 159.854938 91.486226 
L 160.133938 107.279645 
L 160.412938 108.592373 
L 160.970938 79.196024 
L 161.249938 83.536319 
L 161.528938 94.750053 
L 161.807938 97.05476 
L 162.365938 63.421381 
L 162.644938 61.571983 
L 162.923938 70.520127 
L 163.202938 73.104903 
L 163.760938 68.096508 
L 164.318938 51.195329 
L 164.597938 49.993689 
L 165.434938 67.658411 
L 165.992938 70.05856 
L 166.271938 73.241026 
L 166.550938 72.051904 
L 166.829938 65.170642 
L 167.108938 67.206231 
L 167.387938 81.639983 
L 167.666938 89.790163 
L 167.945938 81.41624 
L 168.503938 56.458758 
L 168.782938 51.797713 
L 169.061938 50.691516 
L 169.340938 51.857169 
L 169.619938 60.058982 
L 170.177938 87.505797 
L 170.456938 80.274057 
L 170.735938 68.824063 
L 171.014938 68.428211 
L 171.293938 72.006529 
L 171.851938 66.708678 
L 172.130938 71.742106 
L 172.409938 83.827341 
L 172.688938 90.563092 
L 172.967938 79.515209 
L 173.246938 58.926187 
L 173.525938 50.943422 
L 174.083938 65.089281 
L 174.362938 65.212887 
L 174.641938 65.103363 
L 175.199938 66.800991 
L 175.478938 69.122908 
L 175.757938 75.113893 
L 176.315938 97.796396 
L 176.594938 97.370816 
L 177.152938 73.176876 
L 177.431938 74.304977 
L 177.710938 77.539076 
L 177.989938 75.265663 
L 178.547938 64.019071 
L 179.105938 59.262583 
L 179.384938 52.982141 
L 179.663938 50.572604 
L 179.942938 65.029825 
L 180.500938 104.942081 
L 180.779938 101.39662 
L 181.337938 79.602829 
L 181.895938 89.327031 
L 182.174938 81.333314 
L 182.453938 68.878825 
L 182.732938 70.449718 
L 183.290938 95.009783 
L 183.569938 93.842566 
L 184.406938 73.156536 
L 184.964938 43.450389 
L 185.243938 41.025206 
L 185.801938 69.593863 
L 186.359938 81.835562 
L 186.917938 98.464495 
L 187.196938 96.41013 
L 187.475938 91.96344 
L 187.754938 94.412092 
L 188.033938 100.820835 
L 188.312938 97.564831 
L 188.591938 85.068096 
L 188.870938 81.937263 
L 189.149938 93.197936 
L 189.428938 99.409534 
L 189.707938 86.890895 
L 189.986938 67.190585 
L 190.265938 59.622449 
L 190.823938 73.652525 
L 191.102938 70.994211 
L 191.381938 64.935947 
L 191.939938 59.329862 
L 192.218938 53.17772 
L 192.497938 50.890225 
L 193.892938 77.570369 
L 194.171938 75.182737 
L 194.450938 67.674057 
L 194.729938 65.553977 
L 195.287938 89.425603 
L 195.566938 86.818922 
L 196.124938 57.482029 
L 196.403938 59.372107 
L 196.682938 60.350004 
L 196.961938 51.87438 
L 197.240938 47.397961 
L 197.519938 60.911708 
L 197.798938 82.918289 
L 198.077938 91.04187 
L 198.635938 69.617333 
L 198.914938 66.755617 
L 199.193938 65.755815 
L 199.472938 62.916004 
L 199.751938 66.897998 
L 200.309938 91.107585 
L 200.588938 83.49251 
L 200.867938 66.973101 
L 201.146938 59.885307 
L 201.425938 63.42451 
L 201.704938 64.086351 
L 201.983938 57.924821 
L 202.262938 56.654338 
L 202.820938 74.517767 
L 203.378938 67.46909 
L 203.657938 76.889753 
L 203.936938 93.945831 
L 204.215938 100.523554 
L 204.773938 75.774169 
L 205.052938 73.431911 
L 205.331938 79.574665 
L 205.610938 80.485283 
L 206.447938 57.336518 
L 206.726938 59.261018 
L 207.005938 60.063676 
L 207.284938 58.142305 
L 207.563938 61.888039 
L 208.400938 95.393118 
L 208.679938 90.03581 
L 208.958938 81.231613 
L 209.237938 81.067327 
L 209.516938 88.438319 
L 209.795938 91.307858 
L 210.353938 77.601662 
L 210.632938 76.889753 
L 211.190938 88.536891 
L 211.469938 88.594782 
L 211.748938 82.910466 
L 212.585938 55.377596 
L 212.864938 52.935202 
L 213.143938 55.967463 
L 213.701938 64.527577 
L 213.980938 71.764011 
L 214.538938 94.764135 
L 214.817938 97.244081 
L 215.096938 93.988077 
L 215.375938 94.892435 
L 215.654938 101.4373 
L 215.933938 102.208665 
L 216.491938 83.719382 
L 216.770938 85.443609 
L 217.049938 93.194807 
L 217.328938 95.316451 
L 217.607938 84.869388 
L 217.886938 69.398284 
L 218.165938 62.814303 
L 218.723938 69.997539 
L 219.002938 68.858485 
L 219.839938 51.747644 
L 220.676938 66.646092 
L 220.955938 64.555741 
L 221.234938 65.805884 
L 221.792938 77.872343 
L 222.071938 74.912055 
L 222.350938 70.16339 
L 222.629938 71.713943 
L 223.187938 83.3204 
L 223.466938 78.707858 
L 224.024938 61.008715 
L 224.582938 52.587853 
L 224.861938 50.786959 
L 225.140938 56.802978 
L 225.698938 78.72194 
L 225.977938 80.258411 
L 226.535938 74.171983 
L 226.814938 72.735649 
L 227.093938 70.409038 
L 227.372938 69.179235 
L 227.651938 74.225181 
L 227.930938 82.281483 
L 228.209938 81.384947 
L 228.767938 58.896459 
L 229.046938 58.16108 
L 229.325938 62.99893 
L 229.604938 65.114315 
L 229.883938 62.822126 
L 230.162938 62.93165 
L 230.720938 73.63062 
L 230.999938 73.294223 
L 231.278938 75.440902 
L 231.836938 90.533364 
L 232.115938 89.101724 
L 232.394938 82.511484 
L 232.673938 78.869015 
L 232.952938 80.435214 
L 233.231938 81.300457 
L 233.510938 75.814849 
L 234.068938 58.754077 
L 234.347938 58.797887 
L 234.626938 58.993466 
L 234.905938 54.402829 
L 235.184938 53.751941 
L 235.463938 65.899762 
L 236.021938 99.533141 
L 236.300938 98.247011 
L 236.579938 87.433823 
L 236.858938 82.789989 
L 237.137938 87.763961 
L 237.416938 90.502071 
L 237.974938 76.662881 
L 238.253938 75.633352 
L 238.811938 90.755542 
L 239.090938 90.714862 
L 239.369938 85.643882 
L 239.648938 78.351121 
L 240.485938 48.183408 
L 240.764938 49.230148 
L 242.438938 95.756113 
L 242.996938 91.828881 
L 243.554938 101.927031 
L 243.833938 97.173672 
L 244.112938 86.843956 
L 244.391938 83.199923 
L 244.949938 97.051631 
L 245.228938 91.647384 
L 245.786938 61.43586 
L 246.065938 61.836406 
L 246.344938 66.697725 
L 246.623938 67.325144 
L 247.460938 56.220934 
L 247.739938 56.973523 
L 248.018938 58.765029 
L 248.576938 65.195676 
L 249.134938 72.809187 
L 249.413938 74.774367 
L 249.971938 71.097477 
L 250.250938 74.198582 
L 250.529938 78.983234 
L 250.808938 81.194062 
L 251.087938 79.180378 
L 251.645938 65.915408 
L 252.203938 51.750774 
L 252.482938 48.910962 
L 252.761938 55.305623 
L 253.319938 79.217929 
L 253.598938 81.621207 
L 254.435938 68.656647 
L 254.714938 69.73468 
L 254.993938 71.424485 
L 255.272938 75.088859 
L 255.551938 81.259777 
L 255.830938 83.534755 
L 256.109938 76.547098 
L 256.667937 57.054884 
L 256.946938 57.164408 
L 257.504938 68.118413 
L 257.783938 69.557877 
L 258.062938 69.805089 
L 258.341938 69.903661 
L 258.620938 69.37325 
L 258.899938 72.105101 
L 259.457938 89.286351 
L 259.736938 90.941734 
L 260.294938 79.742081 
L 260.573937 77.970915 
L 260.852937 78.648402 
L 261.131938 76.978937 
L 261.968938 60.016737 
L 262.247938 61.162049 
L 262.526938 59.215644 
L 262.805938 54.545211 
L 263.084938 57.696384 
L 263.921938 101.952065 
L 264.479938 82.84788 
L 264.758938 82.215768 
L 265.037937 87.965799 
L 265.316937 87.96267 
L 265.874938 73.536742 
L 266.153938 77.629825 
L 266.432938 87.555865 
L 266.711938 91.813235 
L 266.990938 87.951717 
L 267.548938 70.947272 
L 268.106938 52.396968 
L 268.385938 50.708727 
L 268.664938 55.227391 
L 269.222938 71.926733 
L 270.338938 93.291814 
L 270.617938 92.58147 
L 270.896938 94.520052 
L 271.175938 99.179533 
L 271.454938 98.564632 
L 272.012938 83.702171 
L 272.291938 85.229254 
L 272.570938 92.063576 
L 272.849938 93.41542 
L 273.686937 61.960012 
L 274.244938 68.501748 
L 274.523938 67.763241 
L 275.360938 56.069164 
L 275.639938 57.347471 
L 276.476938 67.176503 
L 277.034938 71.649793 
L 277.313938 71.950202 
L 277.592938 70.69693 
L 277.871938 71.892311 
L 278.429938 81.984202 
L 278.708938 82.187605 
L 279.266938 69.459305 
L 280.103938 51.115532 
L 280.382938 50.984103 
L 280.661938 59.824287 
L 281.219938 83.132644 
L 281.498938 82.450463 
L 282.056938 69.604816 
L 282.335938 68.806852 
L 282.614937 69.578217 
L 282.893938 70.93319 
L 283.451938 80.385146 
L 283.730938 80.619841 
L 284.567938 57.115905 
L 284.846938 60.914837 
L 285.125938 67.332967 
L 285.404938 70.634345 
L 285.683938 70.509174 
L 285.962938 69.470257 
L 286.241938 69.054064 
L 286.520938 70.624957 
L 286.799937 76.328049 
L 287.357938 91.296906 
L 287.636938 88.497775 
L 287.915938 81.314539 
L 288.194938 77.365402 
L 288.752938 77.548464 
L 289.031938 74.117221 
L 289.589938 60.066805 
L 289.868938 58.303462 
L 290.147938 58.705573 
L 290.426938 57.187878 
L 290.705938 57.77618 
L 290.984938 67.506641 
L 291.542938 98.286127 
L 291.821938 98.703884 
L 292.379938 81.754201 
L 292.658938 82.633525 
L 292.937938 85.880142 
L 293.216938 83.420537 
L 293.495938 76.905399 
L 293.774938 75.539474 
L 294.332938 90.416016 
L 294.611938 90.850985 
L 294.890938 84.223194 
L 295.727938 56.605834 
L 296.006938 54.144664 
L 296.285938 56.134879 
L 298.238938 93.498346 
L 298.517938 94.848625 
L 298.796938 97.384898 
L 299.075938 98.387828 
L 299.354938 94.122635 
L 299.633938 87.479198 
L 299.912937 84.980477 
L 300.470938 91.368879 
L 300.749938 87.088039 
L 301.307938 66.298743 
L 301.586938 64.81547 
L 301.865938 67.896235 
L 302.144938 69.216786 
L 302.423938 67.034122 
L 302.981938 57.558696 
L 303.260938 55.424535 
L 303.539938 57.915433 
L 304.097938 66.963713 
L 304.376938 68.606579 
L 304.655938 69.451482 
L 304.934938 70.668767 
L 305.492938 71.504282 
L 305.771938 74.718041 
L 306.329938 84.141833 
L 306.608938 81.643112 
L 307.724938 55.390113 
L 308.003938 51.35805 
L 308.282938 54.002282 
L 309.119937 83.10448 
L 309.398937 78.883097 
L 309.677937 71.507411 
L 309.956938 68.503313 
L 310.514938 70.729788 
L 310.793938 72.507212 
L 311.351938 80.375758 
L 311.630938 77.468668 
L 312.188938 60.431365 
L 312.467938 60.054288 
L 313.025937 70.52795 
L 313.304937 71.688909 
L 313.862937 68.778689 
L 314.141938 68.875696 
L 314.420938 71.759317 
L 314.978938 87.558994 
L 315.257938 89.292609 
L 315.815938 78.825206 
L 316.094938 78.286971 
L 316.373938 79.595006 
L 316.652938 78.29323 
L 317.489937 59.915035 
L 317.768937 58.250265 
L 318.047937 57.823119 
L 318.326937 58.406728 
L 318.605938 63.900159 
L 319.442938 96.621356 
L 319.721938 93.213583 
L 320.000938 85.938033 
L 320.279938 81.718214 
L 320.837938 83.509721 
L 321.395938 77.055604 
L 321.674937 79.568407 
L 321.953937 86.274429 
L 322.232937 89.894993 
L 322.511937 86.920623 
L 323.627938 55.376031 
L 323.906938 55.836034 
L 324.185938 59.620884 
L 325.022938 76.180974 
L 325.580938 85.415445 
L 326.138937 94.003723 
L 326.696937 97.776056 
L 326.975937 96.372579 
L 327.533938 87.760832 
L 327.812938 87.732669 
L 328.091938 89.414651 
L 328.370938 87.390014 
L 329.207938 65.363092 
L 329.486938 65.528943 
L 329.765938 66.73997 
L 330.044938 66.043708 
L 330.323937 64.037847 
L 330.881937 58.114141 
L 331.160937 57.32713 
L 331.439938 60.465787 
L 331.997938 68.947669 
L 332.276938 70.013185 
L 332.555938 70.534208 
L 333.113938 72.076938 
L 333.392938 73.90756 
L 333.950938 82.31434 
L 334.229938 82.76339 
L 334.508938 77.611049 
L 335.066937 62.945732 
L 335.624937 53.802009 
L 335.903938 52.828807 
L 336.182938 59.351767 
L 336.740938 80.607324 
L 337.019938 81.871549 
L 337.577938 70.593665 
L 337.856938 70.371486 
L 338.693938 75.733488 
L 338.972938 78.653096 
L 339.251937 78.006902 
L 340.088938 59.888437 
L 340.367938 62.588995 
L 340.925938 71.230471 
L 341.204938 71.258634 
L 341.483938 69.975634 
L 341.762938 69.331005 
L 342.041938 70.294819 
L 342.320938 74.86981 
L 342.878938 88.504033 
L 343.157938 86.495043 
L 343.436937 80.685556 
L 343.715937 77.886425 
L 343.994937 78.750103 
L 344.273937 78.834593 
L 344.552938 75.070083 
L 345.110938 62.607771 
L 345.389938 59.428434 
L 345.668938 58.398905 
L 345.947938 58.61013 
L 346.226938 61.694025 
L 346.784938 81.788623 
L 347.063938 90.325268 
L 347.342938 92.065141 
L 348.179937 82.610056 
L 348.458937 83.032507 
L 348.737938 82.628832 
L 349.016938 80.277186 
L 349.295938 79.656026 
L 349.853938 86.693751 
L 350.132938 86.437151 
L 350.411938 81.057939 
L 351.248938 56.948489 
L 351.527938 55.059975 
L 351.806938 57.233252 
L 352.364937 68.34372 
L 352.922937 78.202481 
L 354.038938 95.081756 
L 354.317938 96.075299 
L 354.596938 95.799923 
L 355.433938 87.574641 
L 355.712938 87.74988 
L 355.991938 87.181917 
L 356.270938 82.91516 
L 356.828937 68.349979 
L 357.107937 65.715135 
L 357.386938 65.569624 
L 357.665938 64.971934 
L 358.502938 61.403003 
L 358.781938 60.490821 
L 359.060938 60.924225 
L 359.339938 63.754648 
L 359.897938 70.923802 
L 360.176938 71.972107 
L 360.455938 72.11136 
L 360.734938 71.942379 
L 361.013937 72.275646 
L 361.292937 74.455182 
L 361.850938 80.500929 
L 362.129938 78.920648 
L 363.245938 56.613657 
L 363.524938 54.308951 
L 363.803938 57.206653 
L 364.640938 80.438344 
L 364.919938 78.168059 
L 365.198937 72.890548 
L 365.477937 70.596794 
L 366.035938 73.904431 
L 366.593938 78.108603 
L 366.872938 78.335475 
L 367.151938 73.344292 
L 367.709938 60.47361 
L 367.988938 60.968034 
L 368.546938 68.647259 
L 368.825938 69.870804 
L 369.104938 69.595428 
L 369.383938 69.546924 
L 369.662937 70.18373 
L 369.941937 72.571362 
L 370.778938 88.530632 
L 371.615938 78.402754 
L 371.894938 78.263502 
L 372.173938 75.869611 
L 373.010938 61.0713 
L 373.289938 59.702245 
L 373.568938 59.450339 
L 373.847938 61.035314 
L 374.126937 66.691467 
L 374.684938 85.407622 
L 374.963938 89.772952 
L 375.242938 89.284786 
L 375.800938 84.814626 
L 376.079938 83.630198 
L 376.358938 82.987133 
L 376.916938 80.780998 
L 377.195938 82.048352 
L 377.474938 84.983606 
L 377.753938 85.848849 
L 378.032938 82.703934 
L 379.148938 57.713595 
L 379.427938 57.474206 
L 379.706938 60.722387 
L 381.380938 90.710168 
L 381.659938 93.141609 
L 381.938938 94.003723 
L 382.217938 94.377671 
L 382.496938 93.312155 
L 383.054937 88.527503 
L 383.333938 88.025255 
L 383.612938 88.080017 
L 383.891938 86.053816 
L 384.728938 68.437598 
L 385.007938 66.843236 
L 385.286938 65.920102 
L 385.844938 62.822126 
L 386.123938 62.154027 
L 386.402938 62.061714 
L 386.681938 61.848923 
L 386.960938 62.202531 
L 387.239937 64.375808 
L 387.797938 71.044279 
L 388.076938 72.762248 
L 388.355938 72.856126 
L 388.634938 72.322585 
L 388.913938 72.801364 
L 389.192938 75.060695 
L 389.471938 78.22908 
L 389.750938 79.687319 
L 390.029938 76.985196 
L 390.866938 60.007349 
L 391.145938 57.281756 
L 391.424937 57.932644 
L 391.703937 63.120971 
L 392.261938 77.171387 
L 392.540938 78.03663 
L 393.098938 70.321418 
L 393.377938 69.985022 
L 393.935938 75.020015 
L 394.214938 77.794112 
L 394.493938 79.124051 
L 394.772938 76.190361 
L 395.330938 62.861242 
L 395.609938 61.234022 
L 396.446938 69.320052 
L 397.004938 70.199377 
L 397.283938 71.477683 
L 397.562938 73.359938 
L 397.841938 76.586214 
L 398.399938 86.46688 
L 398.678938 86.48409 
L 399.236938 78.427788 
L 399.794938 75.994782 
L 400.073937 73.0298 
L 400.631938 64.25846 
L 400.910938 62.089877 
L 401.189938 61.535997 
L 401.468938 62.052326 
L 401.747938 65.00792 
L 402.584938 87.623144 
L 402.863938 89.643087 
L 403.142938 88.383557 
L 403.700938 84.695713 
L 404.537937 80.796645 
L 404.816937 81.212838 
L 405.374938 85.844155 
L 405.653938 84.695713 
L 405.932938 80.150451 
L 406.769938 60.669189 
L 407.048938 57.403797 
L 407.327938 58.233054 
L 407.885938 68.606579 
L 409.001937 89.560162 
L 409.280937 92.769226 
L 409.559938 93.560931 
L 409.838938 93.634469 
L 410.117938 93.406033 
L 410.396938 91.867997 
L 410.675938 89.578937 
L 410.954938 88.280291 
L 411.233938 88.258386 
L 411.512938 87.562124 
L 411.791938 83.667749 
L 412.349938 70.516997 
L 412.628938 67.408069 
L 413.186937 65.104927 
L 413.744938 62.388722 
L 414.023938 62.310491 
L 414.581938 62.756411 
L 414.860938 63.654511 
L 415.139938 66.048402 
L 415.697938 72.802928 
L 415.976938 74.344093 
L 416.255938 74.167289 
L 416.534938 73.63062 
L 416.813938 74.204841 
L 417.371938 78.603028 
L 417.650937 78.086698 
L 417.929937 73.813682 
L 418.487938 62.271375 
L 418.766938 58.838567 
L 419.045938 58.322238 
L 419.324938 61.567289 
L 419.882938 74.847905 
L 420.161938 78.241597 
L 420.440938 76.905399 
L 420.998938 70.532644 
L 421.277938 70.875299 
L 422.114937 79.036431 
L 422.393938 78.595204 
L 423.230938 63.825057 
L 423.509938 63.878254 
L 424.067938 67.669363 
L 424.625938 68.925764 
L 424.904938 70.286996 
L 425.462938 75.81172 
L 426.020938 84.781768 
L 426.299937 86.818922 
L 426.578937 84.692584 
L 427.136938 77.866085 
L 427.694938 74.583482 
L 428.531938 63.757777 
L 428.810938 62.44192 
L 429.089938 62.128993 
L 429.368938 63.236754 
L 429.647938 67.467525 
L 430.484938 88.787232 
L 430.763937 89.375535 
L 431.600938 84.766122 
L 432.437938 80.036233 
L 432.716938 80.949979 
L 432.995938 83.304754 
L 433.274938 84.633128 
L 433.553938 83.095093 
L 433.832938 78.376156 
L 434.669938 58.639859 
L 434.948937 57.209783 
L 435.227937 59.702245 
L 436.064938 76.04485 
L 436.622938 87.626274 
L 436.901938 91.331328 
L 437.180938 93.041473 
L 437.459938 93.92862 
L 437.738938 94.387058 
L 438.017938 93.327801 
L 438.575938 87.776478 
L 438.854938 87.039536 
L 439.133938 87.230421 
L 439.412937 85.301227 
L 440.249938 69.079099 
L 440.528938 67.314191 
L 440.807938 66.325342 
L 441.644938 62.384028 
L 441.923938 62.061714 
L 442.202938 62.440355 
L 442.481938 63.823492 
L 443.597938 73.450687 
L 443.876937 74.602258 
L 444.155938 74.927702 
L 444.434938 75.051308 
L 444.713938 75.949408 
L 444.992938 77.468668 
L 445.271938 77.812887 
L 445.550938 75.198383 
L 446.387938 61.174566 
L 446.666938 59.519183 
L 446.945938 60.526807 
L 447.224938 64.788871 
L 447.782938 76.310838 
L 448.061937 77.629825 
L 448.898938 71.401016 
L 449.177938 72.427416 
L 450.014938 79.117792 
L 450.293938 77.169823 
L 450.851938 66.810379 
L 451.130938 64.267848 
L 451.409938 64.834246 
L 451.967938 68.115284 
L 452.525937 70.614005 
L 453.083938 74.470828 
L 453.920938 84.806803 
L 454.199938 84.173126 
L 454.757938 79.141262 
L 455.315938 77.432681 
L 455.594938 74.330011 
L 456.152938 65.402208 
L 456.431938 63.080291 
L 456.710938 62.263552 
L 456.989938 62.692261 
L 457.268938 65.52112 
L 457.826938 80.330384 
L 458.105938 87.228856 
L 458.384938 89.602407 
L 458.663938 88.012738 
L 458.942938 85.651705 
L 459.221938 84.537685 
L 459.500938 83.9619 
L 460.337938 79.975212 
L 460.895938 83.209311 
L 461.174937 83.376727 
L 461.453938 80.691814 
L 462.011938 68.243584 
L 462.290938 61.847359 
L 462.569938 58.502171 
L 462.848938 59.248501 
L 463.406938 68.206033 
L 464.522938 88.892063 
L 465.080938 92.717594 
L 465.359938 93.848824 
L 465.638938 93.876988 
L 465.917938 91.796024 
L 466.475938 86.444975 
L 466.754938 86.224361 
L 467.033938 85.618848 
L 467.312938 82.195428 
L 467.870938 71.70612 
L 468.149938 69.143249 
L 468.707938 66.700854 
L 469.265938 63.516824 
L 469.544938 62.548315 
L 469.823937 62.299538 
L 470.102938 63.113148 
L 470.660938 67.772629 
L 471.218938 72.521294 
L 471.497938 74.068717 
L 471.776938 74.813483 
L 472.055938 75.026274 
L 472.334938 75.631787 
L 472.892938 77.762819 
L 473.171938 76.331179 
L 474.287938 60.140343 
L 474.566938 59.87279 
L 474.845938 62.715731 
L 475.682938 77.778465 
L 475.961938 77.420164 
L 476.519938 72.568233 
L 476.798938 72.142653 
L 477.077938 73.56334 
L 477.635938 77.891119 
L 477.914938 77.745608 
L 478.193938 74.746204 
L 478.751938 66.323778 
L 479.030938 65.084587 
L 479.309938 65.805884 
L 480.425938 71.319655 
L 480.983938 76.445397 
L 481.541938 83.228087 
L 481.820938 84.235711 
L 482.099938 82.844751 
L 482.657938 78.873709 
L 482.936938 77.473362 
L 483.215938 75.173349 
L 484.052938 64.802953 
L 484.331938 63.160087 
L 484.610938 62.878453 
L 484.889938 64.549482 
L 485.168938 69.046241 
L 486.005938 88.483693 
L 486.284938 89.13771 
L 487.121938 83.739722 
L 487.958938 80.219295 
L 488.237938 80.541609 
L 488.516938 81.926311 
L 488.795938 82.705499 
L 489.074938 81.286375 
L 489.353938 77.232408 
L 490.190938 61.108851 
L 490.469938 59.899389 
L 490.748938 61.933414 
L 491.306938 71.523057 
L 492.143938 86.574839 
L 492.701938 92.11208 
L 492.980938 93.190113 
L 493.259938 93.160385 
L 493.538938 91.799153 
L 494.096938 87.282054 
L 494.375938 86.330756 
L 494.654938 85.84572 
L 494.933938 83.866457 
L 496.049938 68.504878 
L 497.444938 63.2524 
L 497.723938 63.587232 
L 498.002938 64.978192 
L 499.118938 72.5166 
L 499.397938 73.359938 
L 499.676938 73.704158 
L 499.955938 74.247086 
L 500.513938 77.309075 
L 500.792938 77.554723 
L 501.071938 75.235935 
L 501.908938 62.218177 
L 502.187938 60.583134 
L 502.466938 61.789467 
L 503.024938 71.451084 
L 503.303938 75.905598 
L 503.582938 77.233973 
L 503.861938 75.636481 
L 504.140938 73.156536 
L 504.419938 71.914216 
L 504.698938 72.635512 
L 505.256938 76.98989 
L 505.535938 77.99282 
L 505.814938 76.644105 
L 506.651938 66.179831 
L 506.930938 65.765203 
L 507.488938 67.885283 
L 508.046938 70.603052 
L 508.604938 75.503487 
L 509.162938 81.508553 
L 509.441938 83.199923 
L 509.720938 83.066929 
L 510.557938 77.902071 
L 511.115938 73.176876 
L 511.952938 64.105126 
L 512.231938 63.144441 
L 512.510938 64.06914 
L 512.789938 67.40494 
L 513.905938 88.375733 
L 514.184938 87.613756 
L 514.742938 83.625504 
L 515.579938 80.627664 
L 515.858938 80.427391 
L 516.416938 82.458286 
L 516.695938 82.114067 
L 516.974938 79.238269 
L 518.090938 60.673883 
L 518.369938 61.137015 
L 518.648938 64.342951 
L 520.043938 87.862533 
L 520.601938 92.676913 
L 520.880938 93.0978 
L 521.159938 92.179359 
L 521.996938 86.645248 
L 522.554938 84.201289 
L 522.833938 81.408417 
L 523.670938 70.224411 
L 524.228938 67.336096 
L 525.065938 63.056821 
L 525.344938 62.869065 
L 525.623938 63.972132 
L 527.018938 73.528918 
L 527.855938 75.478453 
L 528.134938 76.906964 
L 528.413938 77.645471 
L 528.692938 76.41254 
L 529.250938 68.479844 
L 529.808938 61.423343 
L 530.087938 61.140144 
L 530.366938 63.817233 
L 531.203938 76.470431 
L 531.482938 76.379682 
L 532.040938 72.735649 
L 532.319938 72.635512 
L 532.598938 74.231439 
L 533.156938 78.088263 
L 533.435938 77.778465 
L 533.714938 75.098247 
L 534.272938 67.483172 
L 534.551938 66.060919 
L 534.830938 66.647657 
L 535.946938 72.112924 
L 536.504938 76.894447 
L 537.062938 81.766718 
L 537.341938 82.646043 
L 537.620938 82.071822 
L 538.457938 77.341932 
L 539.015938 72.116054 
L 539.573938 65.516426 
L 539.852938 63.667029 
L 540.131938 63.665464 
L 540.410938 65.877857 
L 540.968938 76.824038 
L 541.526938 86.948787 
L 541.805938 87.599675 
L 543.200938 80.19739 
L 543.479938 79.656026 
L 543.758938 80.270928 
L 544.316938 82.475497 
L 544.595938 81.270729 
L 544.874938 77.445198 
L 545.711938 62.218177 
L 545.990938 61.196471 
L 546.269938 63.08342 
L 546.827938 72.198979 
L 547.664938 85.828509 
L 548.222938 91.151395 
L 548.501938 92.334258 
L 548.780938 92.321741 
L 549.059938 91.185817 
L 550.454938 82.484885 
L 551.570938 69.695564 
L 552.965938 63.418252 
L 553.244938 63.757777 
L 553.802938 67.140517 
L 554.639938 72.799799 
L 554.918938 73.93103 
L 555.755938 76.144987 
L 556.034938 76.936692 
L 556.313938 76.545533 
L 556.592938 74.358175 
L 557.429938 63.427639 
L 557.708938 62.221306 
L 557.987938 63.548116 
L 559.103938 76.515805 
L 559.382938 75.475324 
L 559.661938 73.536742 
L 559.940938 72.450885 
L 560.219938 73.084562 
L 560.777938 76.983631 
L 561.056938 77.662682 
L 561.335938 76.2373 
L 562.172938 67.101401 
L 562.451938 66.78378 
L 563.567938 71.415098 
L 564.125938 75.553555 
L 564.683938 81.009435 
L 564.962938 82.752438 
L 565.241938 83.029378 
L 565.520938 81.995155 
L 566.357938 76.28111 
L 566.915938 70.316724 
L 567.473938 64.693429 
L 567.752938 63.918935 
L 568.031938 65.09554 
L 568.310938 68.412564 
L 569.147938 84.461018 
L 569.426938 86.682799 
L 569.705938 86.437151 
L 571.100938 79.879769 
L 571.379938 79.826572 
L 571.937938 82.073386 
L 572.216938 82.065563 
L 572.495938 79.81249 
L 573.611938 62.138381 
L 573.890938 62.498247 
L 574.169938 65.266085 
L 575.843938 90.053021 
L 576.122938 91.572281 
L 576.401938 92.13555 
L 576.680938 91.627043 
L 578.075938 83.659926 
L 578.633938 77.177646 
L 579.191938 70.983258 
L 579.749938 68.157529 
L 580.586938 64.083221 
L 580.865938 63.706144 
L 581.144938 64.330433 
L 581.702938 67.659975 
L 582.539938 73.092386 
L 583.655938 76.885059 
L 583.934938 77.122883 
L 584.213938 75.857094 
L 584.771938 68.994608 
L 585.050938 65.367786 
L 585.329938 63.192944 
L 585.608938 63.236754 
L 585.887938 65.505474 
L 586.724938 75.625528 
L 587.003938 76.002605 
L 587.561938 73.190957 
L 587.840938 72.779459 
L 588.119938 73.910689 
L 588.677938 77.024312 
L 588.956938 76.595602 
L 589.235938 74.333141 
L 589.793938 68.285829 
L 590.072938 67.030992 
L 590.351938 67.351742 
L 591.188938 70.973871 
L 591.746938 74.459876 
L 592.583938 81.970121 
L 592.862938 82.991827 
L 593.141938 82.513049 
L 593.978938 77.603226 
L 594.536938 72.504083 
L 595.094938 66.392621 
L 595.373938 64.781048 
L 595.652938 64.781048 
L 595.931938 66.766569 
L 596.489938 76.331179 
L 597.047938 85.271499 
L 597.326938 86.543547 
L 597.605938 86.09919 
L 598.163938 83.508156 
L 598.721938 80.660522 
L 599.000938 80.105076 
L 599.279938 80.60263 
L 599.558938 81.671275 
L 599.837938 82.171958 
L 600.116938 80.949979 
L 600.395938 77.474926 
L 601.232938 63.505871 
L 601.511938 62.473213 
L 601.790938 64.019071 
L 602.348938 72.012788 
L 603.185938 85.981843 
L 603.743938 90.65697 
L 604.022938 91.583234 
L 604.301938 91.647384 
L 604.580938 90.766495 
L 605.696938 84.698843 
L 605.975938 82.234544 
L 606.812938 71.862583 
L 607.370938 68.468891 
L 608.207938 64.907784 
L 608.486938 64.272542 
L 608.765938 64.283494 
L 609.044938 65.106492 
L 609.602938 68.769301 
L 610.160938 72.425851 
L 610.439938 73.469462 
L 610.439938 73.469462 
" style="fill:none;stroke:#1f77b4;stroke-linecap:square;stroke-width:1.5;"/>
   </g>
   <g id="patch_3">
    <path d="M 52.160938 133.198125 
L 52.160938 22.318125 
" style="fill:none;stroke:#000000;stroke-linecap:square;stroke-linejoin:miter;stroke-width:0.8;"/>
   </g>
   <g id="patch_4">
    <path d="M 610.160938 133.198125 
L 610.160938 22.318125 
" style="fill:none;stroke:#000000;stroke-linecap:square;stroke-linejoin:miter;stroke-width:0.8;"/>
   </g>
   <g id="patch_5">
    <path d="M 52.160938 133.198125 
L 610.160938 133.198125 
" style="fill:none;stroke:#000000;stroke-linecap:square;stroke-linejoin:miter;stroke-width:0.8;"/>
   </g>
   <g id="patch_6">
    <path d="M 52.160938 22.318125 
L 610.160938 22.318125 
" style="fill:none;stroke:#000000;stroke-linecap:square;stroke-linejoin:miter;stroke-width:0.8;"/>
   </g>
   <g id="text_17">
    <!-- KarplusStrongConcertA -->
    <defs>
     <path d="M 9.8125 72.90625 
L 19.671875 72.90625 
L 19.671875 42.09375 
L 52.390625 72.90625 
L 65.09375 72.90625 
L 28.90625 38.921875 
L 67.671875 0 
L 54.6875 0 
L 19.671875 35.109375 
L 19.671875 0 
L 9.8125 0 
z
" id="DejaVuSans-75"/>
     <path d="M 18.109375 8.203125 
L 18.109375 -20.796875 
L 9.078125 -20.796875 
L 9.078125 54.6875 
L 18.109375 54.6875 
L 18.109375 46.390625 
Q 20.953125 51.265625 25.265625 53.625 
Q 29.59375 56 35.59375 56 
Q 45.5625 56 51.78125 48.09375 
Q 58.015625 40.1875 58.015625 27.296875 
Q 58.015625 14.40625 51.78125 6.484375 
Q 45.5625 -1.421875 35.59375 -1.421875 
Q 29.59375 -1.421875 25.265625 0.953125 
Q 20.953125 3.328125 18.109375 8.203125 
z
M 48.6875 27.296875 
Q 48.6875 37.203125 44.609375 42.84375 
Q 40.53125 48.484375 33.40625 48.484375 
Q 26.265625 48.484375 22.1875 42.84375 
Q 18.109375 37.203125 18.109375 27.296875 
Q 18.109375 17.390625 22.1875 11.75 
Q 26.265625 6.109375 33.40625 6.109375 
Q 40.53125 6.109375 44.609375 11.75 
Q 48.6875 17.390625 48.6875 27.296875 
z
" id="DejaVuSans-112"/>
     <path d="M 44.28125 53.078125 
L 44.28125 44.578125 
Q 40.484375 46.53125 36.375 47.5 
Q 32.28125 48.484375 27.875 48.484375 
Q 21.1875 48.484375 17.84375 46.4375 
Q 14.5 44.390625 14.5 40.28125 
Q 14.5 37.15625 16.890625 35.375 
Q 19.28125 33.59375 26.515625 31.984375 
L 29.59375 31.296875 
Q 39.15625 29.25 43.1875 25.515625 
Q 47.21875 21.78125 47.21875 15.09375 
Q 47.21875 7.46875 41.1875 3.015625 
Q 35.15625 -1.421875 24.609375 -1.421875 
Q 20.21875 -1.421875 15.453125 -0.5625 
Q 10.6875 0.296875 5.421875 2 
L 5.421875 11.28125 
Q 10.40625 8.6875 15.234375 7.390625 
Q 20.0625 6.109375 24.8125 6.109375 
Q 31.15625 6.109375 34.5625 8.28125 
Q 37.984375 10.453125 37.984375 14.40625 
Q 37.984375 18.0625 35.515625 20.015625 
Q 33.0625 21.96875 24.703125 23.78125 
L 21.578125 24.515625 
Q 13.234375 26.265625 9.515625 29.90625 
Q 5.8125 33.546875 5.8125 39.890625 
Q 5.8125 47.609375 11.28125 51.796875 
Q 16.75 56 26.8125 56 
Q 31.78125 56 36.171875 55.265625 
Q 40.578125 54.546875 44.28125 53.078125 
z
" id="DejaVuSans-115"/>
     <path d="M 53.515625 70.515625 
L 53.515625 60.890625 
Q 47.90625 63.578125 42.921875 64.890625 
Q 37.9375 66.21875 33.296875 66.21875 
Q 25.25 66.21875 20.875 63.09375 
Q 16.5 59.96875 16.5 54.203125 
Q 16.5 49.359375 19.40625 46.890625 
Q 22.3125 44.4375 30.421875 42.921875 
L 36.375 41.703125 
Q 47.40625 39.59375 52.65625 34.296875 
Q 57.90625 29 57.90625 20.125 
Q 57.90625 9.515625 50.796875 4.046875 
Q 43.703125 -1.421875 29.984375 -1.421875 
Q 24.8125 -1.421875 18.96875 -0.25 
Q 13.140625 0.921875 6.890625 3.21875 
L 6.890625 13.375 
Q 12.890625 10.015625 18.65625 8.296875 
Q 24.421875 6.59375 29.984375 6.59375 
Q 38.421875 6.59375 43.015625 9.90625 
Q 47.609375 13.234375 47.609375 19.390625 
Q 47.609375 24.75 44.3125 27.78125 
Q 41.015625 30.8125 33.5 32.328125 
L 27.484375 33.5 
Q 16.453125 35.6875 11.515625 40.375 
Q 6.59375 45.0625 6.59375 53.421875 
Q 6.59375 63.09375 13.40625 68.65625 
Q 20.21875 74.21875 32.171875 74.21875 
Q 37.3125 74.21875 42.625 73.28125 
Q 47.953125 72.359375 53.515625 70.515625 
z
" id="DejaVuSans-83"/>
     <path d="M 18.3125 70.21875 
L 18.3125 54.6875 
L 36.8125 54.6875 
L 36.8125 47.703125 
L 18.3125 47.703125 
L 18.3125 18.015625 
Q 18.3125 11.328125 20.140625 9.421875 
Q 21.96875 7.515625 27.59375 7.515625 
L 36.8125 7.515625 
L 36.8125 0 
L 27.59375 0 
Q 17.1875 0 13.234375 3.875 
Q 9.28125 7.765625 9.28125 18.015625 
L 9.28125 47.703125 
L 2.6875 47.703125 
L 2.6875 54.6875 
L 9.28125 54.6875 
L 9.28125 70.21875 
z
" id="DejaVuSans-116"/>
     <path d="M 30.609375 48.390625 
Q 23.390625 48.390625 19.1875 42.75 
Q 14.984375 37.109375 14.984375 27.296875 
Q 14.984375 17.484375 19.15625 11.84375 
Q 23.34375 6.203125 30.609375 6.203125 
Q 37.796875 6.203125 41.984375 11.859375 
Q 46.1875 17.53125 46.1875 27.296875 
Q 46.1875 37.015625 41.984375 42.703125 
Q 37.796875 48.390625 30.609375 48.390625 
z
M 30.609375 56 
Q 42.328125 56 49.015625 48.375 
Q 55.71875 40.765625 55.71875 27.296875 
Q 55.71875 13.875 49.015625 6.21875 
Q 42.328125 -1.421875 30.609375 -1.421875 
Q 18.84375 -1.421875 12.171875 6.21875 
Q 5.515625 13.875 5.515625 27.296875 
Q 5.515625 40.765625 12.171875 48.375 
Q 18.84375 56 30.609375 56 
z
" id="DejaVuSans-111"/>
     <path d="M 45.40625 27.984375 
Q 45.40625 37.75 41.375 43.109375 
Q 37.359375 48.484375 30.078125 48.484375 
Q 22.859375 48.484375 18.828125 43.109375 
Q 14.796875 37.75 14.796875 27.984375 
Q 14.796875 18.265625 18.828125 12.890625 
Q 22.859375 7.515625 30.078125 7.515625 
Q 37.359375 7.515625 41.375 12.890625 
Q 45.40625 18.265625 45.40625 27.984375 
z
M 54.390625 6.78125 
Q 54.390625 -7.171875 48.1875 -13.984375 
Q 42 -20.796875 29.203125 -20.796875 
Q 24.46875 -20.796875 20.265625 -20.09375 
Q 16.0625 -19.390625 12.109375 -17.921875 
L 12.109375 -9.1875 
Q 16.0625 -11.328125 19.921875 -12.34375 
Q 23.78125 -13.375 27.78125 -13.375 
Q 36.625 -13.375 41.015625 -8.765625 
Q 45.40625 -4.15625 45.40625 5.171875 
L 45.40625 9.625 
Q 42.625 4.78125 38.28125 2.390625 
Q 33.9375 0 27.875 0 
Q 17.828125 0 11.671875 7.65625 
Q 5.515625 15.328125 5.515625 27.984375 
Q 5.515625 40.671875 11.671875 48.328125 
Q 17.828125 56 27.875 56 
Q 33.9375 56 38.28125 53.609375 
Q 42.625 51.21875 45.40625 46.390625 
L 45.40625 54.6875 
L 54.390625 54.6875 
z
" id="DejaVuSans-103"/>
     <path d="M 64.40625 67.28125 
L 64.40625 56.890625 
Q 59.421875 61.53125 53.78125 63.8125 
Q 48.140625 66.109375 41.796875 66.109375 
Q 29.296875 66.109375 22.65625 58.46875 
Q 16.015625 50.828125 16.015625 36.375 
Q 16.015625 21.96875 22.65625 14.328125 
Q 29.296875 6.6875 41.796875 6.6875 
Q 48.140625 6.6875 53.78125 8.984375 
Q 59.421875 11.28125 64.40625 15.921875 
L 64.40625 5.609375 
Q 59.234375 2.09375 53.4375 0.328125 
Q 47.65625 -1.421875 41.21875 -1.421875 
Q 24.65625 -1.421875 15.125 8.703125 
Q 5.609375 18.84375 5.609375 36.375 
Q 5.609375 53.953125 15.125 64.078125 
Q 24.65625 74.21875 41.21875 74.21875 
Q 47.75 74.21875 53.53125 72.484375 
Q 59.328125 70.75 64.40625 67.28125 
z
" id="DejaVuSans-67"/>
     <path d="M 48.78125 52.59375 
L 48.78125 44.1875 
Q 44.96875 46.296875 41.140625 47.34375 
Q 37.3125 48.390625 33.40625 48.390625 
Q 24.65625 48.390625 19.8125 42.84375 
Q 14.984375 37.3125 14.984375 27.296875 
Q 14.984375 17.28125 19.8125 11.734375 
Q 24.65625 6.203125 33.40625 6.203125 
Q 37.3125 6.203125 41.140625 7.25 
Q 44.96875 8.296875 48.78125 10.40625 
L 48.78125 2.09375 
Q 45.015625 0.34375 40.984375 -0.53125 
Q 36.96875 -1.421875 32.421875 -1.421875 
Q 20.0625 -1.421875 12.78125 6.34375 
Q 5.515625 14.109375 5.515625 27.296875 
Q 5.515625 40.671875 12.859375 48.328125 
Q 20.21875 56 33.015625 56 
Q 37.15625 56 41.109375 55.140625 
Q 45.0625 54.296875 48.78125 52.59375 
z
" id="DejaVuSans-99"/>
    </defs>
    <g transform="translate(261.193437 16.318125)scale(0.12 -0.12)">
     <use xlink:href="#DejaVuSans-75"/>
     <use x="65.560547" xlink:href="#DejaVuSans-97"/>
     <use x="126.839844" xlink:href="#DejaVuSans-114"/>
     <use x="167.953125" xlink:href="#DejaVuSans-112"/>
     <use x="231.429688" xlink:href="#DejaVuSans-108"/>
     <use x="259.212891" xlink:href="#DejaVuSans-117"/>
     <use x="322.591797" xlink:href="#DejaVuSans-115"/>
     <use x="374.691406" xlink:href="#DejaVuSans-83"/>
     <use x="438.167969" xlink:href="#DejaVuSans-116"/>
     <use x="477.376953" xlink:href="#DejaVuSans-114"/>
     <use x="518.458984" xlink:href="#DejaVuSans-111"/>
     <use x="579.640625" xlink:href="#DejaVuSans-110"/>
     <use x="643.019531" xlink:href="#DejaVuSans-103"/>
     <use x="706.496094" xlink:href="#DejaVuSans-67"/>
     <use x="776.320312" xlink:href="#DejaVuSans-111"/>
     <use x="837.501953" xlink:href="#DejaVuSans-110"/>
     <use x="900.880859" xlink:href="#DejaVuSans-99"/>
     <use x="955.861328" xlink:href="#DejaVuSans-101"/>
     <use x="1017.384766" xlink:href="#DejaVuSans-114"/>
     <use x="1058.498047" xlink:href="#DejaVuSans-116"/>
     <use x="1097.707031" xlink:href="#DejaVuSans-65"/>
    </g>
   </g>
  </g>
 </g>
 <defs>
  <clipPath id="p5c4325c002">
   <rect height="110.88" width="558" x="52.160938" y="22.318125"/>
  </clipPath>
 </defs>
</svg>
