<?xml version="1.0" encoding="utf-8" standalone="no"?>
<!DOCTYPE svg PUBLIC "-//W3C//DTD SVG 1.1//EN"
  "http://www.w3.org/Graphics/SVG/1.1/DTD/svg11.dtd">
<!-- Created with matplotlib (https://matplotlib.org/) -->
<svg height="170.754375pt" version="1.1" viewBox="0 0 630.085938 170.754375" width="630.085938pt" xmlns="http://www.w3.org/2000/svg" xmlns:xlink="http://www.w3.org/1999/xlink">
 <defs>
  <style type="text/css">
*{stroke-linecap:butt;stroke-linejoin:round;}
  </style>
 </defs>
 <g id="figure_1">
  <g id="patch_1">
   <path d="M 0 170.754375 
L 630.085938 170.754375 
L 630.085938 0 
L 0 0 
z
" style="fill:#ffffff;"/>
  </g>
  <g id="axes_1">
   <g id="patch_2">
    <path d="M 52.160938 133.198125 
L 610.160938 133.198125 
L 610.160938 22.318125 
L 52.160938 22.318125 
z
" style="fill:#ffffff;"/>
   </g>
   <g id="matplotlib.axis_1">
    <g id="xtick_1">
     <g id="line2d_1">
      <defs>
       <path d="M 0 0 
L 0 3.5 
" id="m3bcc5ac32e" style="stroke:#000000;stroke-width:0.8;"/>
      </defs>
      <g>
       <use style="stroke:#000000;stroke-width:0.8;" x="52.160938" xlink:href="#m3bcc5ac32e" y="133.198125"/>
      </g>
     </g>
     <g id="text_1">
      <!-- 0 -->
      <defs>
       <path d="M 31.78125 66.40625 
Q 24.171875 66.40625 20.328125 58.90625 
Q 16.5 51.421875 16.5 36.375 
Q 16.5 21.390625 20.328125 13.890625 
Q 24.171875 6.390625 31.78125 6.390625 
Q 39.453125 6.390625 43.28125 13.890625 
Q 47.125 21.390625 47.125 36.375 
Q 47.125 51.421875 43.28125 58.90625 
Q 39.453125 66.40625 31.78125 66.40625 
z
M 31.78125 74.21875 
Q 44.046875 74.21875 50.515625 64.515625 
Q 56.984375 54.828125 56.984375 36.375 
Q 56.984375 17.96875 50.515625 8.265625 
Q 44.046875 -1.421875 31.78125 -1.421875 
Q 19.53125 -1.421875 13.0625 8.265625 
Q 6.59375 17.96875 6.59375 36.375 
Q 6.59375 54.828125 13.0625 64.515625 
Q 19.53125 74.21875 31.78125 74.21875 
z
" id="DejaVuSans-48"/>
      </defs>
      <g transform="translate(48.979688 147.796563)scale(0.1 -0.1)">
       <use xlink:href="#DejaVuSans-48"/>
      </g>
     </g>
    </g>
    <g id="xtick_2">
     <g id="line2d_2">
      <g>
       <use style="stroke:#000000;stroke-width:0.8;" x="121.910938" xlink:href="#m3bcc5ac32e" y="133.198125"/>
      </g>
     </g>
     <g id="text_2">
      <!-- 250 -->
      <defs>
       <path d="M 19.1875 8.296875 
L 53.609375 8.296875 
L 53.609375 0 
L 7.328125 0 
L 7.328125 8.296875 
Q 12.9375 14.109375 22.625 23.890625 
Q 32.328125 33.6875 34.8125 36.53125 
Q 39.546875 41.84375 41.421875 45.53125 
Q 43.3125 49.21875 43.3125 52.78125 
Q 43.3125 58.59375 39.234375 62.25 
Q 35.15625 65.921875 28.609375 65.921875 
Q 23.96875 65.921875 18.8125 64.3125 
Q 13.671875 62.703125 7.8125 59.421875 
L 7.8125 69.390625 
Q 13.765625 71.78125 18.9375 73 
Q 24.125 74.21875 28.421875 74.21875 
Q 39.75 74.21875 46.484375 68.546875 
Q 53.21875 62.890625 53.21875 53.421875 
Q 53.21875 48.921875 51.53125 44.890625 
Q 49.859375 40.875 45.40625 35.40625 
Q 44.1875 33.984375 37.640625 27.21875 
Q 31.109375 20.453125 19.1875 8.296875 
z
" id="DejaVuSans-50"/>
       <path d="M 10.796875 72.90625 
L 49.515625 72.90625 
L 49.515625 64.59375 
L 19.828125 64.59375 
L 19.828125 46.734375 
Q 21.96875 47.46875 24.109375 47.828125 
Q 26.265625 48.1875 28.421875 48.1875 
Q 40.625 48.1875 47.75 41.5 
Q 54.890625 34.8125 54.890625 23.390625 
Q 54.890625 11.625 47.5625 5.09375 
Q 40.234375 -1.421875 26.90625 -1.421875 
Q 22.3125 -1.421875 17.546875 -0.640625 
Q 12.796875 0.140625 7.71875 1.703125 
L 7.71875 11.625 
Q 12.109375 9.234375 16.796875 8.0625 
Q 21.484375 6.890625 26.703125 6.890625 
Q 35.15625 6.890625 40.078125 11.328125 
Q 45.015625 15.765625 45.015625 23.390625 
Q 45.015625 31 40.078125 35.4375 
Q 35.15625 39.890625 26.703125 39.890625 
Q 22.75 39.890625 18.8125 39.015625 
Q 14.890625 38.140625 10.796875 36.28125 
z
" id="DejaVuSans-53"/>
      </defs>
      <g transform="translate(112.367188 147.796563)scale(0.1 -0.1)">
       <use xlink:href="#DejaVuSans-50"/>
       <use x="63.623047" xlink:href="#DejaVuSans-53"/>
       <use x="127.246094" xlink:href="#DejaVuSans-48"/>
      </g>
     </g>
    </g>
    <g id="xtick_3">
     <g id="line2d_3">
      <g>
       <use style="stroke:#000000;stroke-width:0.8;" x="191.660938" xlink:href="#m3bcc5ac32e" y="133.198125"/>
      </g>
     </g>
     <g id="text_3">
      <!-- 500 -->
      <g transform="translate(182.117188 147.796563)scale(0.1 -0.1)">
       <use xlink:href="#DejaVuSans-53"/>
       <use x="63.623047" xlink:href="#DejaVuSans-48"/>
       <use x="127.246094" xlink:href="#DejaVuSans-48"/>
      </g>
     </g>
    </g>
    <g id="xtick_4">
     <g id="line2d_4">
      <g>
       <use style="stroke:#000000;stroke-width:0.8;" x="261.410938" xlink:href="#m3bcc5ac32e" y="133.198125"/>
      </g>
     </g>
     <g id="text_4">
      <!-- 750 -->
      <defs>
       <path d="M 8.203125 72.90625 
L 55.078125 72.90625 
L 55.078125 68.703125 
L 28.609375 0 
L 18.3125 0 
L 43.21875 64.59375 
L 8.203125 64.59375 
z
" id="DejaVuSans-55"/>
      </defs>
      <g transform="translate(251.867188 147.796563)scale(0.1 -0.1)">
       <use xlink:href="#DejaVuSans-55"/>
       <use x="63.623047" xlink:href="#DejaVuSans-53"/>
       <use x="127.246094" xlink:href="#DejaVuSans-48"/>
      </g>
     </g>
    </g>
    <g id="xtick_5">
     <g id="line2d_5">
      <g>
       <use style="stroke:#000000;stroke-width:0.8;" x="331.160937" xlink:href="#m3bcc5ac32e" y="133.198125"/>
      </g>
     </g>
     <g id="text_5">
      <!-- 1000 -->
      <defs>
       <path d="M 12.40625 8.296875 
L 28.515625 8.296875 
L 28.515625 63.921875 
L 10.984375 60.40625 
L 10.984375 69.390625 
L 28.421875 72.90625 
L 38.28125 72.90625 
L 38.28125 8.296875 
L 54.390625 8.296875 
L 54.390625 0 
L 12.40625 0 
z
" id="DejaVuSans-49"/>
      </defs>
      <g transform="translate(318.435937 147.796563)scale(0.1 -0.1)">
       <use xlink:href="#DejaVuSans-49"/>
       <use x="63.623047" xlink:href="#DejaVuSans-48"/>
       <use x="127.246094" xlink:href="#DejaVuSans-48"/>
       <use x="190.869141" xlink:href="#DejaVuSans-48"/>
      </g>
     </g>
    </g>
    <g id="xtick_6">
     <g id="line2d_6">
      <g>
       <use style="stroke:#000000;stroke-width:0.8;" x="400.910938" xlink:href="#m3bcc5ac32e" y="133.198125"/>
      </g>
     </g>
     <g id="text_6">
      <!-- 1250 -->
      <g transform="translate(388.185938 147.796563)scale(0.1 -0.1)">
       <use xlink:href="#DejaVuSans-49"/>
       <use x="63.623047" xlink:href="#DejaVuSans-50"/>
       <use x="127.246094" xlink:href="#DejaVuSans-53"/>
       <use x="190.869141" xlink:href="#DejaVuSans-48"/>
      </g>
     </g>
    </g>
    <g id="xtick_7">
     <g id="line2d_7">
      <g>
       <use style="stroke:#000000;stroke-width:0.8;" x="470.660938" xlink:href="#m3bcc5ac32e" y="133.198125"/>
      </g>
     </g>
     <g id="text_7">
      <!-- 1500 -->
      <g transform="translate(457.935938 147.796563)scale(0.1 -0.1)">
       <use xlink:href="#DejaVuSans-49"/>
       <use x="63.623047" xlink:href="#DejaVuSans-53"/>
       <use x="127.246094" xlink:href="#DejaVuSans-48"/>
       <use x="190.869141" xlink:href="#DejaVuSans-48"/>
      </g>
     </g>
    </g>
    <g id="xtick_8">
     <g id="line2d_8">
      <g>
       <use style="stroke:#000000;stroke-width:0.8;" x="540.410938" xlink:href="#m3bcc5ac32e" y="133.198125"/>
      </g>
     </g>
     <g id="text_8">
      <!-- 1750 -->
      <g transform="translate(527.685938 147.796563)scale(0.1 -0.1)">
       <use xlink:href="#DejaVuSans-49"/>
       <use x="63.623047" xlink:href="#DejaVuSans-55"/>
       <use x="127.246094" xlink:href="#DejaVuSans-53"/>
       <use x="190.869141" xlink:href="#DejaVuSans-48"/>
      </g>
     </g>
    </g>
    <g id="xtick_9">
     <g id="line2d_9">
      <g>
       <use style="stroke:#000000;stroke-width:0.8;" x="610.160938" xlink:href="#m3bcc5ac32e" y="133.198125"/>
      </g>
     </g>
     <g id="text_9">
      <!-- 2000 -->
      <g transform="translate(597.435938 147.796563)scale(0.1 -0.1)">
       <use xlink:href="#DejaVuSans-50"/>
       <use x="63.623047" xlink:href="#DejaVuSans-48"/>
       <use x="127.246094" xlink:href="#DejaVuSans-48"/>
       <use x="190.869141" xlink:href="#DejaVuSans-48"/>
      </g>
     </g>
    </g>
    <g id="text_10">
     <!-- Array Index -->
     <defs>
      <path d="M 34.1875 63.1875 
L 20.796875 26.90625 
L 47.609375 26.90625 
z
M 28.609375 72.90625 
L 39.796875 72.90625 
L 67.578125 0 
L 57.328125 0 
L 50.6875 18.703125 
L 17.828125 18.703125 
L 11.1875 0 
L 0.78125 0 
z
" id="DejaVuSans-65"/>
      <path d="M 41.109375 46.296875 
Q 39.59375 47.171875 37.8125 47.578125 
Q 36.03125 48 33.890625 48 
Q 26.265625 48 22.1875 43.046875 
Q 18.109375 38.09375 18.109375 28.8125 
L 18.109375 0 
L 9.078125 0 
L 9.078125 54.6875 
L 18.109375 54.6875 
L 18.109375 46.1875 
Q 20.953125 51.171875 25.484375 53.578125 
Q 30.03125 56 36.53125 56 
Q 37.453125 56 38.578125 55.875 
Q 39.703125 55.765625 41.0625 55.515625 
z
" id="DejaVuSans-114"/>
      <path d="M 34.28125 27.484375 
Q 23.390625 27.484375 19.1875 25 
Q 14.984375 22.515625 14.984375 16.5 
Q 14.984375 11.71875 18.140625 8.90625 
Q 21.296875 6.109375 26.703125 6.109375 
Q 34.1875 6.109375 38.703125 11.40625 
Q 43.21875 16.703125 43.21875 25.484375 
L 43.21875 27.484375 
z
M 52.203125 31.203125 
L 52.203125 0 
L 43.21875 0 
L 43.21875 8.296875 
Q 40.140625 3.328125 35.546875 0.953125 
Q 30.953125 -1.421875 24.3125 -1.421875 
Q 15.921875 -1.421875 10.953125 3.296875 
Q 6 8.015625 6 15.921875 
Q 6 25.140625 12.171875 29.828125 
Q 18.359375 34.515625 30.609375 34.515625 
L 43.21875 34.515625 
L 43.21875 35.40625 
Q 43.21875 41.609375 39.140625 45 
Q 35.0625 48.390625 27.6875 48.390625 
Q 23 48.390625 18.546875 47.265625 
Q 14.109375 46.140625 10.015625 43.890625 
L 10.015625 52.203125 
Q 14.9375 54.109375 19.578125 55.046875 
Q 24.21875 56 28.609375 56 
Q 40.484375 56 46.34375 49.84375 
Q 52.203125 43.703125 52.203125 31.203125 
z
" id="DejaVuSans-97"/>
      <path d="M 32.171875 -5.078125 
Q 28.375 -14.84375 24.75 -17.8125 
Q 21.140625 -20.796875 15.09375 -20.796875 
L 7.90625 -20.796875 
L 7.90625 -13.28125 
L 13.1875 -13.28125 
Q 16.890625 -13.28125 18.9375 -11.515625 
Q 21 -9.765625 23.484375 -3.21875 
L 25.09375 0.875 
L 2.984375 54.6875 
L 12.5 54.6875 
L 29.59375 11.921875 
L 46.6875 54.6875 
L 56.203125 54.6875 
z
" id="DejaVuSans-121"/>
      <path id="DejaVuSans-32"/>
      <path d="M 9.8125 72.90625 
L 19.671875 72.90625 
L 19.671875 0 
L 9.8125 0 
z
" id="DejaVuSans-73"/>
      <path d="M 54.890625 33.015625 
L 54.890625 0 
L 45.90625 0 
L 45.90625 32.71875 
Q 45.90625 40.484375 42.875 44.328125 
Q 39.84375 48.1875 33.796875 48.1875 
Q 26.515625 48.1875 22.3125 43.546875 
Q 18.109375 38.921875 18.109375 30.90625 
L 18.109375 0 
L 9.078125 0 
L 9.078125 54.6875 
L 18.109375 54.6875 
L 18.109375 46.1875 
Q 21.34375 51.125 25.703125 53.5625 
Q 30.078125 56 35.796875 56 
Q 45.21875 56 50.046875 50.171875 
Q 54.890625 44.34375 54.890625 33.015625 
z
" id="DejaVuSans-110"/>
      <path d="M 45.40625 46.390625 
L 45.40625 75.984375 
L 54.390625 75.984375 
L 54.390625 0 
L 45.40625 0 
L 45.40625 8.203125 
Q 42.578125 3.328125 38.25 0.953125 
Q 33.9375 -1.421875 27.875 -1.421875 
Q 17.96875 -1.421875 11.734375 6.484375 
Q 5.515625 14.40625 5.515625 27.296875 
Q 5.515625 40.1875 11.734375 48.09375 
Q 17.96875 56 27.875 56 
Q 33.9375 56 38.25 53.625 
Q 42.578125 51.265625 45.40625 46.390625 
z
M 14.796875 27.296875 
Q 14.796875 17.390625 18.875 11.75 
Q 22.953125 6.109375 30.078125 6.109375 
Q 37.203125 6.109375 41.296875 11.75 
Q 45.40625 17.390625 45.40625 27.296875 
Q 45.40625 37.203125 41.296875 42.84375 
Q 37.203125 48.484375 30.078125 48.484375 
Q 22.953125 48.484375 18.875 42.84375 
Q 14.796875 37.203125 14.796875 27.296875 
z
" id="DejaVuSans-100"/>
      <path d="M 56.203125 29.59375 
L 56.203125 25.203125 
L 14.890625 25.203125 
Q 15.484375 15.921875 20.484375 11.0625 
Q 25.484375 6.203125 34.421875 6.203125 
Q 39.59375 6.203125 44.453125 7.46875 
Q 49.3125 8.734375 54.109375 11.28125 
L 54.109375 2.78125 
Q 49.265625 0.734375 44.1875 -0.34375 
Q 39.109375 -1.421875 33.890625 -1.421875 
Q 20.796875 -1.421875 13.15625 6.1875 
Q 5.515625 13.8125 5.515625 26.8125 
Q 5.515625 40.234375 12.765625 48.109375 
Q 20.015625 56 32.328125 56 
Q 43.359375 56 49.78125 48.890625 
Q 56.203125 41.796875 56.203125 29.59375 
z
M 47.21875 32.234375 
Q 47.125 39.59375 43.09375 43.984375 
Q 39.0625 48.390625 32.421875 48.390625 
Q 24.90625 48.390625 20.390625 44.140625 
Q 15.875 39.890625 15.1875 32.171875 
z
" id="DejaVuSans-101"/>
      <path d="M 54.890625 54.6875 
L 35.109375 28.078125 
L 55.90625 0 
L 45.3125 0 
L 29.390625 21.484375 
L 13.484375 0 
L 2.875 0 
L 24.125 28.609375 
L 4.6875 54.6875 
L 15.28125 54.6875 
L 29.78125 35.203125 
L 44.28125 54.6875 
z
" id="DejaVuSans-120"/>
     </defs>
     <g transform="translate(302.164844 161.474688)scale(0.1 -0.1)">
      <use xlink:href="#DejaVuSans-65"/>
      <use x="68.408203" xlink:href="#DejaVuSans-114"/>
      <use x="109.505859" xlink:href="#DejaVuSans-114"/>
      <use x="150.619141" xlink:href="#DejaVuSans-97"/>
      <use x="211.898438" xlink:href="#DejaVuSans-121"/>
      <use x="271.078125" xlink:href="#DejaVuSans-32"/>
      <use x="302.865234" xlink:href="#DejaVuSans-73"/>
      <use x="332.357422" xlink:href="#DejaVuSans-110"/>
      <use x="395.736328" xlink:href="#DejaVuSans-100"/>
      <use x="459.212891" xlink:href="#DejaVuSans-101"/>
      <use x="520.720703" xlink:href="#DejaVuSans-120"/>
     </g>
    </g>
   </g>
   <g id="matplotlib.axis_2">
    <g id="ytick_1">
     <g id="line2d_10">
      <defs>
       <path d="M 0 0 
L -3.5 0 
" id="m49bcc1d3f4" style="stroke:#000000;stroke-width:0.8;"/>
      </defs>
      <g>
       <use style="stroke:#000000;stroke-width:0.8;" x="52.160938" xlink:href="#m49bcc1d3f4" y="128.161201"/>
      </g>
     </g>
     <g id="text_11">
      <!-- −1.0 -->
      <defs>
       <path d="M 10.59375 35.5 
L 73.1875 35.5 
L 73.1875 27.203125 
L 10.59375 27.203125 
z
" id="DejaVuSans-8722"/>
       <path d="M 10.6875 12.40625 
L 21 12.40625 
L 21 0 
L 10.6875 0 
z
" id="DejaVuSans-46"/>
      </defs>
      <g transform="translate(20.878125 131.96042)scale(0.1 -0.1)">
       <use xlink:href="#DejaVuSans-8722"/>
       <use x="83.789062" xlink:href="#DejaVuSans-49"/>
       <use x="147.412109" xlink:href="#DejaVuSans-46"/>
       <use x="179.199219" xlink:href="#DejaVuSans-48"/>
      </g>
     </g>
    </g>
    <g id="ytick_2">
     <g id="line2d_11">
      <g>
       <use style="stroke:#000000;stroke-width:0.8;" x="52.160938" xlink:href="#m49bcc1d3f4" y="102.960048"/>
      </g>
     </g>
     <g id="text_12">
      <!-- −0.5 -->
      <g transform="translate(20.878125 106.759266)scale(0.1 -0.1)">
       <use xlink:href="#DejaVuSans-8722"/>
       <use x="83.789062" xlink:href="#DejaVuSans-48"/>
       <use x="147.412109" xlink:href="#DejaVuSans-46"/>
       <use x="179.199219" xlink:href="#DejaVuSans-53"/>
      </g>
     </g>
    </g>
    <g id="ytick_3">
     <g id="line2d_12">
      <g>
       <use style="stroke:#000000;stroke-width:0.8;" x="52.160938" xlink:href="#m49bcc1d3f4" y="77.758894"/>
      </g>
     </g>
     <g id="text_13">
      <!-- 0.0 -->
      <g transform="translate(29.257813 81.558113)scale(0.1 -0.1)">
       <use xlink:href="#DejaVuSans-48"/>
       <use x="63.623047" xlink:href="#DejaVuSans-46"/>
       <use x="95.410156" xlink:href="#DejaVuSans-48"/>
      </g>
     </g>
    </g>
    <g id="ytick_4">
     <g id="line2d_13">
      <g>
       <use style="stroke:#000000;stroke-width:0.8;" x="52.160938" xlink:href="#m49bcc1d3f4" y="52.55774"/>
      </g>
     </g>
     <g id="text_14">
      <!-- 0.5 -->
      <g transform="translate(29.257813 56.356959)scale(0.1 -0.1)">
       <use xlink:href="#DejaVuSans-48"/>
       <use x="63.623047" xlink:href="#DejaVuSans-46"/>
       <use x="95.410156" xlink:href="#DejaVuSans-53"/>
      </g>
     </g>
    </g>
    <g id="ytick_5">
     <g id="line2d_14">
      <g>
       <use style="stroke:#000000;stroke-width:0.8;" x="52.160938" xlink:href="#m49bcc1d3f4" y="27.356587"/>
      </g>
     </g>
     <g id="text_15">
      <!-- 1.0 -->
      <g transform="translate(29.257813 31.155806)scale(0.1 -0.1)">
       <use xlink:href="#DejaVuSans-49"/>
       <use x="63.623047" xlink:href="#DejaVuSans-46"/>
       <use x="95.410156" xlink:href="#DejaVuSans-48"/>
      </g>
     </g>
    </g>
    <g id="text_16">
     <!-- Value -->
     <defs>
      <path d="M 28.609375 0 
L 0.78125 72.90625 
L 11.078125 72.90625 
L 34.1875 11.53125 
L 57.328125 72.90625 
L 67.578125 72.90625 
L 39.796875 0 
z
" id="DejaVuSans-86"/>
      <path d="M 9.421875 75.984375 
L 18.40625 75.984375 
L 18.40625 0 
L 9.421875 0 
z
" id="DejaVuSans-108"/>
      <path d="M 8.5 21.578125 
L 8.5 54.6875 
L 17.484375 54.6875 
L 17.484375 21.921875 
Q 17.484375 14.15625 20.5 10.265625 
Q 23.53125 6.390625 29.59375 6.390625 
Q 36.859375 6.390625 41.078125 11.03125 
Q 45.3125 15.671875 45.3125 23.6875 
L 45.3125 54.6875 
L 54.296875 54.6875 
L 54.296875 0 
L 45.3125 0 
L 45.3125 8.40625 
Q 42.046875 3.421875 37.71875 1 
Q 33.40625 -1.421875 27.6875 -1.421875 
Q 18.265625 -1.421875 13.375 4.4375 
Q 8.5 10.296875 8.5 21.578125 
z
M 31.109375 56 
z
" id="DejaVuSans-117"/>
     </defs>
     <g transform="translate(14.798438 91.871406)rotate(-90)scale(0.1 -0.1)">
      <use xlink:href="#DejaVuSans-86"/>
      <use x="68.298828" xlink:href="#DejaVuSans-97"/>
      <use x="129.578125" xlink:href="#DejaVuSans-108"/>
      <use x="157.361328" xlink:href="#DejaVuSans-117"/>
      <use x="220.740234" xlink:href="#DejaVuSans-101"/>
     </g>
    </g>
   </g>
   <g id="line2d_15">
    <path clip-path="url(#pcfddbe8477)" d="M 52.160938 128.136591 
L 52.439938 81.012095 
L 52.718938 63.221778 
L 52.997938 28.322549 
L 53.555938 119.915145 
L 54.113938 45.691411 
L 54.392938 86.324887 
L 54.671938 74.677967 
L 54.950938 86.624827 
L 55.229938 117.114162 
L 55.508938 115.742127 
L 55.787938 30.169875 
L 56.066938 114.606968 
L 56.345938 125.566332 
L 56.624938 123.152964 
L 56.903938 46.777349 
L 57.182938 116.95727 
L 57.461938 28.78092 
L 57.740938 127.718212 
L 58.298938 33.549204 
L 58.577938 101.986395 
L 58.856938 104.462826 
L 59.135938 101.540329 
L 59.693938 39.080415 
L 59.972938 54.572725 
L 60.251938 44.656231 
L 60.530938 121.870142 
L 60.809938 83.903829 
L 61.088938 101.461883 
L 61.367938 106.880808 
L 61.646938 31.823393 
L 61.925938 87.658468 
L 62.204938 47.181884 
L 62.483938 67.847015 
L 62.762938 106.068662 
L 63.041938 91.526932 
L 63.320938 69.981976 
L 63.599938 31.654196 
L 63.878938 37.971404 
L 64.157938 87.320074 
L 64.436938 73.501277 
L 64.715938 113.616395 
L 64.994938 65.504402 
L 65.273938 97.167351 
L 65.552938 33.667642 
L 65.831938 69.763557 
L 66.110938 30.563643 
L 66.389938 120.427351 
L 66.668938 92.319082 
L 66.947938 31.077387 
L 67.226938 96.82588 
L 67.505938 79.826176 
L 67.784938 120.232005 
L 68.063938 48.273975 
L 68.342938 78.852523 
L 68.621938 38.545136 
L 68.900938 85.368154 
L 69.179938 64.821461 
L 69.458938 111.146116 
L 69.737938 50.633507 
L 70.295938 111.582952 
L 70.574938 57.78901 
L 70.853938 73.027525 
L 71.132938 115.940549 
L 71.411938 112.670429 
L 71.690938 102.130981 
L 71.969938 81.76733 
L 72.248938 84.912859 
L 72.527938 112.350492 
L 72.806938 100.460544 
L 73.085938 107.772939 
L 73.364938 52.92536 
L 73.643938 37.605323 
L 73.922938 89.298143 
L 74.201938 44.000977 
L 74.480938 127.425963 
L 74.759938 54.02668 
L 75.038938 53.772884 
L 75.317938 78.694093 
L 75.596938 86.02187 
L 75.875938 89.996466 
L 76.154938 125.086427 
L 76.433938 43.104232 
L 76.712938 87.523111 
L 76.991938 74.134998 
L 77.270938 77.400504 
L 77.549938 108.749668 
L 77.828938 108.623539 
L 78.107938 67.913155 
L 78.386938 124.386566 
L 78.665938 101.008127 
L 78.944938 96.776659 
L 79.223938 45.076148 
L 79.502938 65.630531 
L 79.781938 71.001773 
L 80.060938 51.737903 
L 80.339938 51.744056 
L 80.618938 56.326224 
L 80.897938 122.40542 
L 81.176938 32.866263 
L 81.734938 82.561018 
L 82.013938 61.429826 
L 82.292938 102.266339 
L 82.571938 80.862894 
L 82.850938 105.776412 
L 83.129938 53.472943 
L 83.408938 59.679404 
L 83.687938 72.281519 
L 83.966938 44.651617 
L 84.245938 113.142643 
L 84.524938 116.955732 
L 84.803938 46.139014 
L 85.361938 114.203971 
L 85.640938 47.06037 
L 85.919938 31.946445 
L 86.198938 85.065137 
L 86.477938 79.270902 
L 86.756938 38.16675 
L 87.035938 38.871225 
L 87.314938 67.205603 
L 87.593938 53.389883 
L 87.872938 117.446404 
L 88.151938 72.578383 
L 88.430938 85.851135 
L 88.709938 82.651769 
L 88.988938 68.422285 
L 89.267938 61.131424 
L 89.546938 73.811985 
L 89.825938 79.809256 
L 90.104938 106.01175 
L 90.383938 113.880958 
L 90.662938 64.381548 
L 90.941938 90.756315 
L 91.220938 40.970809 
L 91.499938 94.084886 
L 91.778938 113.757905 
L 92.057938 49.827513 
L 92.336938 30.352915 
L 92.615938 84.246838 
L 92.894938 51.271842 
L 93.173938 72.346122 
L 93.452938 120.241234 
L 93.731938 84.491404 
L 94.010938 79.004801 
L 94.289938 119.33526 
L 94.847938 103.02465 
L 95.126938 87.835356 
L 95.405938 50.361253 
L 95.684938 102.160206 
L 95.963938 89.948783 
L 96.242938 47.643331 
L 96.521938 95.484608 
L 96.800938 79.550846 
L 97.079938 88.176827 
L 97.358938 38.678956 
L 97.637938 45.895985 
L 97.916938 103.410728 
L 98.195938 92.659015 
L 98.474938 127.742823 
L 98.753938 40.936969 
L 99.032938 68.230015 
L 99.311938 50.518145 
L 99.590938 99.493043 
L 99.869938 84.549854 
L 100.148938 60.845327 
L 100.427938 75.119418 
L 100.706938 53.566771 
L 100.985938 122.054721 
L 101.264938 84.231456 
L 101.543938 92.8882 
L 101.822938 32.441732 
L 102.101938 108.84811 
L 102.380938 74.061166 
L 102.659938 119.496767 
L 102.938938 31.577288 
L 103.217938 86.537152 
L 103.496938 91.345429 
L 103.775938 115.48064 
L 104.054938 75.628548 
L 104.333938 119.190673 
L 104.612938 70.835652 
L 104.891938 65.682829 
L 105.170938 74.841011 
L 105.449938 41.232295 
L 105.728938 51.711754 
L 106.007938 110.464713 
L 106.286938 97.390384 
L 106.565938 34.239837 
L 106.844938 72.359965 
L 107.123938 52.197812 
L 107.402938 79.261673 
L 107.681938 42.712002 
L 107.960938 124.045095 
L 108.239938 89.515023 
L 108.518938 93.166606 
L 108.797938 46.806574 
L 109.076938 92.39599 
L 109.355938 114.136292 
L 109.634938 47.526431 
L 109.913938 120.968782 
L 110.471938 73.825828 
L 110.750938 57.246041 
L 111.029938 109.303404 
L 111.308938 90.508672 
L 111.587938 111.91827 
L 111.866938 42.922729 
L 112.145938 113.673307 
L 112.424938 90.459451 
L 112.703938 46.952699 
L 112.982938 59.122592 
L 113.261938 80.881351 
L 113.540938 71.873908 
L 113.819938 29.863782 
L 114.098938 34.918163 
L 114.377938 74.510308 
L 114.656938 47.471057 
L 114.935938 48.140155 
L 115.214938 119.249123 
L 115.493938 127.927402 
L 115.772938 98.616294 
L 116.051938 53.528317 
L 116.330938 75.483961 
L 116.609938 78.627952 
L 116.888938 48.715426 
L 117.446938 58.604233 
L 117.725938 37.150028 
L 118.004938 53.209919 
L 118.283938 111.99364 
L 118.562938 111.235329 
L 118.841938 37.522262 
L 119.120938 106.697768 
L 119.399938 81.152067 
L 119.678938 76.159211 
L 119.957938 107.423777 
L 120.515938 58.119714 
L 120.794938 122.406958 
L 121.073938 110.41703 
L 121.352938 85.969573 
L 121.631938 98.931616 
L 121.910938 61.405216 
L 122.189938 112.372026 
L 122.468938 70.146558 
L 122.747938 122.517706 
L 123.026938 44.868497 
L 123.305938 56.415437 
L 123.584938 119.309112 
L 123.863938 45.24996 
L 124.142938 59.236415 
L 124.421938 58.271991 
L 124.700938 112.675043 
L 124.979938 42.212101 
L 125.258938 115.868256 
L 125.537938 80.141498 
L 125.816938 107.551444 
L 126.095938 83.331635 
L 126.374938 45.574511 
L 126.653938 86.084934 
L 126.932938 71.092524 
L 127.211938 78.21265 
L 127.490938 41.246139 
L 127.769938 53.497554 
L 128.327938 126.466153 
L 128.606938 70.201932 
L 128.885938 66.924121 
L 129.164938 84.372966 
L 129.443938 54.928039 
L 130.001938 119.859771 
L 130.559938 40.258642 
L 131.117938 120.645769 
L 131.396938 27.885713 
L 131.675938 89.25046 
L 131.954938 75.637776 
L 132.233938 117.778646 
L 132.512938 125.037206 
L 133.349938 36.424019 
L 133.628938 31.238893 
L 133.907938 99.860663 
L 134.186938 97.41038 
L 134.465938 74.473392 
L 134.744938 34.812031 
L 135.023938 111.032292 
L 135.302938 43.842547 
L 135.581938 85.038988 
L 135.860938 77.238997 
L 136.139938 101.346522 
L 137.255938 32.673993 
L 137.534938 74.056552 
L 137.813938 42.470511 
L 138.092938 110.063254 
L 138.371938 36.905461 
L 138.650938 84.877482 
L 138.929938 110.89232 
L 139.208938 98.11947 
L 139.487938 37.476117 
L 139.766938 50.035164 
L 140.045938 73.784298 
L 140.324938 39.638765 
L 140.603938 95.846075 
L 140.882938 53.995917 
L 141.161938 117.637136 
L 141.719938 35.153501 
L 141.998938 90.517901 
L 142.277938 44.902336 
L 142.556938 112.684272 
L 142.835938 118.407752 
L 143.114938 36.225596 
L 143.393938 115.591388 
L 143.672938 104.230565 
L 143.951938 31.489613 
L 144.230938 63.00336 
L 144.509938 54.411219 
L 144.788938 79.780032 
L 145.067938 92.545191 
L 145.346938 67.30866 
L 145.625938 75.902339 
L 145.904938 46.921936 
L 146.183938 69.032933 
L 146.462938 73.210566 
L 146.741938 113.82097 
L 147.020938 98.640905 
L 147.299938 93.228132 
L 147.578938 74.390332 
L 147.857938 47.814066 
L 148.136938 41.538388 
L 148.415938 48.723117 
L 148.694938 119.632124 
L 148.973938 105.214985 
L 149.252938 38.820466 
L 149.531938 106.423976 
L 149.810938 40.038686 
L 150.089938 84.548316 
L 150.368938 43.790249 
L 150.647938 114.10399 
L 150.926938 120.77036 
L 151.205938 111.939804 
L 151.763938 53.975921 
L 152.042938 62.32811 
L 152.321938 89.216621 
L 152.879938 36.799329 
L 153.158938 86.311043 
L 153.437938 84.013038 
L 153.716938 109.758699 
L 153.995938 108.735825 
L 154.274938 120.015125 
L 154.553938 92.269861 
L 154.832938 35.81337 
L 155.111938 48.946149 
L 155.390938 77.482026 
L 155.948938 103.032341 
L 156.227938 53.735968 
L 156.506938 32.246386 
L 156.785938 35.521121 
L 157.064938 111.130734 
L 157.343938 99.668393 
L 157.622938 80.57372 
L 157.901938 88.750559 
L 158.180938 83.874604 
L 158.459938 42.804291 
L 158.738938 77.059033 
L 159.017938 27.87956 
L 159.296938 74.428786 
L 159.575938 31.637276 
L 159.854938 94.121801 
L 160.133938 56.627702 
L 160.412938 119.950523 
L 160.691938 54.754228 
L 160.970938 86.809406 
L 161.249938 97.421147 
L 161.528938 124.397333 
L 161.807938 124.485008 
L 162.086938 100.122149 
L 162.365938 46.720437 
L 162.644938 41.06156 
L 162.923938 45.780624 
L 163.202938 55.298735 
L 163.481938 52.119366 
L 163.760938 43.0304 
L 164.039938 116.20665 
L 164.318938 68.557643 
L 164.597938 114.494682 
L 164.876938 124.423481 
L 165.155938 57.829002 
L 165.434938 125.107961 
L 165.713938 36.300966 
L 165.992938 78.07114 
L 166.271938 30.220634 
L 166.550938 119.229127 
L 166.829938 95.636885 
L 167.108938 115.232997 
L 167.387938 120.293532 
L 167.666938 117.028026 
L 167.945938 127.10295 
L 168.224938 33.793771 
L 168.503938 62.395788 
L 168.782938 32.546326 
L 169.061938 116.071292 
L 169.340938 77.159013 
L 169.898938 48.630827 
L 170.177938 112.41048 
L 170.456938 102.484757 
L 170.735938 83.623884 
L 171.014938 98.11947 
L 171.293938 93.312731 
L 171.572938 90.80246 
L 171.851938 112.862698 
L 172.130938 39.76028 
L 172.688938 89.344288 
L 172.967938 94.795514 
L 173.246938 123.922042 
L 173.525938 88.905913 
L 173.804938 127.518252 
L 174.083938 90.114904 
L 174.362938 94.424818 
L 174.641938 65.432109 
L 174.920938 109.538742 
L 175.199938 123.269864 
L 175.478938 56.549256 
L 175.757938 120.796509 
L 176.315938 49.433745 
L 176.594938 122.485404 
L 177.152938 65.329053 
L 177.431938 40.867752 
L 177.710938 93.729571 
L 177.989938 35.32116 
L 178.268938 88.930524 
L 178.547938 77.418962 
L 178.826938 35.399606 
L 179.105938 109.124978 
L 179.384938 125.223323 
L 179.663938 60.580764 
L 179.942938 60.343888 
L 180.221938 114.117834 
L 180.500938 84.8621 
L 180.779938 72.041567 
L 181.058938 27.451953 
L 181.337938 95.795315 
L 181.616938 67.462475 
L 181.895938 123.926657 
L 182.174938 112.390484 
L 182.453938 41.990606 
L 182.732938 30.592868 
L 183.011938 95.693797 
L 183.290938 120.656536 
L 183.569938 59.168736 
L 183.848938 62.598825 
L 184.127938 95.373861 
L 184.406938 70.526483 
L 184.685938 86.277204 
L 184.964938 93.069702 
L 185.243938 127.799735 
L 185.522938 42.412061 
L 185.801938 95.386166 
L 186.080938 102.258648 
L 186.359938 34.229069 
L 186.638938 102.801618 
L 186.917938 47.332623 
L 187.196938 120.633464 
L 187.475938 37.219245 
L 187.754938 76.557594 
L 188.033938 71.843145 
L 188.312938 94.469425 
L 188.591938 91.51155 
L 188.870938 108.634306 
L 189.149938 82.660998 
L 189.428938 109.45722 
L 189.707938 65.432109 
L 189.986938 75.963866 
L 190.265938 64.773778 
L 190.544938 100.635893 
L 190.823938 58.238152 
L 191.102938 70.048116 
L 191.381938 123.552885 
L 191.660938 73.56588 
L 191.939938 70.225004 
L 192.218938 49.418363 
L 192.497938 120.75344 
L 192.776938 63.329449 
L 193.055938 78.314169 
L 193.334938 83.005545 
L 193.613938 121.896291 
L 193.892938 116.568117 
L 194.450938 65.330591 
L 194.729938 105.567223 
L 195.008938 62.406556 
L 195.287938 82.756364 
L 195.566938 66.877976 
L 195.845938 114.097838 
L 196.124938 66.837984 
L 196.403938 118.206253 
L 196.682938 112.951911 
L 196.961938 76.365324 
L 197.519938 113.690226 
L 197.798938 32.055654 
L 198.077938 71.715478 
L 198.356938 28.687092 
L 198.635938 106.771599 
L 198.914938 32.503258 
L 199.193938 75.728528 
L 199.472938 69.660501 
L 199.751938 52.445455 
L 200.030938 46.972695 
L 200.309938 88.158369 
L 200.588938 52.036305 
L 200.867938 124.792639 
L 201.146938 104.49359 
L 201.425938 35.593414 
L 201.983938 63.392514 
L 202.262938 28.527124 
L 202.541938 115.083796 
L 202.820938 121.922439 
L 203.099938 42.965797 
L 203.378938 40.766234 
L 203.657938 50.46431 
L 203.936938 118.603098 
L 204.215938 116.643487 
L 204.494938 59.587115 
L 204.773938 49.793674 
L 205.052938 31.191211 
L 205.331938 45.722174 
L 205.610938 42.032137 
L 205.889938 44.611625 
L 206.168938 82.987088 
L 206.447938 52.426997 
L 206.726938 97.533432 
L 207.005938 42.528961 
L 207.284938 85.708086 
L 207.563938 51.7902 
L 207.842938 101.995624 
L 208.121938 50.353562 
L 208.400938 122.696132 
L 208.679938 112.731955 
L 208.958938 29.574608 
L 209.237938 60.889933 
L 209.516938 38.157521 
L 209.795938 122.379272 
L 210.074938 63.59555 
L 210.353938 71.6801 
L 210.632938 113.78713 
L 210.911938 126.962978 
L 211.190938 97.962578 
L 211.469938 41.927542 
L 211.748938 72.666058 
L 212.027938 81.525839 
L 212.306938 85.146659 
L 212.585938 95.100069 
L 212.864938 36.677814 
L 213.143938 49.221479 
L 213.701938 122.745353 
L 213.980938 77.072876 
L 214.259938 76.011548 
L 214.538938 40.227879 
L 214.817938 78.824836 
L 215.096938 41.3615 
L 215.654938 121.685563 
L 215.933938 112.895 
L 216.212938 67.473243 
L 216.491938 47.384921 
L 216.770938 79.537003 
L 217.049938 28.520971 
L 217.328938 51.059576 
L 217.607938 126.98605 
L 217.886938 39.328058 
L 218.165938 68.285389 
L 218.444938 68.29308 
L 219.002938 122.560774 
L 219.281938 41.150773 
L 219.560938 67.867011 
L 219.839938 126.739945 
L 220.118938 49.730609 
L 220.397938 71.427843 
L 220.676938 44.4655 
L 220.955938 59.157969 
L 221.234938 53.674442 
L 221.513938 72.370732 
L 221.792938 101.09734 
L 222.071938 46.591232 
L 222.629938 120.13664 
L 222.908938 53.832872 
L 223.187938 40.455526 
L 223.745938 64.958357 
L 224.024938 125.86781 
L 224.582938 29.448479 
L 224.861938 94.372521 
L 225.140938 57.098378 
L 225.419938 48.384722 
L 225.698938 69.706646 
L 225.977938 42.576644 
L 226.256938 51.051885 
L 226.535938 71.415537 
L 226.814938 105.505696 
L 227.093938 48.080167 
L 227.372938 107.862152 
L 227.651938 34.067563 
L 227.930938 121.525595 
L 228.209938 50.318185 
L 228.488938 53.743659 
L 229.046938 108.654302 
L 229.325938 39.721826 
L 229.604938 108.083646 
L 229.883938 55.072626 
L 230.162938 95.815311 
L 230.441938 100.742026 
L 230.720938 100.139069 
L 230.999938 66.430373 
L 231.278938 123.494435 
L 231.557938 101.18963 
L 231.836938 103.483021 
L 232.115938 78.274176 
L 232.394938 70.471109 
L 232.673938 57.270652 
L 232.952938 68.388446 
L 233.231938 65.415189 
L 233.510938 85.132816 
L 233.789938 113.150334 
L 234.068938 52.223961 
L 234.347938 115.525247 
L 234.626938 71.829301 
L 234.905938 67.236366 
L 235.184938 49.342994 
L 235.463938 91.173156 
L 235.742938 111.902889 
L 236.021938 35.358076 
L 236.300938 91.81149 
L 236.579938 50.665808 
L 236.858938 56.318533 
L 237.137938 115.645223 
L 237.416938 73.542808 
L 237.974938 125.973943 
L 238.532938 86.323349 
L 238.811938 104.119818 
L 239.090938 76.780627 
L 239.369938 67.951609 
L 239.648938 100.325186 
L 239.927938 77.214387 
L 240.206938 70.348057 
L 240.485938 117.092628 
L 240.764938 33.320019 
L 241.043938 33.570738 
L 241.322938 64.512292 
L 241.601938 32.923175 
L 242.159938 113.682536 
L 242.438938 90.224113 
L 242.717938 96.88433 
L 242.996938 62.168141 
L 243.275938 83.410081 
L 243.554938 44.068656 
L 243.833938 45.07461 
L 244.112938 112.002869 
L 244.391938 51.770204 
L 244.670938 122.379272 
L 244.949938 121.899367 
L 245.228938 40.670868 
L 245.507938 118.217021 
L 245.786938 60.633061 
L 246.065938 56.939948 
L 246.344938 118.240093 
L 246.623938 54.174343 
L 246.902938 125.387905 
L 247.181938 89.313525 
L 247.460938 92.20372 
L 247.739938 104.158271 
L 248.018938 82.602548 
L 248.297938 97.494978 
L 248.576938 86.815559 
L 248.855938 50.645812 
L 249.134938 41.535312 
L 249.413938 107.343793 
L 249.971938 36.822401 
L 250.250938 116.828065 
L 250.529938 125.384829 
L 250.808938 66.391919 
L 251.087938 98.250213 
L 251.645938 42.741227 
L 252.203938 110.498552 
L 252.482938 43.107308 
L 253.040938 122.685365 
L 253.319938 73.302855 
L 253.598938 76.393011 
L 253.877938 87.910726 
L 254.156938 50.604282 
L 254.435938 84.248376 
L 254.714938 60.616142 
L 254.993938 70.966396 
L 255.272938 66.373461 
L 255.551938 107.363789 
L 255.830938 118.289314 
L 256.109938 49.255319 
L 256.388937 33.901442 
L 256.667937 101.43112 
L 256.946938 93.634206 
L 257.225938 82.727139 
L 257.504938 82.622544 
L 257.783938 29.666898 
L 258.062938 100.963521 
L 258.341938 73.30747 
L 258.620938 104.045986 
L 258.899938 53.137625 
L 259.178938 107.683726 
L 259.457938 127.00297 
L 259.736938 48.92923 
L 260.294938 116.755772 
L 260.573937 58.651916 
L 260.852937 124.717269 
L 261.131938 95.055462 
L 261.410938 36.230211 
L 261.689938 51.308758 
L 262.247938 31.465002 
L 262.526938 64.124676 
L 262.805938 117.394107 
L 263.084938 56.670771 
L 263.363938 63.418662 
L 263.642938 109.847912 
L 263.921938 70.221928 
L 264.200938 61.554417 
L 264.479938 42.69662 
L 264.758938 95.389242 
L 265.037937 90.184121 
L 265.316937 102.526288 
L 265.595938 46.725052 
L 265.874938 36.011793 
L 266.153938 102.955433 
L 266.432938 41.015415 
L 266.711938 70.488029 
L 266.990938 74.776409 
L 267.269938 125.749372 
L 267.548938 49.566026 
L 267.827938 110.930774 
L 268.385938 75.224012 
L 268.664938 95.412314 
L 268.943938 31.431163 
L 269.222938 35.627254 
L 269.501937 76.945209 
L 269.780938 70.366515 
L 270.059938 73.939652 
L 270.338938 91.402341 
L 270.617938 84.039186 
L 270.896938 31.597284 
L 271.175938 41.381496 
L 271.454938 72.418415 
L 271.733938 77.068262 
L 272.012938 74.888694 
L 272.291938 99.17003 
L 272.570938 94.327914 
L 272.849938 105.345728 
L 273.128938 58.362743 
L 273.407938 92.831288 
L 273.686937 93.958757 
L 273.965937 98.873166 
L 274.244938 125.855505 
L 274.523938 30.354454 
L 274.802938 110.355503 
L 275.081938 108.732748 
L 275.360938 115.932858 
L 275.639938 58.591928 
L 275.918938 40.692402 
L 276.197938 103.985998 
L 276.476938 69.466693 
L 276.755938 102.189431 
L 277.034938 29.236214 
L 277.313938 107.977514 
L 277.592938 45.248421 
L 277.871938 73.339771 
L 278.150937 34.84587 
L 278.429938 46.800421 
L 278.708938 36.4394 
L 278.987938 92.159114 
L 279.266938 38.159059 
L 279.824938 72.203073 
L 280.103938 109.810996 
L 280.382938 108.709676 
L 280.661938 80.533728 
L 280.940938 116.680402 
L 281.219938 102.604734 
L 281.498938 117.854016 
L 281.777938 56.70461 
L 282.056938 48.670819 
L 282.335938 61.232942 
L 282.614937 38.255963 
L 283.172938 106.513189 
L 283.451938 88.725949 
L 284.009938 85.958806 
L 284.288938 100.778942 
L 284.567938 104.373613 
L 284.846938 86.549458 
L 285.125938 77.031346 
L 285.404938 101.42343 
L 285.962938 30.780523 
L 286.241938 92.272937 
L 286.520938 67.845476 
L 286.799937 84.372966 
L 287.078938 109.74947 
L 287.357938 101.495723 
L 287.636938 61.216023 
L 287.915938 47.252639 
L 288.194938 111.287626 
L 288.473938 49.975176 
L 288.752938 29.594604 
L 289.310938 98.161 
L 289.589938 120.005896 
L 289.868938 78.141895 
L 290.426938 55.806327 
L 290.705938 107.19613 
L 290.984938 61.139115 
L 291.263937 127.30291 
L 291.542938 58.761125 
L 291.821938 50.390478 
L 292.100938 29.317736 
L 292.379938 86.498698 
L 292.658938 89.46734 
L 292.937938 93.971062 
L 293.216938 51.64869 
L 293.495938 107.146909 
L 293.774938 43.619514 
L 294.053938 113.940946 
L 294.332938 91.963768 
L 294.611938 117.77557 
L 294.890938 127.318292 
L 295.169938 33.990655 
L 295.448937 95.095454 
L 295.727938 114.845382 
L 296.006938 95.463074 
L 296.285938 95.644576 
L 296.564938 46.791192 
L 296.843938 113.258004 
L 297.122938 57.298338 
L 297.401938 54.675782 
L 297.680938 121.739399 
L 297.959938 63.59555 
L 298.238938 57.992047 
L 298.517938 76.062308 
L 298.796938 108.09749 
L 299.075938 64.879911 
L 299.354938 91.736121 
L 299.633938 81.038243 
L 299.912937 34.724356 
L 300.191938 114.283955 
L 300.749938 34.059872 
L 301.028938 46.645067 
L 301.307938 77.571239 
L 301.586938 38.791241 
L 301.865938 76.839077 
L 302.144938 78.92174 
L 302.423938 100.369792 
L 302.702938 101.954093 
L 302.981938 28.950117 
L 303.260938 99.922189 
L 303.539938 117.595605 
L 303.818938 49.718304 
L 304.097938 59.287174 
L 304.376938 35.099666 
L 304.655938 100.82201 
L 304.934938 99.539188 
L 305.213938 125.249471 
L 305.771938 30.668237 
L 306.050938 30.129883 
L 306.329938 96.421345 
L 306.608938 41.032335 
L 306.887938 70.675684 
L 307.166938 45.014622 
L 307.445938 105.390335 
L 307.724938 43.751795 
L 308.003938 95.66611 
L 308.282938 119.939756 
L 308.561937 67.771645 
L 308.840937 70.201932 
L 309.119937 42.401294 
L 309.398937 92.41291 
L 309.677937 99.266934 
L 309.956938 33.775313 
L 310.235938 36.039479 
L 310.514938 85.355848 
L 310.793938 52.660797 
L 311.072938 113.679459 
L 311.351938 67.66705 
L 311.909938 109.438762 
L 312.467938 30.809748 
L 312.746938 78.049606 
L 313.583937 51.854803 
L 313.862937 102.975429 
L 314.141938 115.337592 
L 314.420938 40.82776 
L 314.699938 84.831337 
L 314.978938 50.413551 
L 315.257938 72.933698 
L 315.536938 68.934491 
L 315.815938 112.556605 
L 316.094938 77.966545 
L 316.373938 96.136786 
L 316.652938 30.757451 
L 316.931938 40.175582 
L 317.210938 30.039132 
L 317.489937 113.842504 
L 317.768937 51.650228 
L 318.047937 51.968627 
L 318.326937 87.524649 
L 318.605938 93.14661 
L 318.884938 127.067572 
L 319.163938 65.981231 
L 319.442938 104.796606 
L 320.000938 52.09937 
L 320.279938 36.045632 
L 320.558938 40.080216 
L 320.837938 105.050402 
L 321.116938 98.8947 
L 321.395938 27.747279 
L 321.953937 69.749714 
L 322.232937 71.052532 
L 322.511937 112.701192 
L 322.790938 40.063296 
L 323.069938 88.018397 
L 323.348938 47.034221 
L 323.627938 43.087312 
L 323.906938 44.357829 
L 324.185938 54.062057 
L 324.464938 48.553919 
L 324.743938 107.517605 
L 325.022938 34.639757 
L 325.301938 106.040975 
L 325.580938 110.06633 
L 325.859938 70.475724 
L 326.138937 67.185607 
L 326.417937 90.608652 
L 326.696937 49.179949 
L 326.975937 99.709923 
L 327.254938 80.83213 
L 327.533938 46.688136 
L 327.812938 128.098137 
L 328.091938 82.004206 
L 328.370938 77.322058 
L 328.649938 74.693348 
L 328.928938 76.282264 
L 329.207938 43.118075 
L 329.486938 122.24699 
L 329.765938 106.859274 
L 330.044938 37.025438 
L 330.323937 27.530399 
L 330.602937 79.007877 
L 330.881937 85.929581 
L 331.160937 124.389642 
L 331.439938 95.832231 
L 331.718938 54.612717 
L 331.997938 102.923132 
L 332.276938 27.453491 
L 332.555938 82.764055 
L 332.834938 59.042608 
L 333.113938 55.272586 
L 333.392938 45.676029 
L 333.671938 72.009266 
L 333.950938 27.816496 
L 334.229938 69.789706 
L 334.508938 81.982671 
L 334.787937 35.910274 
L 335.066937 58.210465 
L 335.345937 41.133853 
L 335.624937 91.62845 
L 335.903938 33.078528 
L 336.182938 100.419013 
L 336.461938 52.170125 
L 336.740938 92.236022 
L 337.298938 38.392859 
L 337.577938 63.70476 
L 337.856938 42.639708 
L 338.135938 79.121701 
L 338.414938 51.078034 
L 338.972938 118.924572 
L 339.251937 27.548856 
L 339.530937 85.160502 
L 339.809937 34.109093 
L 340.088938 54.681934 
L 340.646938 126.180056 
L 341.204938 30.680543 
L 341.483938 81.132071 
L 341.762938 49.28762 
L 342.041938 88.34141 
L 342.320938 77.354359 
L 342.599938 100.46362 
L 342.878938 50.407398 
L 343.157938 85.96342 
L 343.436937 50.635045 
L 343.715937 31.983361 
L 343.994937 124.640361 
L 344.273937 98.582455 
L 344.552938 115.674448 
L 344.831938 42.590487 
L 345.110938 53.179156 
L 345.389938 115.417576 
L 345.668938 85.592724 
L 345.947938 117.695586 
L 346.226938 105.018101 
L 346.505938 32.670917 
L 346.784938 54.721926 
L 347.063938 104.539734 
L 347.342938 78.497209 
L 347.621938 41.338428 
L 347.900937 122.81457 
L 348.179937 105.336499 
L 348.458937 77.457415 
L 348.737938 85.526584 
L 349.016938 59.468677 
L 349.295938 80.995175 
L 349.574938 74.308809 
L 349.853938 50.984207 
L 350.132938 123.683628 
L 350.690938 42.547419 
L 351.248938 117.723272 
L 351.527938 118.318539 
L 352.085938 73.976568 
L 352.364937 36.02256 
L 352.643937 36.822401 
L 353.201938 77.008274 
L 353.480938 91.340815 
L 354.038938 69.266733 
L 354.317938 83.626961 
L 354.596938 118.381603 
L 354.875938 126.037007 
L 355.154938 73.615101 
L 355.433938 109.669486 
L 355.712938 103.60915 
L 355.991938 42.516656 
L 356.270938 46.791192 
L 356.549937 48.373955 
L 356.828937 30.778985 
L 357.107937 92.825136 
L 357.386938 55.255667 
L 357.665938 92.452902 
L 357.944938 57.538291 
L 358.223938 38.469766 
L 358.502938 41.562999 
L 358.781938 107.814469 
L 359.060938 60.551539 
L 359.339938 78.19573 
L 359.618938 76.98674 
L 359.897938 104.10136 
L 360.176938 78.612571 
L 360.455938 113.834813 
L 360.734938 72.85679 
L 361.013937 111.421446 
L 361.292937 64.878373 
L 361.571937 127.247536 
L 361.850938 93.472699 
L 362.129938 44.953095 
L 362.408938 122.311593 
L 362.687938 63.258694 
L 362.966938 115.709826 
L 363.245938 52.039382 
L 363.524938 53.06687 
L 363.803938 88.95052 
L 364.082938 101.514181 
L 364.361938 95.370784 
L 364.640938 86.323349 
L 364.919938 48.490855 
L 365.198937 29.153153 
L 365.477937 78.623338 
L 366.035938 31.835698 
L 366.314938 107.400705 
L 366.593938 98.803949 
L 366.872938 28.634795 
L 367.151938 28.165657 
L 367.709938 57.895143 
L 367.988938 34.872019 
L 368.267938 55.31104 
L 368.546938 114.363939 
L 369.104938 67.348652 
L 369.383938 42.322848 
L 369.662937 45.33302 
L 370.220937 34.718203 
L 370.499938 64.835304 
L 370.778938 115.563701 
L 371.057938 67.454785 
L 371.336938 117.823252 
L 371.615938 42.381298 
L 371.894938 88.861307 
L 372.173938 39.761818 
L 372.452938 92.139118 
L 372.731938 53.922085 
L 373.010938 52.826918 
L 373.568938 101.44804 
L 373.847938 48.999985 
L 374.126937 37.817588 
L 374.405937 123.454443 
L 374.684938 43.690269 
L 374.963938 100.339029 
L 375.242938 79.404721 
L 375.521938 119.925912 
L 375.800938 126.380016 
L 376.079938 84.574465 
L 376.358938 102.187893 
L 376.637938 86.743265 
L 376.916938 96.476719 
L 377.474938 28.516357 
L 377.753938 57.446001 
L 378.032938 115.362202 
L 378.311937 108.363591 
L 378.590937 114.333176 
L 378.869937 57.959746 
L 379.148938 56.715377 
L 379.427938 66.410377 
L 379.706938 89.185858 
L 379.985938 124.421943 
L 380.264938 44.188632 
L 380.543938 56.218553 
L 380.822938 83.220887 
L 381.101938 43.625667 
L 381.380938 31.057391 
L 381.659938 53.995917 
L 381.938938 28.737851 
L 382.217938 31.581902 
L 382.496938 114.714639 
L 382.775937 61.712847 
L 383.054937 110.186306 
L 383.333938 120.518102 
L 383.612938 47.18496 
L 383.891938 110.318588 
L 384.170938 122.63922 
L 384.449938 98.793182 
L 384.728938 60.351579 
L 385.007938 103.832182 
L 385.286938 42.261322 
L 385.565938 34.865866 
L 386.402938 72.649139 
L 386.681938 66.096593 
L 386.960938 83.196277 
L 387.239937 115.615998 
L 387.518937 121.16259 
L 387.797938 68.457663 
L 388.076938 67.739344 
L 388.355938 37.294615 
L 388.634938 31.606513 
L 388.913938 104.638176 
L 389.192938 50.301265 
L 389.471938 50.947291 
L 389.750938 30.271393 
L 390.308938 98.817793 
L 390.587938 115.959007 
L 390.866938 66.185806 
L 391.145938 53.308361 
L 391.424937 103.430724 
L 392.261938 51.713293 
L 392.540938 84.772887 
L 392.819938 89.248922 
L 393.098938 109.49875 
L 393.377938 38.605124 
L 393.656938 65.824339 
L 393.935938 107.036162 
L 394.214938 81.344337 
L 394.493938 69.011399 
L 394.772938 116.621952 
L 395.051938 28.325625 
L 395.330938 111.798294 
L 395.609938 65.979693 
L 395.888937 44.319375 
L 396.167937 101.849499 
L 396.446938 52.051687 
L 396.725938 123.883589 
L 397.004938 122.829951 
L 397.283938 89.787277 
L 397.562938 72.263061 
L 397.841938 76.965205 
L 398.120938 63.937021 
L 398.399938 81.322802 
L 398.678938 118.515423 
L 398.957938 122.370043 
L 399.236938 59.700939 
L 399.515938 41.692204 
L 399.794938 113.734833 
L 400.073937 126.767632 
L 400.352937 74.876389 
L 400.631938 75.371675 
L 400.910938 53.883631 
L 401.189938 116.728085 
L 401.747938 29.971453 
L 402.026938 31.405014 
L 402.305938 110.178615 
L 402.584938 33.856836 
L 402.863938 75.174791 
L 403.142938 74.979446 
L 403.421938 118.603098 
L 403.700938 103.6676 
L 403.979938 53.786727 
L 404.258938 39.732593 
L 404.537937 51.330292 
L 404.816937 38.926599 
L 405.095938 41.562999 
L 405.374938 111.689085 
L 405.653938 29.311584 
L 405.932938 57.641347 
L 406.211938 28.428682 
L 406.490938 82.15033 
L 406.769938 32.324832 
L 407.048938 68.462277 
L 407.327938 82.590243 
L 407.606938 79.487782 
L 407.885938 110.518548 
L 408.164938 104.238256 
L 408.443938 71.564738 
L 408.722938 83.074762 
L 409.001937 121.068762 
L 409.280937 59.513283 
L 409.559938 70.666455 
L 409.838938 44.26554 
L 410.117938 74.968678 
L 410.396938 85.692705 
L 410.675938 119.358333 
L 411.233938 28.542505 
L 411.512938 27.407346 
L 411.791938 61.239095 
L 412.070938 50.718105 
L 412.349938 93.401944 
L 412.628938 101.721832 
L 412.907938 70.69568 
L 413.186937 69.835851 
L 413.465937 115.863641 
L 413.744938 104.953498 
L 414.023938 27.401193 
L 414.302938 65.941239 
L 414.581938 33.280027 
L 414.860938 32.910869 
L 415.139938 120.485801 
L 415.418938 84.41142 
L 415.697938 104.507433 
L 415.976938 51.951707 
L 416.255938 121.216425 
L 416.534938 61.425212 
L 416.813938 74.238054 
L 417.092938 102.167897 
L 417.371938 111.38453 
L 417.650937 76.899065 
L 417.929937 83.696178 
L 418.208938 78.99711 
L 418.487938 127.305986 
L 418.766938 29.916079 
L 419.324938 122.313131 
L 419.603938 34.567464 
L 419.882938 33.439995 
L 420.161938 117.941691 
L 420.440938 66.639562 
L 420.719938 75.543949 
L 420.998938 111.573723 
L 421.277938 75.942331 
L 421.556938 92.809754 
L 421.835938 55.321807 
L 422.114937 93.572679 
L 422.393938 75.05943 
L 422.672938 82.271845 
L 422.951938 123.980492 
L 423.230938 71.397079 
L 423.509938 81.51661 
L 423.788938 45.712945 
L 424.067938 127.598236 
L 424.346938 34.908935 
L 424.625938 60.151618 
L 424.904938 31.884919 
L 425.183938 116.397382 
L 425.462938 66.462674 
L 425.741938 127.041423 
L 426.020938 39.786428 
L 426.299937 42.97195 
L 426.578937 87.57387 
L 426.857938 102.209427 
L 427.136938 88.982821 
L 427.415938 100.892766 
L 427.694938 80.086125 
L 427.973938 43.50569 
L 428.252938 67.713195 
L 428.531938 28.548658 
L 428.810938 90.142591 
L 429.089938 33.212348 
L 429.368938 90.62711 
L 429.647938 46.65122 
L 429.926938 112.624284 
L 430.205938 85.574266 
L 430.484938 120.147407 
L 430.763937 67.988525 
L 431.042938 122.593075 
L 431.321938 71.264798 
L 431.600938 97.319628 
L 431.879938 95.695335 
L 432.158938 68.49304 
L 432.437938 53.496016 
L 432.716938 121.114907 
L 432.995938 126.670728 
L 433.274938 81.619667 
L 433.553938 73.956572 
L 434.111938 40.384771 
L 434.390938 68.291542 
L 434.669938 53.229915 
L 434.948937 28.917816 
L 435.227937 110.347813 
L 435.785938 39.91871 
L 436.064938 98.328659 
L 436.343938 119.481385 
L 436.622938 75.187097 
L 436.901938 67.190222 
L 437.180938 69.059082 
L 437.459938 75.082502 
L 437.738938 49.81367 
L 438.296938 95.467688 
L 438.575938 59.490211 
L 438.854938 118.870737 
L 439.133938 119.716723 
L 439.412937 32.495567 
L 439.970938 100.794324 
L 440.249938 44.790051 
L 440.528938 115.282218 
L 440.807938 117.361806 
L 441.086938 56.652313 
L 441.365938 74.579525 
L 441.644938 75.431664 
L 441.923938 95.930673 
L 442.202938 93.208136 
L 442.481938 67.460937 
L 442.760938 69.103688 
L 443.039938 93.617286 
L 443.318938 104.575112 
L 443.597938 92.549806 
L 443.876937 89.065881 
L 444.155938 71.074067 
L 444.434938 113.088807 
L 444.713938 52.805384 
L 444.992938 61.508272 
L 445.271938 122.391577 
L 445.550938 120.52887 
L 445.829938 30.355992 
L 446.108938 125.941642 
L 446.387938 97.459601 
L 446.666938 42.704311 
L 446.945938 71.36324 
L 447.224938 45.586816 
L 447.503938 64.272339 
L 447.782938 31.452697 
L 448.340938 110.538544 
L 448.619938 31.211207 
L 448.898938 94.42328 
L 449.177938 87.004752 
L 449.456938 71.920053 
L 449.735938 48.412409 
L 450.014938 41.810642 
L 450.293938 97.364235 
L 450.572938 60.694588 
L 450.851938 80.60756 
L 451.130938 69.61128 
L 451.409938 30.64978 
L 451.688938 77.165166 
L 451.967938 48.217063 
L 452.246938 41.790646 
L 452.525937 86.823249 
L 452.804938 105.962529 
L 453.083938 36.04717 
L 453.362938 125.237166 
L 453.641938 73.196722 
L 453.920938 48.217063 
L 454.199938 79.435484 
L 454.478938 27.658065 
L 454.757938 43.854852 
L 455.036938 67.839324 
L 455.315938 71.158665 
L 455.594938 59.988574 
L 455.873938 122.310055 
L 456.152938 62.248125 
L 456.431938 64.22158 
L 456.710938 95.898372 
L 456.989938 111.796756 
L 457.268938 55.207984 
L 457.547938 79.604682 
L 457.826938 53.748273 
L 458.105938 62.623436 
L 458.663938 93.143534 
L 458.942938 59.559428 
L 459.221938 62.624974 
L 459.500938 75.900801 
L 459.779938 30.994327 
L 460.058938 124.223521 
L 460.337938 116.755772 
L 460.616938 57.844384 
L 460.895938 78.331088 
L 461.174937 121.270261 
L 461.453938 113.404129 
L 461.732938 67.340961 
L 462.011938 74.467239 
L 462.290938 75.416282 
L 462.569938 74.671814 
L 462.848938 85.383535 
L 463.127938 84.13609 
L 463.406938 80.892119 
L 463.685938 38.328256 
L 463.964938 111.183032 
L 464.243938 101.309606 
L 464.801938 44.862344 
L 465.080938 82.857882 
L 465.359938 76.483762 
L 465.638938 74.737955 
L 465.917938 74.102696 
L 466.196938 67.671665 
L 466.475938 65.647451 
L 466.754938 53.539084 
L 467.033938 114.011701 
L 467.312938 112.350492 
L 467.591938 125.307921 
L 468.149938 35.064288 
L 468.428938 57.872071 
L 468.707938 119.324493 
L 468.986938 37.677616 
L 469.265938 107.025395 
L 469.544938 67.485548 
L 469.823937 53.239144 
L 470.381938 85.415836 
L 470.660938 71.887751 
L 470.939938 95.987585 
L 471.218938 50.661194 
L 471.497938 110.157081 
L 471.776938 74.771794 
L 472.055938 119.342951 
L 472.334938 65.038341 
L 472.613938 38.568208 
L 472.892938 80.801367 
L 473.171938 71.761622 
L 473.450938 35.673398 
L 473.729938 76.223814 
L 474.008938 99.876044 
L 474.287938 67.854705 
L 474.566938 108.549708 
L 474.845938 76.543751 
L 475.124938 89.671915 
L 475.403938 75.876191 
L 475.682938 105.159611 
L 475.961938 31.474231 
L 476.240938 48.372417 
L 476.519938 96.352128 
L 476.798938 42.615098 
L 477.077938 112.255127 
L 477.356938 47.712548 
L 477.635938 124.234288 
L 478.193938 59.951658 
L 478.472938 113.290306 
L 478.751938 115.680601 
L 479.030938 94.314071 
L 479.309938 32.406354 
L 479.588938 111.396835 
L 479.867938 110.912316 
L 480.146938 109.787924 
L 480.425938 123.216029 
L 480.704938 88.590591 
L 480.983938 100.051394 
L 481.262938 82.336447 
L 481.541938 110.263214 
L 481.820938 118.190872 
L 482.378938 40.43553 
L 482.657938 50.561214 
L 482.936938 72.123089 
L 483.215938 66.896434 
L 483.494938 39.78489 
L 483.773938 45.940592 
L 484.052938 127.496718 
L 484.331938 27.493483 
L 484.610938 44.239391 
L 484.889938 110.364732 
L 485.168938 117.949381 
L 485.447938 116.038991 
L 485.726938 82.739444 
L 486.005938 106.777752 
L 486.284938 29.67305 
L 486.563938 100.440548 
L 486.842938 94.152564 
L 487.121938 28.041066 
L 487.400938 102.423231 
L 487.679938 126.172365 
L 487.958938 51.84865 
L 488.237938 53.388345 
L 488.516938 29.328503 
L 488.795938 61.946647 
L 489.074938 108.066727 
L 489.353938 36.547071 
L 489.632938 35.10428 
L 489.911938 92.635942 
L 490.190938 33.795309 
L 490.469938 79.932309 
L 490.748938 54.163576 
L 491.027938 113.417973 
L 491.306938 76.271497 
L 491.585938 60.825331 
L 491.864938 113.284153 
L 492.143938 49.259933 
L 492.422938 122.617686 
L 492.701938 109.455682 
L 492.980938 46.721975 
L 493.259938 41.956767 
L 493.538938 98.773186 
L 493.817938 67.754725 
L 494.096938 95.996814 
L 494.375938 104.65202 
L 494.654938 74.151917 
L 494.933938 110.384728 
L 495.212938 47.197266 
L 495.491938 116.012842 
L 495.770938 116.28202 
L 496.049938 51.828654 
L 496.607938 90.127209 
L 496.886938 86.444863 
L 497.165938 43.075007 
L 497.444938 58.978005 
L 497.723938 33.976812 
L 498.002938 101.518795 
L 498.281938 117.686357 
L 498.560938 105.441094 
L 498.839938 105.659512 
L 499.118938 83.317791 
L 499.397938 36.084086 
L 499.676938 66.713393 
L 499.955938 72.370732 
L 500.234938 41.063098 
L 500.513938 87.327765 
L 500.792938 50.424318 
L 501.071938 100.20521 
L 501.350938 94.744755 
L 501.629938 56.224705 
L 501.908938 47.389535 
L 502.466938 121.580968 
L 502.745938 50.751945 
L 503.303938 125.632472 
L 503.582938 68.877579 
L 503.861938 125.7263 
L 504.419938 65.236763 
L 504.698938 97.841063 
L 504.977938 27.853411 
L 505.256938 69.400552 
L 505.814938 46.14209 
L 506.093938 98.545539 
L 506.372938 126.815315 
L 506.651938 35.442675 
L 506.930938 121.199506 
L 507.209938 109.886366 
L 507.767938 57.089149 
L 508.046938 88.635198 
L 508.325938 99.557646 
L 508.604938 104.065982 
L 508.883938 78.467984 
L 509.162938 40.315554 
L 509.441938 105.142692 
L 509.720938 66.09044 
L 509.999938 47.917123 
L 510.278938 38.452847 
L 510.557938 84.220689 
L 510.836938 105.945609 
L 511.115938 101.85719 
L 511.394938 108.009815 
L 511.673938 107.591436 
L 511.952938 94.461734 
L 512.231938 88.189132 
L 512.510938 60.588455 
L 512.789938 76.105376 
L 513.068938 69.861999 
L 513.626938 55.60329 
L 513.905938 55.477161 
L 514.184938 62.566524 
L 514.463938 87.704613 
L 514.742938 78.421839 
L 515.021938 94.271002 
L 515.300938 37.851428 
L 515.579938 56.898418 
L 515.858938 123.865131 
L 516.137938 51.425657 
L 516.416938 59.222572 
L 516.695938 119.535221 
L 516.974938 115.845183 
L 517.253938 67.856244 
L 517.532938 88.944367 
L 517.811938 121.633266 
L 518.090938 54.320468 
L 518.369938 65.504402 
L 518.648938 105.61952 
L 518.927938 79.635445 
L 519.206938 107.637581 
L 519.485938 110.684669 
L 520.043938 86.344883 
L 520.322938 83.608503 
L 520.601938 36.716268 
L 520.880938 118.223173 
L 521.159938 29.523849 
L 521.438938 32.938556 
L 521.717938 92.423677 
L 521.996938 40.807764 
L 522.275938 96.895097 
L 522.554938 95.878376 
L 522.833938 52.853066 
L 523.112938 53.917471 
L 523.391938 114.330099 
L 523.670938 92.643633 
L 523.949938 38.371324 
L 524.228938 39.003507 
L 524.507938 104.385919 
L 524.786938 119.075312 
L 525.065938 61.70208 
L 525.344938 65.298289 
L 525.623938 32.24331 
L 525.902938 122.336203 
L 526.181938 42.310543 
L 526.460938 97.621107 
L 526.739938 57.327563 
L 527.018938 84.145319 
L 527.297938 53.597534 
L 527.576938 65.650527 
L 527.855938 122.965309 
L 528.134938 28.022609 
L 528.692938 95.129294 
L 529.250938 67.414793 
L 529.529938 117.90016 
L 530.087938 69.454388 
L 530.366938 83.490065 
L 530.645938 69.326721 
L 530.924938 34.648986 
L 531.203938 86.028023 
L 531.482938 94.295613 
L 531.761938 53.343738 
L 532.040938 123.457519 
L 532.319938 52.663873 
L 532.598938 104.470517 
L 532.877938 101.258847 
L 533.156938 46.84349 
L 533.435938 106.810053 
L 533.714938 69.460541 
L 533.993938 102.121752 
L 534.272938 48.860013 
L 534.551938 101.549558 
L 534.830938 118.52619 
L 535.109938 122.817646 
L 535.388938 110.578536 
L 535.946938 70.826423 
L 536.225938 118.75999 
L 536.504938 58.227385 
L 536.783938 109.197272 
L 537.620938 37.536106 
L 537.899938 96.212156 
L 538.178938 110.827717 
L 538.457938 104.508971 
L 538.736938 58.142786 
L 539.015938 37.420744 
L 539.294938 119.2522 
L 539.573938 103.343049 
L 539.852938 40.092521 
L 540.131938 77.951164 
L 540.410938 55.981676 
L 540.689938 73.510506 
L 540.968938 122.197769 
L 541.247938 109.420304 
L 541.526938 51.107259 
L 541.805938 115.076105 
L 542.084938 59.756312 
L 542.363938 100.506688 
L 542.642938 68.21771 
L 542.921938 114.999197 
L 543.200938 77.062109 
L 543.479938 59.267178 
L 543.758938 102.795465 
L 544.037938 77.375893 
L 544.316938 40.361699 
L 544.595938 105.919461 
L 545.153938 79.463171 
L 545.432938 44.908489 
L 545.711938 110.640062 
L 545.990938 65.544395 
L 546.269938 116.12359 
L 546.548938 79.31397 
L 546.827938 57.704412 
L 547.106938 109.701787 
L 547.385938 105.825633 
L 547.664938 106.899266 
L 547.943938 82.324142 
L 548.222938 31.003556 
L 548.501938 99.433055 
L 549.059938 45.897523 
L 549.338938 47.355696 
L 549.617938 56.695381 
L 549.896938 49.669083 
L 550.175938 48.924615 
L 550.454938 85.335852 
L 550.733938 55.952452 
L 551.012938 40.898515 
L 551.291938 86.212601 
L 551.570938 88.179903 
L 551.849938 36.448629 
L 552.128938 30.754374 
L 552.407938 113.531796 
L 552.686938 72.021571 
L 552.965938 95.243117 
L 553.244938 36.650128 
L 553.523938 30.302156 
L 553.802938 27.770351 
L 554.081938 109.53259 
L 554.360938 50.476615 
L 554.639938 49.527572 
L 554.918938 101.843346 
L 555.197938 102.303255 
L 555.476938 107.93906 
L 555.755938 79.72312 
L 556.034938 95.227736 
L 556.313938 32.924713 
L 556.592938 124.620365 
L 556.871938 47.532584 
L 557.150938 44.047121 
L 557.429938 57.938211 
L 557.708938 104.004456 
L 557.987938 52.545435 
L 558.266938 102.697023 
L 558.545938 93.837242 
L 558.824938 103.835259 
L 559.103938 48.650823 
L 559.382938 37.936026 
L 559.661938 97.84414 
L 560.219938 62.434242 
L 560.498938 108.914251 
L 560.777938 86.491008 
L 561.056938 76.51914 
L 561.335938 59.204114 
L 561.614938 107.700646 
L 561.893938 103.681443 
L 562.172938 60.497704 
L 562.451938 103.935239 
L 562.730938 112.548914 
L 563.009938 89.515023 
L 563.288938 49.04613 
L 563.567938 87.344684 
L 563.846938 62.941834 
L 564.125938 106.233244 
L 564.404938 42.645861 
L 564.683938 44.59932 
L 564.962938 96.412116 
L 565.241938 27.38735 
L 565.520938 92.159114 
L 565.799938 30.311385 
L 566.078938 35.719543 
L 566.357938 33.922976 
L 566.636938 97.847216 
L 566.915938 88.081461 
L 567.194938 105.539536 
L 567.473938 115.053033 
L 567.752938 100.986593 
L 568.031938 118.329306 
L 568.310938 64.536902 
L 568.589938 36.374798 
L 568.868938 116.926507 
L 569.147938 33.615345 
L 569.426938 117.786337 
L 569.705938 126.732254 
L 570.263938 76.705257 
L 570.542938 33.692253 
L 570.821938 67.494777 
L 571.100938 38.197513 
L 571.379938 67.257901 
L 571.658938 45.162285 
L 571.937938 41.692204 
L 572.216938 127.365974 
L 572.774938 41.669132 
L 573.053938 108.943476 
L 573.332938 107.999048 
L 573.611938 49.439898 
L 573.890938 78.157277 
L 574.169938 58.379662 
L 574.448938 67.459399 
L 574.727938 109.638723 
L 575.006938 37.333069 
L 575.285938 71.320172 
L 575.564938 80.163032 
L 575.843938 84.672907 
L 576.122938 48.047866 
L 576.401938 60.034718 
L 576.959938 98.668591 
L 577.238938 57.627504 
L 577.517938 98.693202 
L 577.796938 67.811637 
L 578.075938 93.923379 
L 578.354938 85.858825 
L 578.633938 101.667996 
L 578.912938 53.960539 
L 579.191938 94.42328 
L 579.470938 56.753831 
L 579.749938 61.77745 
L 580.307938 117.084937 
L 580.586938 93.794174 
L 580.865938 35.870282 
L 581.144938 118.930725 
L 581.423938 127.08603 
L 581.702938 106.097887 
L 581.981938 124.652667 
L 582.260938 74.224211 
L 582.539938 124.500389 
L 582.818938 55.757106 
L 583.097938 99.349995 
L 583.376938 40.13559 
L 583.655938 48.820021 
L 583.934938 106.114806 
L 584.213938 111.873664 
L 584.492938 114.367015 
L 584.771938 107.340717 
L 585.050938 63.604779 
L 585.329938 124.051248 
L 585.887938 38.080613 
L 586.166938 41.409183 
L 586.445938 115.300676 
L 586.724938 94.849349 
L 587.003938 82.591781 
L 587.282938 120.170479 
L 587.561938 51.579473 
L 587.840938 98.639367 
L 588.119938 33.144669 
L 588.677938 117.863245 
L 588.956938 32.500182 
L 589.235938 127.259842 
L 589.514938 57.273728 
L 589.793938 69.977361 
L 590.072938 120.093571 
L 590.351938 61.712847 
L 590.630938 127.362898 
L 590.909938 116.012842 
L 591.188938 85.186651 
L 591.467938 127.950474 
L 591.746938 83.36086 
L 592.025938 77.931168 
L 592.304938 63.310991 
L 592.583938 81.725799 
L 592.862938 71.123288 
L 593.141938 80.487583 
L 593.420938 37.303844 
L 593.699938 116.428145 
L 593.978938 30.986636 
L 594.257938 71.535513 
L 594.536938 65.559776 
L 594.815938 40.204807 
L 595.094938 37.419206 
L 595.373938 77.909633 
L 595.652938 69.029857 
L 595.931938 121.319482 
L 596.210938 86.810944 
L 596.489938 100.22982 
L 596.768938 120.192013 
L 597.047938 126.072385 
L 597.326938 48.740036 
L 597.605938 44.062503 
L 597.884938 54.220487 
L 598.163938 53.739045 
L 598.442938 116.677326 
L 598.721938 127.053729 
L 599.000938 73.76584 
L 599.279938 58.921093 
L 599.558938 86.304891 
L 599.837938 85.761922 
L 600.116938 49.944413 
L 600.395938 119.447546 
L 600.674938 116.474289 
L 600.953938 103.036956 
L 601.232938 57.795163 
L 601.511938 60.991452 
L 601.790938 60.402338 
L 602.069938 46.174392 
L 602.627938 108.068265 
L 602.906938 60.562306 
L 603.185938 36.485545 
L 603.464938 99.442284 
L 603.743938 86.215678 
L 604.022938 106.563948 
L 604.301938 67.294816 
L 604.580938 106.660852 
L 604.859938 118.416981 
L 605.138938 116.014381 
L 605.417938 114.953053 
L 605.696938 49.486042 
L 605.975938 104.831984 
L 606.254938 96.827418 
L 606.533938 27.62115 
L 607.091938 112.858084 
L 607.370938 48.893852 
L 607.649938 106.250164 
L 607.928938 33.52767 
L 608.207938 83.854608 
L 608.486938 52.505443 
L 608.765938 42.359764 
L 609.044938 117.90016 
L 609.323938 103.70913 
L 609.602938 50.827315 
L 609.881938 61.949723 
L 610.160938 95.116988 
L 610.439938 93.049706 
L 610.439938 93.049706 
" style="fill:none;stroke:#1f77b4;stroke-linecap:square;stroke-width:1.5;"/>
   </g>
   <g id="patch_3">
    <path d="M 52.160938 133.198125 
L 52.160938 22.318125 
" style="fill:none;stroke:#000000;stroke-linecap:square;stroke-linejoin:miter;stroke-width:0.8;"/>
   </g>
   <g id="patch_4">
    <path d="M 610.160938 133.198125 
L 610.160938 22.318125 
" style="fill:none;stroke:#000000;stroke-linecap:square;stroke-linejoin:miter;stroke-width:0.8;"/>
   </g>
   <g id="patch_5">
    <path d="M 52.160938 133.198125 
L 610.160938 133.198125 
" style="fill:none;stroke:#000000;stroke-linecap:square;stroke-linejoin:miter;stroke-width:0.8;"/>
   </g>
   <g id="patch_6">
    <path d="M 52.160938 22.318125 
L 610.160938 22.318125 
" style="fill:none;stroke:#000000;stroke-linecap:square;stroke-linejoin:miter;stroke-width:0.8;"/>
   </g>
   <g id="text_17">
    <!-- noise -->
    <defs>
     <path d="M 30.609375 48.390625 
Q 23.390625 48.390625 19.1875 42.75 
Q 14.984375 37.109375 14.984375 27.296875 
Q 14.984375 17.484375 19.15625 11.84375 
Q 23.34375 6.203125 30.609375 6.203125 
Q 37.796875 6.203125 41.984375 11.859375 
Q 46.1875 17.53125 46.1875 27.296875 
Q 46.1875 37.015625 41.984375 42.703125 
Q 37.796875 48.390625 30.609375 48.390625 
z
M 30.609375 56 
Q 42.328125 56 49.015625 48.375 
Q 55.71875 40.765625 55.71875 27.296875 
Q 55.71875 13.875 49.015625 6.21875 
Q 42.328125 -1.421875 30.609375 -1.421875 
Q 18.84375 -1.421875 12.171875 6.21875 
Q 5.515625 13.875 5.515625 27.296875 
Q 5.515625 40.765625 12.171875 48.375 
Q 18.84375 56 30.609375 56 
z
" id="DejaVuSans-111"/>
     <path d="M 9.421875 54.6875 
L 18.40625 54.6875 
L 18.40625 0 
L 9.421875 0 
z
M 9.421875 75.984375 
L 18.40625 75.984375 
L 18.40625 64.59375 
L 9.421875 64.59375 
z
" id="DejaVuSans-105"/>
     <path d="M 44.28125 53.078125 
L 44.28125 44.578125 
Q 40.484375 46.53125 36.375 47.5 
Q 32.28125 48.484375 27.875 48.484375 
Q 21.1875 48.484375 17.84375 46.4375 
Q 14.5 44.390625 14.5 40.28125 
Q 14.5 37.15625 16.890625 35.375 
Q 19.28125 33.59375 26.515625 31.984375 
L 29.59375 31.296875 
Q 39.15625 29.25 43.1875 25.515625 
Q 47.21875 21.78125 47.21875 15.09375 
Q 47.21875 7.46875 41.1875 3.015625 
Q 35.15625 -1.421875 24.609375 -1.421875 
Q 20.21875 -1.421875 15.453125 -0.5625 
Q 10.6875 0.296875 5.421875 2 
L 5.421875 11.28125 
Q 10.40625 8.6875 15.234375 7.390625 
Q 20.0625 6.109375 24.8125 6.109375 
Q 31.15625 6.109375 34.5625 8.28125 
Q 37.984375 10.453125 37.984375 14.40625 
Q 37.984375 18.0625 35.515625 20.015625 
Q 33.0625 21.96875 24.703125 23.78125 
L 21.578125 24.515625 
Q 13.234375 26.265625 9.515625 29.90625 
Q 5.8125 33.546875 5.8125 39.890625 
Q 5.8125 47.609375 11.28125 51.796875 
Q 16.75 56 26.8125 56 
Q 31.78125 56 36.171875 55.265625 
Q 40.578125 54.546875 44.28125 53.078125 
z
" id="DejaVuSans-115"/>
    </defs>
    <g transform="translate(315.202812 16.318125)scale(0.12 -0.12)">
     <use xlink:href="#DejaVuSans-110"/>
     <use x="63.378906" xlink:href="#DejaVuSans-111"/>
     <use x="124.560547" xlink:href="#DejaVuSans-105"/>
     <use x="152.34375" xlink:href="#DejaVuSans-115"/>
     <use x="204.443359" xlink:href="#DejaVuSans-101"/>
    </g>
   </g>
  </g>
 </g>
 <defs>
  <clipPath id="pcfddbe8477">
   <rect height="110.88" width="558" x="52.160938" y="22.318125"/>
  </clipPath>
 </defs>
</svg>
