<?xml version="1.0" encoding="utf-8" standalone="no"?>
<!DOCTYPE svg PUBLIC "-//W3C//DTD SVG 1.1//EN"
  "http://www.w3.org/Graphics/SVG/1.1/DTD/svg11.dtd">
<!-- Created with matplotlib (https://matplotlib.org/) -->
<svg height="170.754375pt" version="1.1" viewBox="0 0 630.085938 170.754375" width="630.085938pt" xmlns="http://www.w3.org/2000/svg" xmlns:xlink="http://www.w3.org/1999/xlink">
 <defs>
  <style type="text/css">
*{stroke-linecap:butt;stroke-linejoin:round;}
  </style>
 </defs>
 <g id="figure_1">
  <g id="patch_1">
   <path d="M 0 170.754375 
L 630.085938 170.754375 
L 630.085938 0 
L 0 0 
z
" style="fill:#ffffff;"/>
  </g>
  <g id="axes_1">
   <g id="patch_2">
    <path d="M 52.160938 133.198125 
L 610.160938 133.198125 
L 610.160938 22.318125 
L 52.160938 22.318125 
z
" style="fill:#ffffff;"/>
   </g>
   <g id="matplotlib.axis_1">
    <g id="xtick_1">
     <g id="line2d_1">
      <defs>
       <path d="M 0 0 
L 0 3.5 
" id="m4290f6ef7c" style="stroke:#000000;stroke-width:0.8;"/>
      </defs>
      <g>
       <use style="stroke:#000000;stroke-width:0.8;" x="52.160938" xlink:href="#m4290f6ef7c" y="133.198125"/>
      </g>
     </g>
     <g id="text_1">
      <!-- 0 -->
      <defs>
       <path d="M 31.78125 66.40625 
Q 24.171875 66.40625 20.328125 58.90625 
Q 16.5 51.421875 16.5 36.375 
Q 16.5 21.390625 20.328125 13.890625 
Q 24.171875 6.390625 31.78125 6.390625 
Q 39.453125 6.390625 43.28125 13.890625 
Q 47.125 21.390625 47.125 36.375 
Q 47.125 51.421875 43.28125 58.90625 
Q 39.453125 66.40625 31.78125 66.40625 
z
M 31.78125 74.21875 
Q 44.046875 74.21875 50.515625 64.515625 
Q 56.984375 54.828125 56.984375 36.375 
Q 56.984375 17.96875 50.515625 8.265625 
Q 44.046875 -1.421875 31.78125 -1.421875 
Q 19.53125 -1.421875 13.0625 8.265625 
Q 6.59375 17.96875 6.59375 36.375 
Q 6.59375 54.828125 13.0625 64.515625 
Q 19.53125 74.21875 31.78125 74.21875 
z
" id="DejaVuSans-48"/>
      </defs>
      <g transform="translate(48.979688 147.796563)scale(0.1 -0.1)">
       <use xlink:href="#DejaVuSans-48"/>
      </g>
     </g>
    </g>
    <g id="xtick_2">
     <g id="line2d_2">
      <g>
       <use style="stroke:#000000;stroke-width:0.8;" x="121.910938" xlink:href="#m4290f6ef7c" y="133.198125"/>
      </g>
     </g>
     <g id="text_2">
      <!-- 250 -->
      <defs>
       <path d="M 19.1875 8.296875 
L 53.609375 8.296875 
L 53.609375 0 
L 7.328125 0 
L 7.328125 8.296875 
Q 12.9375 14.109375 22.625 23.890625 
Q 32.328125 33.6875 34.8125 36.53125 
Q 39.546875 41.84375 41.421875 45.53125 
Q 43.3125 49.21875 43.3125 52.78125 
Q 43.3125 58.59375 39.234375 62.25 
Q 35.15625 65.921875 28.609375 65.921875 
Q 23.96875 65.921875 18.8125 64.3125 
Q 13.671875 62.703125 7.8125 59.421875 
L 7.8125 69.390625 
Q 13.765625 71.78125 18.9375 73 
Q 24.125 74.21875 28.421875 74.21875 
Q 39.75 74.21875 46.484375 68.546875 
Q 53.21875 62.890625 53.21875 53.421875 
Q 53.21875 48.921875 51.53125 44.890625 
Q 49.859375 40.875 45.40625 35.40625 
Q 44.1875 33.984375 37.640625 27.21875 
Q 31.109375 20.453125 19.1875 8.296875 
z
" id="DejaVuSans-50"/>
       <path d="M 10.796875 72.90625 
L 49.515625 72.90625 
L 49.515625 64.59375 
L 19.828125 64.59375 
L 19.828125 46.734375 
Q 21.96875 47.46875 24.109375 47.828125 
Q 26.265625 48.1875 28.421875 48.1875 
Q 40.625 48.1875 47.75 41.5 
Q 54.890625 34.8125 54.890625 23.390625 
Q 54.890625 11.625 47.5625 5.09375 
Q 40.234375 -1.421875 26.90625 -1.421875 
Q 22.3125 -1.421875 17.546875 -0.640625 
Q 12.796875 0.140625 7.71875 1.703125 
L 7.71875 11.625 
Q 12.109375 9.234375 16.796875 8.0625 
Q 21.484375 6.890625 26.703125 6.890625 
Q 35.15625 6.890625 40.078125 11.328125 
Q 45.015625 15.765625 45.015625 23.390625 
Q 45.015625 31 40.078125 35.4375 
Q 35.15625 39.890625 26.703125 39.890625 
Q 22.75 39.890625 18.8125 39.015625 
Q 14.890625 38.140625 10.796875 36.28125 
z
" id="DejaVuSans-53"/>
      </defs>
      <g transform="translate(112.367188 147.796563)scale(0.1 -0.1)">
       <use xlink:href="#DejaVuSans-50"/>
       <use x="63.623047" xlink:href="#DejaVuSans-53"/>
       <use x="127.246094" xlink:href="#DejaVuSans-48"/>
      </g>
     </g>
    </g>
    <g id="xtick_3">
     <g id="line2d_3">
      <g>
       <use style="stroke:#000000;stroke-width:0.8;" x="191.660938" xlink:href="#m4290f6ef7c" y="133.198125"/>
      </g>
     </g>
     <g id="text_3">
      <!-- 500 -->
      <g transform="translate(182.117188 147.796563)scale(0.1 -0.1)">
       <use xlink:href="#DejaVuSans-53"/>
       <use x="63.623047" xlink:href="#DejaVuSans-48"/>
       <use x="127.246094" xlink:href="#DejaVuSans-48"/>
      </g>
     </g>
    </g>
    <g id="xtick_4">
     <g id="line2d_4">
      <g>
       <use style="stroke:#000000;stroke-width:0.8;" x="261.410938" xlink:href="#m4290f6ef7c" y="133.198125"/>
      </g>
     </g>
     <g id="text_4">
      <!-- 750 -->
      <defs>
       <path d="M 8.203125 72.90625 
L 55.078125 72.90625 
L 55.078125 68.703125 
L 28.609375 0 
L 18.3125 0 
L 43.21875 64.59375 
L 8.203125 64.59375 
z
" id="DejaVuSans-55"/>
      </defs>
      <g transform="translate(251.867188 147.796563)scale(0.1 -0.1)">
       <use xlink:href="#DejaVuSans-55"/>
       <use x="63.623047" xlink:href="#DejaVuSans-53"/>
       <use x="127.246094" xlink:href="#DejaVuSans-48"/>
      </g>
     </g>
    </g>
    <g id="xtick_5">
     <g id="line2d_5">
      <g>
       <use style="stroke:#000000;stroke-width:0.8;" x="331.160937" xlink:href="#m4290f6ef7c" y="133.198125"/>
      </g>
     </g>
     <g id="text_5">
      <!-- 1000 -->
      <defs>
       <path d="M 12.40625 8.296875 
L 28.515625 8.296875 
L 28.515625 63.921875 
L 10.984375 60.40625 
L 10.984375 69.390625 
L 28.421875 72.90625 
L 38.28125 72.90625 
L 38.28125 8.296875 
L 54.390625 8.296875 
L 54.390625 0 
L 12.40625 0 
z
" id="DejaVuSans-49"/>
      </defs>
      <g transform="translate(318.435937 147.796563)scale(0.1 -0.1)">
       <use xlink:href="#DejaVuSans-49"/>
       <use x="63.623047" xlink:href="#DejaVuSans-48"/>
       <use x="127.246094" xlink:href="#DejaVuSans-48"/>
       <use x="190.869141" xlink:href="#DejaVuSans-48"/>
      </g>
     </g>
    </g>
    <g id="xtick_6">
     <g id="line2d_6">
      <g>
       <use style="stroke:#000000;stroke-width:0.8;" x="400.910938" xlink:href="#m4290f6ef7c" y="133.198125"/>
      </g>
     </g>
     <g id="text_6">
      <!-- 1250 -->
      <g transform="translate(388.185938 147.796563)scale(0.1 -0.1)">
       <use xlink:href="#DejaVuSans-49"/>
       <use x="63.623047" xlink:href="#DejaVuSans-50"/>
       <use x="127.246094" xlink:href="#DejaVuSans-53"/>
       <use x="190.869141" xlink:href="#DejaVuSans-48"/>
      </g>
     </g>
    </g>
    <g id="xtick_7">
     <g id="line2d_7">
      <g>
       <use style="stroke:#000000;stroke-width:0.8;" x="470.660938" xlink:href="#m4290f6ef7c" y="133.198125"/>
      </g>
     </g>
     <g id="text_7">
      <!-- 1500 -->
      <g transform="translate(457.935938 147.796563)scale(0.1 -0.1)">
       <use xlink:href="#DejaVuSans-49"/>
       <use x="63.623047" xlink:href="#DejaVuSans-53"/>
       <use x="127.246094" xlink:href="#DejaVuSans-48"/>
       <use x="190.869141" xlink:href="#DejaVuSans-48"/>
      </g>
     </g>
    </g>
    <g id="xtick_8">
     <g id="line2d_8">
      <g>
       <use style="stroke:#000000;stroke-width:0.8;" x="540.410938" xlink:href="#m4290f6ef7c" y="133.198125"/>
      </g>
     </g>
     <g id="text_8">
      <!-- 1750 -->
      <g transform="translate(527.685938 147.796563)scale(0.1 -0.1)">
       <use xlink:href="#DejaVuSans-49"/>
       <use x="63.623047" xlink:href="#DejaVuSans-55"/>
       <use x="127.246094" xlink:href="#DejaVuSans-53"/>
       <use x="190.869141" xlink:href="#DejaVuSans-48"/>
      </g>
     </g>
    </g>
    <g id="xtick_9">
     <g id="line2d_9">
      <g>
       <use style="stroke:#000000;stroke-width:0.8;" x="610.160938" xlink:href="#m4290f6ef7c" y="133.198125"/>
      </g>
     </g>
     <g id="text_9">
      <!-- 2000 -->
      <g transform="translate(597.435938 147.796563)scale(0.1 -0.1)">
       <use xlink:href="#DejaVuSans-50"/>
       <use x="63.623047" xlink:href="#DejaVuSans-48"/>
       <use x="127.246094" xlink:href="#DejaVuSans-48"/>
       <use x="190.869141" xlink:href="#DejaVuSans-48"/>
      </g>
     </g>
    </g>
    <g id="text_10">
     <!-- Array Index -->
     <defs>
      <path d="M 34.1875 63.1875 
L 20.796875 26.90625 
L 47.609375 26.90625 
z
M 28.609375 72.90625 
L 39.796875 72.90625 
L 67.578125 0 
L 57.328125 0 
L 50.6875 18.703125 
L 17.828125 18.703125 
L 11.1875 0 
L 0.78125 0 
z
" id="DejaVuSans-65"/>
      <path d="M 41.109375 46.296875 
Q 39.59375 47.171875 37.8125 47.578125 
Q 36.03125 48 33.890625 48 
Q 26.265625 48 22.1875 43.046875 
Q 18.109375 38.09375 18.109375 28.8125 
L 18.109375 0 
L 9.078125 0 
L 9.078125 54.6875 
L 18.109375 54.6875 
L 18.109375 46.1875 
Q 20.953125 51.171875 25.484375 53.578125 
Q 30.03125 56 36.53125 56 
Q 37.453125 56 38.578125 55.875 
Q 39.703125 55.765625 41.0625 55.515625 
z
" id="DejaVuSans-114"/>
      <path d="M 34.28125 27.484375 
Q 23.390625 27.484375 19.1875 25 
Q 14.984375 22.515625 14.984375 16.5 
Q 14.984375 11.71875 18.140625 8.90625 
Q 21.296875 6.109375 26.703125 6.109375 
Q 34.1875 6.109375 38.703125 11.40625 
Q 43.21875 16.703125 43.21875 25.484375 
L 43.21875 27.484375 
z
M 52.203125 31.203125 
L 52.203125 0 
L 43.21875 0 
L 43.21875 8.296875 
Q 40.140625 3.328125 35.546875 0.953125 
Q 30.953125 -1.421875 24.3125 -1.421875 
Q 15.921875 -1.421875 10.953125 3.296875 
Q 6 8.015625 6 15.921875 
Q 6 25.140625 12.171875 29.828125 
Q 18.359375 34.515625 30.609375 34.515625 
L 43.21875 34.515625 
L 43.21875 35.40625 
Q 43.21875 41.609375 39.140625 45 
Q 35.0625 48.390625 27.6875 48.390625 
Q 23 48.390625 18.546875 47.265625 
Q 14.109375 46.140625 10.015625 43.890625 
L 10.015625 52.203125 
Q 14.9375 54.109375 19.578125 55.046875 
Q 24.21875 56 28.609375 56 
Q 40.484375 56 46.34375 49.84375 
Q 52.203125 43.703125 52.203125 31.203125 
z
" id="DejaVuSans-97"/>
      <path d="M 32.171875 -5.078125 
Q 28.375 -14.84375 24.75 -17.8125 
Q 21.140625 -20.796875 15.09375 -20.796875 
L 7.90625 -20.796875 
L 7.90625 -13.28125 
L 13.1875 -13.28125 
Q 16.890625 -13.28125 18.9375 -11.515625 
Q 21 -9.765625 23.484375 -3.21875 
L 25.09375 0.875 
L 2.984375 54.6875 
L 12.5 54.6875 
L 29.59375 11.921875 
L 46.6875 54.6875 
L 56.203125 54.6875 
z
" id="DejaVuSans-121"/>
      <path id="DejaVuSans-32"/>
      <path d="M 9.8125 72.90625 
L 19.671875 72.90625 
L 19.671875 0 
L 9.8125 0 
z
" id="DejaVuSans-73"/>
      <path d="M 54.890625 33.015625 
L 54.890625 0 
L 45.90625 0 
L 45.90625 32.71875 
Q 45.90625 40.484375 42.875 44.328125 
Q 39.84375 48.1875 33.796875 48.1875 
Q 26.515625 48.1875 22.3125 43.546875 
Q 18.109375 38.921875 18.109375 30.90625 
L 18.109375 0 
L 9.078125 0 
L 9.078125 54.6875 
L 18.109375 54.6875 
L 18.109375 46.1875 
Q 21.34375 51.125 25.703125 53.5625 
Q 30.078125 56 35.796875 56 
Q 45.21875 56 50.046875 50.171875 
Q 54.890625 44.34375 54.890625 33.015625 
z
" id="DejaVuSans-110"/>
      <path d="M 45.40625 46.390625 
L 45.40625 75.984375 
L 54.390625 75.984375 
L 54.390625 0 
L 45.40625 0 
L 45.40625 8.203125 
Q 42.578125 3.328125 38.25 0.953125 
Q 33.9375 -1.421875 27.875 -1.421875 
Q 17.96875 -1.421875 11.734375 6.484375 
Q 5.515625 14.40625 5.515625 27.296875 
Q 5.515625 40.1875 11.734375 48.09375 
Q 17.96875 56 27.875 56 
Q 33.9375 56 38.25 53.625 
Q 42.578125 51.265625 45.40625 46.390625 
z
M 14.796875 27.296875 
Q 14.796875 17.390625 18.875 11.75 
Q 22.953125 6.109375 30.078125 6.109375 
Q 37.203125 6.109375 41.296875 11.75 
Q 45.40625 17.390625 45.40625 27.296875 
Q 45.40625 37.203125 41.296875 42.84375 
Q 37.203125 48.484375 30.078125 48.484375 
Q 22.953125 48.484375 18.875 42.84375 
Q 14.796875 37.203125 14.796875 27.296875 
z
" id="DejaVuSans-100"/>
      <path d="M 56.203125 29.59375 
L 56.203125 25.203125 
L 14.890625 25.203125 
Q 15.484375 15.921875 20.484375 11.0625 
Q 25.484375 6.203125 34.421875 6.203125 
Q 39.59375 6.203125 44.453125 7.46875 
Q 49.3125 8.734375 54.109375 11.28125 
L 54.109375 2.78125 
Q 49.265625 0.734375 44.1875 -0.34375 
Q 39.109375 -1.421875 33.890625 -1.421875 
Q 20.796875 -1.421875 13.15625 6.1875 
Q 5.515625 13.8125 5.515625 26.8125 
Q 5.515625 40.234375 12.765625 48.109375 
Q 20.015625 56 32.328125 56 
Q 43.359375 56 49.78125 48.890625 
Q 56.203125 41.796875 56.203125 29.59375 
z
M 47.21875 32.234375 
Q 47.125 39.59375 43.09375 43.984375 
Q 39.0625 48.390625 32.421875 48.390625 
Q 24.90625 48.390625 20.390625 44.140625 
Q 15.875 39.890625 15.1875 32.171875 
z
" id="DejaVuSans-101"/>
      <path d="M 54.890625 54.6875 
L 35.109375 28.078125 
L 55.90625 0 
L 45.3125 0 
L 29.390625 21.484375 
L 13.484375 0 
L 2.875 0 
L 24.125 28.609375 
L 4.6875 54.6875 
L 15.28125 54.6875 
L 29.78125 35.203125 
L 44.28125 54.6875 
z
" id="DejaVuSans-120"/>
     </defs>
     <g transform="translate(302.164844 161.474688)scale(0.1 -0.1)">
      <use xlink:href="#DejaVuSans-65"/>
      <use x="68.408203" xlink:href="#DejaVuSans-114"/>
      <use x="109.505859" xlink:href="#DejaVuSans-114"/>
      <use x="150.619141" xlink:href="#DejaVuSans-97"/>
      <use x="211.898438" xlink:href="#DejaVuSans-121"/>
      <use x="271.078125" xlink:href="#DejaVuSans-32"/>
      <use x="302.865234" xlink:href="#DejaVuSans-73"/>
      <use x="332.357422" xlink:href="#DejaVuSans-110"/>
      <use x="395.736328" xlink:href="#DejaVuSans-100"/>
      <use x="459.212891" xlink:href="#DejaVuSans-101"/>
      <use x="520.720703" xlink:href="#DejaVuSans-120"/>
     </g>
    </g>
   </g>
   <g id="matplotlib.axis_2">
    <g id="ytick_1">
     <g id="line2d_10">
      <defs>
       <path d="M 0 0 
L -3.5 0 
" id="mde4194615e" style="stroke:#000000;stroke-width:0.8;"/>
      </defs>
      <g>
       <use style="stroke:#000000;stroke-width:0.8;" x="52.160938" xlink:href="#mde4194615e" y="109.258606"/>
      </g>
     </g>
     <g id="text_11">
      <!-- −0.5 -->
      <defs>
       <path d="M 10.59375 35.5 
L 73.1875 35.5 
L 73.1875 27.203125 
L 10.59375 27.203125 
z
" id="DejaVuSans-8722"/>
       <path d="M 10.6875 12.40625 
L 21 12.40625 
L 21 0 
L 10.6875 0 
z
" id="DejaVuSans-46"/>
      </defs>
      <g transform="translate(20.878125 113.057824)scale(0.1 -0.1)">
       <use xlink:href="#DejaVuSans-8722"/>
       <use x="83.789062" xlink:href="#DejaVuSans-48"/>
       <use x="147.412109" xlink:href="#DejaVuSans-46"/>
       <use x="179.199219" xlink:href="#DejaVuSans-53"/>
      </g>
     </g>
    </g>
    <g id="ytick_2">
     <g id="line2d_11">
      <g>
       <use style="stroke:#000000;stroke-width:0.8;" x="52.160938" xlink:href="#mde4194615e" y="77.758125"/>
      </g>
     </g>
     <g id="text_12">
      <!-- 0.0 -->
      <g transform="translate(29.257813 81.557344)scale(0.1 -0.1)">
       <use xlink:href="#DejaVuSans-48"/>
       <use x="63.623047" xlink:href="#DejaVuSans-46"/>
       <use x="95.410156" xlink:href="#DejaVuSans-48"/>
      </g>
     </g>
    </g>
    <g id="ytick_3">
     <g id="line2d_12">
      <g>
       <use style="stroke:#000000;stroke-width:0.8;" x="52.160938" xlink:href="#mde4194615e" y="46.257644"/>
      </g>
     </g>
     <g id="text_13">
      <!-- 0.5 -->
      <g transform="translate(29.257813 50.056863)scale(0.1 -0.1)">
       <use xlink:href="#DejaVuSans-48"/>
       <use x="63.623047" xlink:href="#DejaVuSans-46"/>
       <use x="95.410156" xlink:href="#DejaVuSans-53"/>
      </g>
     </g>
    </g>
    <g id="text_14">
     <!-- Value -->
     <defs>
      <path d="M 28.609375 0 
L 0.78125 72.90625 
L 11.078125 72.90625 
L 34.1875 11.53125 
L 57.328125 72.90625 
L 67.578125 72.90625 
L 39.796875 0 
z
" id="DejaVuSans-86"/>
      <path d="M 9.421875 75.984375 
L 18.40625 75.984375 
L 18.40625 0 
L 9.421875 0 
z
" id="DejaVuSans-108"/>
      <path d="M 8.5 21.578125 
L 8.5 54.6875 
L 17.484375 54.6875 
L 17.484375 21.921875 
Q 17.484375 14.15625 20.5 10.265625 
Q 23.53125 6.390625 29.59375 6.390625 
Q 36.859375 6.390625 41.078125 11.03125 
Q 45.3125 15.671875 45.3125 23.6875 
L 45.3125 54.6875 
L 54.296875 54.6875 
L 54.296875 0 
L 45.3125 0 
L 45.3125 8.40625 
Q 42.046875 3.421875 37.71875 1 
Q 33.40625 -1.421875 27.6875 -1.421875 
Q 18.265625 -1.421875 13.375 4.4375 
Q 8.5 10.296875 8.5 21.578125 
z
M 31.109375 56 
z
" id="DejaVuSans-117"/>
     </defs>
     <g transform="translate(14.798438 91.871406)rotate(-90)scale(0.1 -0.1)">
      <use xlink:href="#DejaVuSans-86"/>
      <use x="68.298828" xlink:href="#DejaVuSans-97"/>
      <use x="129.578125" xlink:href="#DejaVuSans-108"/>
      <use x="157.361328" xlink:href="#DejaVuSans-117"/>
      <use x="220.740234" xlink:href="#DejaVuSans-101"/>
     </g>
    </g>
   </g>
   <g id="line2d_13">
    <path clip-path="url(#p2bcb6fa369)" d="M 52.160938 77.758125 
L 53.834938 48.134138 
L 54.671938 36.984767 
L 55.229938 31.71482 
L 55.787938 28.459796 
L 56.066938 27.634985 
L 56.345938 27.358125 
L 56.624938 27.634985 
L 56.903938 28.459796 
L 57.461938 31.71482 
L 58.019938 36.984767 
L 58.856938 48.134138 
L 59.972938 67.279755 
L 62.204938 107.382112 
L 63.041938 118.531483 
L 63.599938 123.80143 
L 64.157938 127.056454 
L 64.436938 127.881265 
L 64.715938 128.158125 
L 64.994938 127.881265 
L 65.273938 127.056454 
L 65.831938 123.80143 
L 66.389938 118.531483 
L 67.226938 107.382112 
L 68.342938 88.236495 
L 70.574938 48.134138 
L 71.411938 36.984767 
L 71.969938 31.71482 
L 72.527938 28.459796 
L 72.806938 27.634985 
L 73.085938 27.358125 
L 73.364938 27.634985 
L 73.643938 28.459796 
L 74.201938 31.71482 
L 74.759938 36.984767 
L 75.596938 48.134138 
L 76.712938 67.279755 
L 78.944938 107.382112 
L 79.781938 118.531483 
L 80.339938 123.80143 
L 80.897938 127.056454 
L 81.176938 127.881265 
L 81.455938 128.158125 
L 81.734938 127.881265 
L 82.013938 127.056454 
L 82.571938 123.80143 
L 83.129938 118.531483 
L 83.966938 107.382112 
L 85.082938 88.236495 
L 87.314938 48.134138 
L 88.151938 36.984767 
L 88.709938 31.71482 
L 89.267938 28.459796 
L 89.546938 27.634985 
L 89.825938 27.358125 
L 90.104938 27.634985 
L 90.383938 28.459796 
L 90.941938 31.71482 
L 91.499938 36.984767 
L 92.336938 48.134138 
L 93.452938 67.279755 
L 95.684938 107.382112 
L 96.521938 118.531483 
L 97.079938 123.80143 
L 97.637938 127.056454 
L 97.916938 127.881265 
L 98.195938 128.158125 
L 98.474938 127.881265 
L 98.753938 127.056454 
L 99.311938 123.80143 
L 99.869938 118.531483 
L 100.706938 107.382112 
L 101.822938 88.236495 
L 104.054938 48.134138 
L 104.891938 36.984767 
L 105.449938 31.71482 
L 106.007938 28.459796 
L 106.286938 27.634985 
L 106.565938 27.358125 
L 106.844938 27.634985 
L 107.123938 28.459796 
L 107.681938 31.71482 
L 108.239938 36.984767 
L 109.076938 48.134138 
L 110.192938 67.279755 
L 112.424938 107.382112 
L 113.261938 118.531483 
L 113.819938 123.80143 
L 114.377938 127.056454 
L 114.656938 127.881265 
L 114.935938 128.158125 
L 115.214938 127.881265 
L 115.493938 127.056454 
L 116.051938 123.80143 
L 116.609938 118.531483 
L 117.446938 107.382112 
L 118.562938 88.236495 
L 120.794938 48.134138 
L 121.631938 36.984767 
L 122.189938 31.71482 
L 122.747938 28.459796 
L 123.026938 27.634985 
L 123.305938 27.358125 
L 123.584938 27.634985 
L 123.863938 28.459796 
L 124.421938 31.71482 
L 124.979938 36.984767 
L 125.816938 48.134138 
L 126.932938 67.279755 
L 129.164938 107.382112 
L 130.001938 118.531483 
L 130.559938 123.80143 
L 131.117938 127.056454 
L 131.396938 127.881265 
L 131.675938 128.158125 
L 131.954938 127.881265 
L 132.233938 127.056454 
L 132.791938 123.80143 
L 133.349938 118.531483 
L 134.186938 107.382112 
L 135.302938 88.236495 
L 137.534938 48.134138 
L 138.371938 36.984767 
L 138.929938 31.71482 
L 139.487938 28.459796 
L 139.766938 27.634985 
L 140.045938 27.358125 
L 140.324938 27.634985 
L 140.603938 28.459796 
L 141.161938 31.71482 
L 141.719938 36.984767 
L 142.556938 48.134138 
L 143.672938 67.279755 
L 145.904938 107.382112 
L 146.741938 118.531483 
L 147.299938 123.80143 
L 147.857938 127.056454 
L 148.136938 127.881265 
L 148.415938 128.158125 
L 148.694938 127.881265 
L 148.973938 127.056454 
L 149.531938 123.80143 
L 150.089938 118.531483 
L 150.926938 107.382112 
L 152.042938 88.236495 
L 154.274938 48.134138 
L 155.111938 36.984767 
L 155.669938 31.71482 
L 156.227938 28.459796 
L 156.506938 27.634985 
L 156.785938 27.358125 
L 157.064938 27.634985 
L 157.343938 28.459796 
L 157.901938 31.71482 
L 158.459938 36.984767 
L 159.296938 48.134138 
L 160.412938 67.279755 
L 162.644938 107.382112 
L 163.481938 118.531483 
L 164.039938 123.80143 
L 164.597938 127.056454 
L 164.876938 127.881265 
L 165.155938 128.158125 
L 165.434938 127.881265 
L 165.713938 127.056454 
L 166.271938 123.80143 
L 166.829938 118.531483 
L 167.666938 107.382112 
L 168.782938 88.236495 
L 171.014938 48.134138 
L 171.851938 36.984767 
L 172.409938 31.71482 
L 172.967938 28.459796 
L 173.246938 27.634985 
L 173.525938 27.358125 
L 173.804938 27.634985 
L 174.083938 28.459796 
L 174.641938 31.71482 
L 175.199938 36.984767 
L 176.036938 48.134138 
L 177.152938 67.279755 
L 179.384938 107.382112 
L 180.221938 118.531483 
L 180.779938 123.80143 
L 181.337938 127.056454 
L 181.616938 127.881265 
L 181.895938 128.158125 
L 182.174938 127.881265 
L 182.453938 127.056454 
L 183.011938 123.80143 
L 183.569938 118.531483 
L 184.406938 107.382112 
L 185.522938 88.236495 
L 187.754938 48.134138 
L 188.591938 36.984767 
L 189.149938 31.71482 
L 189.707938 28.459796 
L 189.986938 27.634985 
L 190.265938 27.358125 
L 190.544938 27.634985 
L 190.823938 28.459796 
L 191.381938 31.71482 
L 191.939938 36.984767 
L 192.776938 48.134138 
L 193.892938 67.279755 
L 196.124938 107.382112 
L 196.961938 118.531483 
L 197.519938 123.80143 
L 198.077938 127.056454 
L 198.356938 127.881265 
L 198.635938 128.158125 
L 198.914938 127.881265 
L 199.193938 127.056454 
L 199.751938 123.80143 
L 200.309938 118.531483 
L 201.146938 107.382112 
L 202.262938 88.236495 
L 204.494938 48.134138 
L 205.331938 36.984767 
L 205.889938 31.71482 
L 206.447938 28.459796 
L 206.726938 27.634985 
L 207.005938 27.358125 
L 207.284938 27.634985 
L 207.563938 28.459796 
L 208.121938 31.71482 
L 208.679938 36.984767 
L 209.516938 48.134138 
L 210.632938 67.279755 
L 212.864938 107.382112 
L 213.701938 118.531483 
L 214.259938 123.80143 
L 214.817938 127.056454 
L 215.096938 127.881265 
L 215.375938 128.158125 
L 215.654938 127.881265 
L 215.933938 127.056454 
L 216.491938 123.80143 
L 217.049938 118.531483 
L 217.886938 107.382112 
L 219.002938 88.236495 
L 221.234938 48.134138 
L 222.071938 36.984767 
L 222.629938 31.71482 
L 223.187938 28.459796 
L 223.466938 27.634985 
L 223.745938 27.358125 
L 224.024938 27.634985 
L 224.303938 28.459796 
L 224.861938 31.71482 
L 225.419938 36.984767 
L 226.256938 48.134138 
L 227.372938 67.279755 
L 229.604938 107.382112 
L 230.441938 118.531483 
L 230.999938 123.80143 
L 231.557938 127.056454 
L 231.836938 127.881265 
L 232.115938 128.158125 
L 232.394938 127.881265 
L 232.673938 127.056454 
L 233.231938 123.80143 
L 233.789938 118.531483 
L 234.626938 107.382112 
L 235.742938 88.236495 
L 237.974938 48.134138 
L 238.811938 36.984767 
L 239.369938 31.71482 
L 239.927938 28.459796 
L 240.206938 27.634985 
L 240.485938 27.358125 
L 240.764938 27.634985 
L 241.043938 28.459796 
L 241.601938 31.71482 
L 242.159938 36.984767 
L 242.996938 48.134138 
L 244.112938 67.279755 
L 246.344938 107.382112 
L 247.181938 118.531483 
L 247.739938 123.80143 
L 248.297938 127.056454 
L 248.576938 127.881265 
L 248.855938 128.158125 
L 249.134938 127.881265 
L 249.413938 127.056454 
L 249.971938 123.80143 
L 250.529938 118.531483 
L 251.366938 107.382112 
L 252.482938 88.236495 
L 254.714938 48.134138 
L 255.551938 36.984767 
L 256.109938 31.71482 
L 256.667937 28.459796 
L 256.946938 27.634985 
L 257.225938 27.358125 
L 257.504938 27.634985 
L 257.783938 28.459796 
L 258.341938 31.71482 
L 258.899938 36.984767 
L 259.736938 48.134138 
L 260.852937 67.279755 
L 263.084938 107.382112 
L 263.921938 118.531483 
L 264.479938 123.80143 
L 265.037937 127.056454 
L 265.316937 127.881265 
L 265.595938 128.158125 
L 265.874938 127.881265 
L 266.153938 127.056454 
L 266.711938 123.80143 
L 267.269938 118.531483 
L 268.106938 107.382112 
L 269.222938 88.236495 
L 271.454938 48.134138 
L 272.291938 36.984767 
L 272.849938 31.71482 
L 273.407938 28.459796 
L 273.686937 27.634985 
L 273.965937 27.358125 
L 274.244938 27.634985 
L 274.523938 28.459796 
L 275.081938 31.71482 
L 275.639938 36.984767 
L 276.476938 48.134138 
L 277.592938 67.279755 
L 279.824938 107.382112 
L 280.661938 118.531483 
L 281.219938 123.80143 
L 281.777938 127.056454 
L 282.056938 127.881265 
L 282.335938 128.158125 
L 282.614937 127.881265 
L 282.893938 127.056454 
L 283.451938 123.80143 
L 284.009938 118.531483 
L 284.846938 107.382112 
L 285.962938 88.236495 
L 288.194938 48.134138 
L 289.031938 36.984767 
L 289.589938 31.71482 
L 290.147938 28.459796 
L 290.426938 27.634985 
L 290.705938 27.358125 
L 290.984938 27.634985 
L 291.263937 28.459796 
L 291.821938 31.71482 
L 292.379938 36.984767 
L 293.216938 48.134138 
L 294.332938 67.279755 
L 296.564938 107.382112 
L 297.401938 118.531483 
L 297.959938 123.80143 
L 298.517938 127.056454 
L 298.796938 127.881265 
L 299.075938 128.158125 
L 299.354938 127.881265 
L 299.633938 127.056454 
L 300.191938 123.80143 
L 300.749938 118.531483 
L 301.586938 107.382112 
L 302.702938 88.236495 
L 304.934938 48.134138 
L 305.771938 36.984767 
L 306.329938 31.71482 
L 306.887938 28.459796 
L 307.166938 27.634985 
L 307.445938 27.358125 
L 307.724938 27.634985 
L 308.003938 28.459796 
L 308.561937 31.71482 
L 309.119937 36.984767 
L 309.956938 48.134138 
L 311.072938 67.279755 
L 313.304937 107.382112 
L 314.141938 118.531483 
L 314.699938 123.80143 
L 315.257938 127.056454 
L 315.536938 127.881265 
L 315.815938 128.158125 
L 316.094938 127.881265 
L 316.373938 127.056454 
L 316.931938 123.80143 
L 317.489937 118.531483 
L 318.326937 107.382112 
L 319.442938 88.236495 
L 321.674937 48.134138 
L 322.511937 36.984767 
L 323.069938 31.71482 
L 323.627938 28.459796 
L 323.906938 27.634985 
L 324.185938 27.358125 
L 324.464938 27.634985 
L 324.743938 28.459796 
L 325.301938 31.71482 
L 325.859938 36.984767 
L 326.696937 48.134138 
L 327.812938 67.279755 
L 330.044938 107.382112 
L 330.881937 118.531483 
L 331.439938 123.80143 
L 331.997938 127.056454 
L 332.276938 127.881265 
L 332.555938 128.158125 
L 332.834938 127.881265 
L 333.113938 127.056454 
L 333.671938 123.80143 
L 334.229938 118.531483 
L 335.066937 107.382112 
L 336.182938 88.236495 
L 338.414938 48.134138 
L 339.251937 36.984767 
L 339.809937 31.71482 
L 340.367938 28.459796 
L 340.646938 27.634985 
L 340.925938 27.358125 
L 341.204938 27.634985 
L 341.483938 28.459796 
L 342.041938 31.71482 
L 342.599938 36.984767 
L 343.436937 48.134138 
L 344.552938 67.279755 
L 346.784938 107.382112 
L 347.621938 118.531483 
L 348.179937 123.80143 
L 348.737938 127.056454 
L 349.016938 127.881265 
L 349.295938 128.158125 
L 349.574938 127.881265 
L 349.853938 127.056454 
L 350.411938 123.80143 
L 350.969938 118.531483 
L 351.806938 107.382112 
L 352.922937 88.236495 
L 355.154938 48.134138 
L 355.991938 36.984767 
L 356.549937 31.71482 
L 357.107937 28.459796 
L 357.386938 27.634985 
L 357.665938 27.358125 
L 357.944938 27.634985 
L 358.223938 28.459796 
L 358.781938 31.71482 
L 359.339938 36.984767 
L 360.176938 48.134138 
L 361.292937 67.279755 
L 363.524938 107.382112 
L 364.361938 118.531483 
L 364.919938 123.80143 
L 365.477937 127.056454 
L 365.756937 127.881265 
L 366.035938 128.158125 
L 366.314938 127.881265 
L 366.593938 127.056454 
L 367.151938 123.80143 
L 367.709938 118.531483 
L 368.546938 107.382112 
L 369.662937 88.236495 
L 371.894938 48.134138 
L 372.731938 36.984767 
L 373.289938 31.71482 
L 373.847938 28.459796 
L 374.126937 27.634985 
L 374.405937 27.358125 
L 374.684938 27.634985 
L 374.963938 28.459796 
L 375.521938 31.71482 
L 376.079938 36.984767 
L 376.916938 48.134138 
L 378.032938 67.279755 
L 380.264938 107.382112 
L 381.101938 118.531483 
L 381.659938 123.80143 
L 382.217938 127.056454 
L 382.496938 127.881265 
L 382.775937 128.158125 
L 383.054937 127.881265 
L 383.333938 127.056454 
L 383.891938 123.80143 
L 384.449938 118.531483 
L 385.286938 107.382112 
L 386.402938 88.236495 
L 388.634938 48.134138 
L 389.471938 36.984767 
L 390.029938 31.71482 
L 390.587938 28.459796 
L 390.866938 27.634985 
L 391.145938 27.358125 
L 391.424937 27.634985 
L 391.703937 28.459796 
L 392.261938 31.71482 
L 392.819938 36.984767 
L 393.656938 48.134138 
L 394.772938 67.279755 
L 397.004938 107.382112 
L 397.841938 118.531483 
L 398.399938 123.80143 
L 398.957938 127.056454 
L 399.236938 127.881265 
L 399.515938 128.158125 
L 399.794938 127.881265 
L 400.073937 127.056454 
L 400.631938 123.80143 
L 401.189938 118.531483 
L 402.026938 107.382112 
L 403.142938 88.236495 
L 405.374938 48.134138 
L 406.211938 36.984767 
L 406.769938 31.71482 
L 407.327938 28.459796 
L 407.606938 27.634985 
L 407.885938 27.358125 
L 408.164938 27.634985 
L 408.443938 28.459796 
L 409.001937 31.71482 
L 409.559938 36.984767 
L 410.396938 48.134138 
L 411.512938 67.279755 
L 413.744938 107.382112 
L 414.581938 118.531483 
L 415.139938 123.80143 
L 415.697938 127.056454 
L 415.976938 127.881265 
L 416.255938 128.158125 
L 416.534938 127.881265 
L 416.813938 127.056454 
L 417.371938 123.80143 
L 417.929937 118.531483 
L 418.766938 107.382112 
L 419.882938 88.236495 
L 422.114937 48.134138 
L 422.951938 36.984767 
L 423.509938 31.71482 
L 424.067938 28.459796 
L 424.346938 27.634985 
L 424.625938 27.358125 
L 424.904938 27.634985 
L 425.183938 28.459796 
L 425.741938 31.71482 
L 426.299937 36.984767 
L 427.136938 48.134138 
L 428.252938 67.279755 
L 430.484938 107.382112 
L 431.321938 118.531483 
L 431.879938 123.80143 
L 432.437938 127.056454 
L 432.716938 127.881265 
L 432.995938 128.158125 
L 433.274938 127.881265 
L 433.553938 127.056454 
L 434.111938 123.80143 
L 434.669938 118.531483 
L 435.506938 107.382112 
L 436.622938 88.236495 
L 438.854938 48.134138 
L 439.691938 36.984767 
L 440.249938 31.71482 
L 440.807938 28.459796 
L 441.086938 27.634985 
L 441.365938 27.358125 
L 441.644938 27.634985 
L 441.923938 28.459796 
L 442.481938 31.71482 
L 443.039938 36.984767 
L 443.876937 48.134138 
L 444.992938 67.279755 
L 447.224938 107.382112 
L 448.061937 118.531483 
L 448.619938 123.80143 
L 449.177938 127.056454 
L 449.456938 127.881265 
L 449.735938 128.158125 
L 450.014938 127.881265 
L 450.293938 127.056454 
L 450.851938 123.80143 
L 451.409938 118.531483 
L 452.246938 107.382112 
L 453.362938 88.236495 
L 455.594938 48.134138 
L 456.431938 36.984767 
L 456.989938 31.71482 
L 457.547938 28.459796 
L 457.826938 27.634985 
L 458.105938 27.358125 
L 458.384938 27.634985 
L 458.663938 28.459796 
L 459.221938 31.71482 
L 459.779938 36.984767 
L 460.616938 48.134138 
L 461.732938 67.279755 
L 463.964938 107.382112 
L 464.801938 118.531483 
L 465.359938 123.80143 
L 465.917938 127.056454 
L 466.196938 127.881265 
L 466.475938 128.158125 
L 466.754938 127.881265 
L 467.033938 127.056454 
L 467.591938 123.80143 
L 468.149938 118.531483 
L 468.986938 107.382112 
L 470.102938 88.236495 
L 472.334938 48.134138 
L 473.171938 36.984767 
L 473.729938 31.71482 
L 474.287938 28.459796 
L 474.566938 27.634985 
L 474.845938 27.358125 
L 475.124938 27.634985 
L 475.403938 28.459796 
L 475.961938 31.71482 
L 476.519938 36.984767 
L 477.356938 48.134138 
L 478.472938 67.279755 
L 480.704938 107.382112 
L 481.541938 118.531483 
L 482.099938 123.80143 
L 482.657938 127.056454 
L 482.936938 127.881265 
L 483.215938 128.158125 
L 483.494938 127.881265 
L 483.773938 127.056454 
L 484.331938 123.80143 
L 484.889938 118.531483 
L 485.726938 107.382112 
L 486.842938 88.236495 
L 489.074938 48.134138 
L 489.911938 36.984767 
L 490.469938 31.71482 
L 491.027938 28.459796 
L 491.306938 27.634985 
L 491.585938 27.358125 
L 491.864938 27.634985 
L 492.143938 28.459796 
L 492.701938 31.71482 
L 493.259938 36.984767 
L 494.096938 48.134138 
L 495.212938 67.279755 
L 497.444938 107.382112 
L 498.281938 118.531483 
L 498.839938 123.80143 
L 499.397938 127.056454 
L 499.676938 127.881265 
L 499.955938 128.158125 
L 500.234938 127.881265 
L 500.513938 127.056454 
L 501.071938 123.80143 
L 501.629938 118.531483 
L 502.466938 107.382112 
L 503.582938 88.236495 
L 505.814938 48.134138 
L 506.651938 36.984767 
L 507.209938 31.71482 
L 507.767938 28.459796 
L 508.046938 27.634985 
L 508.325938 27.358125 
L 508.604938 27.634985 
L 508.883938 28.459796 
L 509.441938 31.71482 
L 509.999938 36.984767 
L 510.836938 48.134138 
L 511.952938 67.279755 
L 514.184938 107.382112 
L 515.021938 118.531483 
L 515.579938 123.80143 
L 516.137938 127.056454 
L 516.416938 127.881265 
L 516.695938 128.158125 
L 516.974938 127.881265 
L 517.253938 127.056454 
L 517.811938 123.80143 
L 518.369938 118.531483 
L 519.206938 107.382112 
L 520.322938 88.236495 
L 522.554938 48.134138 
L 523.391938 36.984767 
L 523.949938 31.71482 
L 524.507938 28.459796 
L 524.786938 27.634985 
L 525.065938 27.358125 
L 525.344938 27.634985 
L 525.623938 28.459796 
L 526.181938 31.71482 
L 526.739938 36.984767 
L 527.576938 48.134138 
L 528.692938 67.279755 
L 530.924938 107.382112 
L 531.761938 118.531483 
L 532.319938 123.80143 
L 532.877938 127.056454 
L 533.156938 127.881265 
L 533.435938 128.158125 
L 533.714938 127.881265 
L 533.993938 127.056454 
L 534.551938 123.80143 
L 535.109938 118.531483 
L 535.946938 107.382112 
L 537.062938 88.236495 
L 539.294938 48.134138 
L 540.131938 36.984767 
L 540.689938 31.71482 
L 541.247938 28.459796 
L 541.526938 27.634985 
L 541.805938 27.358125 
L 542.084938 27.634985 
L 542.363938 28.459796 
L 542.921938 31.71482 
L 543.479938 36.984767 
L 544.316938 48.134138 
L 545.432938 67.279755 
L 547.664938 107.382112 
L 548.501938 118.531483 
L 549.059938 123.80143 
L 549.617938 127.056454 
L 549.896938 127.881265 
L 550.175938 128.158125 
L 550.454938 127.881265 
L 550.733938 127.056454 
L 551.291938 123.80143 
L 551.849938 118.531483 
L 552.686938 107.382112 
L 553.802938 88.236495 
L 556.034938 48.134138 
L 556.871938 36.984767 
L 557.429938 31.71482 
L 557.987938 28.459796 
L 558.266938 27.634985 
L 558.545938 27.358125 
L 558.824938 27.634985 
L 559.103938 28.459796 
L 559.661938 31.71482 
L 560.219938 36.984767 
L 561.056938 48.134138 
L 562.172938 67.279755 
L 564.404938 107.382112 
L 565.241938 118.531483 
L 565.799938 123.80143 
L 566.357938 127.056454 
L 566.636938 127.881265 
L 566.915938 128.158125 
L 567.194938 127.881265 
L 567.473938 127.056454 
L 568.031938 123.80143 
L 568.589938 118.531483 
L 569.426938 107.382112 
L 570.542938 88.236495 
L 572.774938 48.134138 
L 573.611938 36.984767 
L 574.169938 31.71482 
L 574.727938 28.459796 
L 575.006938 27.634985 
L 575.285938 27.358125 
L 575.564938 27.634985 
L 575.843938 28.459796 
L 576.401938 31.71482 
L 576.959938 36.984767 
L 577.796938 48.134138 
L 578.912938 67.279755 
L 581.144938 107.382112 
L 581.981938 118.531483 
L 582.539938 123.80143 
L 583.097938 127.056454 
L 583.376938 127.881265 
L 583.655938 128.158125 
L 583.934938 127.881265 
L 584.213938 127.056454 
L 584.771938 123.80143 
L 585.329938 118.531483 
L 586.166938 107.382112 
L 587.282938 88.236495 
L 589.514938 48.134138 
L 590.351938 36.984767 
L 590.909938 31.71482 
L 591.467938 28.459796 
L 591.746938 27.634985 
L 592.025938 27.358125 
L 592.304938 27.634985 
L 592.583938 28.459796 
L 593.141938 31.71482 
L 593.699938 36.984767 
L 594.536938 48.134138 
L 595.652938 67.279755 
L 597.884938 107.382112 
L 598.721938 118.531483 
L 599.279938 123.80143 
L 599.837938 127.056454 
L 600.116938 127.881265 
L 600.395938 128.158125 
L 600.674938 127.881265 
L 600.953938 127.056454 
L 601.511938 123.80143 
L 602.069938 118.531483 
L 602.906938 107.382112 
L 604.022938 88.236495 
L 606.254938 48.134138 
L 607.091938 36.984767 
L 607.649938 31.71482 
L 608.207938 28.459796 
L 608.486938 27.634985 
L 608.765938 27.358125 
L 609.044938 27.634985 
L 609.323938 28.459796 
L 609.881938 31.71482 
L 610.439938 36.984767 
L 610.439938 36.984767 
" style="fill:none;stroke:#1f77b4;stroke-linecap:square;stroke-width:1.5;"/>
   </g>
   <g id="patch_3">
    <path d="M 52.160938 133.198125 
L 52.160938 22.318125 
" style="fill:none;stroke:#000000;stroke-linecap:square;stroke-linejoin:miter;stroke-width:0.8;"/>
   </g>
   <g id="patch_4">
    <path d="M 610.160938 133.198125 
L 610.160938 22.318125 
" style="fill:none;stroke:#000000;stroke-linecap:square;stroke-linejoin:miter;stroke-width:0.8;"/>
   </g>
   <g id="patch_5">
    <path d="M 52.160938 133.198125 
L 610.160938 133.198125 
" style="fill:none;stroke:#000000;stroke-linecap:square;stroke-linejoin:miter;stroke-width:0.8;"/>
   </g>
   <g id="patch_6">
    <path d="M 52.160938 22.318125 
L 610.160938 22.318125 
" style="fill:none;stroke:#000000;stroke-linecap:square;stroke-linejoin:miter;stroke-width:0.8;"/>
   </g>
   <g id="text_15">
    <!-- Sinusoid60 -->
    <defs>
     <path d="M 53.515625 70.515625 
L 53.515625 60.890625 
Q 47.90625 63.578125 42.921875 64.890625 
Q 37.9375 66.21875 33.296875 66.21875 
Q 25.25 66.21875 20.875 63.09375 
Q 16.5 59.96875 16.5 54.203125 
Q 16.5 49.359375 19.40625 46.890625 
Q 22.3125 44.4375 30.421875 42.921875 
L 36.375 41.703125 
Q 47.40625 39.59375 52.65625 34.296875 
Q 57.90625 29 57.90625 20.125 
Q 57.90625 9.515625 50.796875 4.046875 
Q 43.703125 -1.421875 29.984375 -1.421875 
Q 24.8125 -1.421875 18.96875 -0.25 
Q 13.140625 0.921875 6.890625 3.21875 
L 6.890625 13.375 
Q 12.890625 10.015625 18.65625 8.296875 
Q 24.421875 6.59375 29.984375 6.59375 
Q 38.421875 6.59375 43.015625 9.90625 
Q 47.609375 13.234375 47.609375 19.390625 
Q 47.609375 24.75 44.3125 27.78125 
Q 41.015625 30.8125 33.5 32.328125 
L 27.484375 33.5 
Q 16.453125 35.6875 11.515625 40.375 
Q 6.59375 45.0625 6.59375 53.421875 
Q 6.59375 63.09375 13.40625 68.65625 
Q 20.21875 74.21875 32.171875 74.21875 
Q 37.3125 74.21875 42.625 73.28125 
Q 47.953125 72.359375 53.515625 70.515625 
z
" id="DejaVuSans-83"/>
     <path d="M 9.421875 54.6875 
L 18.40625 54.6875 
L 18.40625 0 
L 9.421875 0 
z
M 9.421875 75.984375 
L 18.40625 75.984375 
L 18.40625 64.59375 
L 9.421875 64.59375 
z
" id="DejaVuSans-105"/>
     <path d="M 44.28125 53.078125 
L 44.28125 44.578125 
Q 40.484375 46.53125 36.375 47.5 
Q 32.28125 48.484375 27.875 48.484375 
Q 21.1875 48.484375 17.84375 46.4375 
Q 14.5 44.390625 14.5 40.28125 
Q 14.5 37.15625 16.890625 35.375 
Q 19.28125 33.59375 26.515625 31.984375 
L 29.59375 31.296875 
Q 39.15625 29.25 43.1875 25.515625 
Q 47.21875 21.78125 47.21875 15.09375 
Q 47.21875 7.46875 41.1875 3.015625 
Q 35.15625 -1.421875 24.609375 -1.421875 
Q 20.21875 -1.421875 15.453125 -0.5625 
Q 10.6875 0.296875 5.421875 2 
L 5.421875 11.28125 
Q 10.40625 8.6875 15.234375 7.390625 
Q 20.0625 6.109375 24.8125 6.109375 
Q 31.15625 6.109375 34.5625 8.28125 
Q 37.984375 10.453125 37.984375 14.40625 
Q 37.984375 18.0625 35.515625 20.015625 
Q 33.0625 21.96875 24.703125 23.78125 
L 21.578125 24.515625 
Q 13.234375 26.265625 9.515625 29.90625 
Q 5.8125 33.546875 5.8125 39.890625 
Q 5.8125 47.609375 11.28125 51.796875 
Q 16.75 56 26.8125 56 
Q 31.78125 56 36.171875 55.265625 
Q 40.578125 54.546875 44.28125 53.078125 
z
" id="DejaVuSans-115"/>
     <path d="M 30.609375 48.390625 
Q 23.390625 48.390625 19.1875 42.75 
Q 14.984375 37.109375 14.984375 27.296875 
Q 14.984375 17.484375 19.15625 11.84375 
Q 23.34375 6.203125 30.609375 6.203125 
Q 37.796875 6.203125 41.984375 11.859375 
Q 46.1875 17.53125 46.1875 27.296875 
Q 46.1875 37.015625 41.984375 42.703125 
Q 37.796875 48.390625 30.609375 48.390625 
z
M 30.609375 56 
Q 42.328125 56 49.015625 48.375 
Q 55.71875 40.765625 55.71875 27.296875 
Q 55.71875 13.875 49.015625 6.21875 
Q 42.328125 -1.421875 30.609375 -1.421875 
Q 18.84375 -1.421875 12.171875 6.21875 
Q 5.515625 13.875 5.515625 27.296875 
Q 5.515625 40.765625 12.171875 48.375 
Q 18.84375 56 30.609375 56 
z
" id="DejaVuSans-111"/>
     <path d="M 33.015625 40.375 
Q 26.375 40.375 22.484375 35.828125 
Q 18.609375 31.296875 18.609375 23.390625 
Q 18.609375 15.53125 22.484375 10.953125 
Q 26.375 6.390625 33.015625 6.390625 
Q 39.65625 6.390625 43.53125 10.953125 
Q 47.40625 15.53125 47.40625 23.390625 
Q 47.40625 31.296875 43.53125 35.828125 
Q 39.65625 40.375 33.015625 40.375 
z
M 52.59375 71.296875 
L 52.59375 62.3125 
Q 48.875 64.0625 45.09375 64.984375 
Q 41.3125 65.921875 37.59375 65.921875 
Q 27.828125 65.921875 22.671875 59.328125 
Q 17.53125 52.734375 16.796875 39.40625 
Q 19.671875 43.65625 24.015625 45.921875 
Q 28.375 48.1875 33.59375 48.1875 
Q 44.578125 48.1875 50.953125 41.515625 
Q 57.328125 34.859375 57.328125 23.390625 
Q 57.328125 12.15625 50.6875 5.359375 
Q 44.046875 -1.421875 33.015625 -1.421875 
Q 20.359375 -1.421875 13.671875 8.265625 
Q 6.984375 17.96875 6.984375 36.375 
Q 6.984375 53.65625 15.1875 63.9375 
Q 23.390625 74.21875 37.203125 74.21875 
Q 40.921875 74.21875 44.703125 73.484375 
Q 48.484375 72.75 52.59375 71.296875 
z
" id="DejaVuSans-54"/>
    </defs>
    <g transform="translate(298.172188 16.318125)scale(0.12 -0.12)">
     <use xlink:href="#DejaVuSans-83"/>
     <use x="63.476562" xlink:href="#DejaVuSans-105"/>
     <use x="91.259766" xlink:href="#DejaVuSans-110"/>
     <use x="154.638672" xlink:href="#DejaVuSans-117"/>
     <use x="218.017578" xlink:href="#DejaVuSans-115"/>
     <use x="270.117188" xlink:href="#DejaVuSans-111"/>
     <use x="331.298828" xlink:href="#DejaVuSans-105"/>
     <use x="359.082031" xlink:href="#DejaVuSans-100"/>
     <use x="422.558594" xlink:href="#DejaVuSans-54"/>
     <use x="486.181641" xlink:href="#DejaVuSans-48"/>
    </g>
   </g>
  </g>
 </g>
 <defs>
  <clipPath id="p2bcb6fa369">
   <rect height="110.88" width="558" x="52.160938" y="22.318125"/>
  </clipPath>
 </defs>
</svg>
