<?xml version="1.0" encoding="utf-8" standalone="no"?>
<!DOCTYPE svg PUBLIC "-//W3C//DTD SVG 1.1//EN"
  "http://www.w3.org/Graphics/SVG/1.1/DTD/svg11.dtd">
<!-- Created with matplotlib (https://matplotlib.org/) -->
<svg height="170.754375pt" version="1.1" viewBox="0 0 630.085938 170.754375" width="630.085938pt" xmlns="http://www.w3.org/2000/svg" xmlns:xlink="http://www.w3.org/1999/xlink">
 <defs>
  <style type="text/css">
*{stroke-linecap:butt;stroke-linejoin:round;}
  </style>
 </defs>
 <g id="figure_1">
  <g id="patch_1">
   <path d="M 0 170.754375 
L 630.085938 170.754375 
L 630.085938 0 
L 0 0 
z
" style="fill:#ffffff;"/>
  </g>
  <g id="axes_1">
   <g id="patch_2">
    <path d="M 52.160938 133.198125 
L 610.160938 133.198125 
L 610.160938 22.318125 
L 52.160938 22.318125 
z
" style="fill:#ffffff;"/>
   </g>
   <g id="matplotlib.axis_1">
    <g id="xtick_1">
     <g id="line2d_1">
      <defs>
       <path d="M 0 0 
L 0 3.5 
" id="mef4e5d2239" style="stroke:#000000;stroke-width:0.8;"/>
      </defs>
      <g>
       <use style="stroke:#000000;stroke-width:0.8;" x="52.160938" xlink:href="#mef4e5d2239" y="133.198125"/>
      </g>
     </g>
     <g id="text_1">
      <!-- 0 -->
      <defs>
       <path d="M 31.78125 66.40625 
Q 24.171875 66.40625 20.328125 58.90625 
Q 16.5 51.421875 16.5 36.375 
Q 16.5 21.390625 20.328125 13.890625 
Q 24.171875 6.390625 31.78125 6.390625 
Q 39.453125 6.390625 43.28125 13.890625 
Q 47.125 21.390625 47.125 36.375 
Q 47.125 51.421875 43.28125 58.90625 
Q 39.453125 66.40625 31.78125 66.40625 
z
M 31.78125 74.21875 
Q 44.046875 74.21875 50.515625 64.515625 
Q 56.984375 54.828125 56.984375 36.375 
Q 56.984375 17.96875 50.515625 8.265625 
Q 44.046875 -1.421875 31.78125 -1.421875 
Q 19.53125 -1.421875 13.0625 8.265625 
Q 6.59375 17.96875 6.59375 36.375 
Q 6.59375 54.828125 13.0625 64.515625 
Q 19.53125 74.21875 31.78125 74.21875 
z
" id="DejaVuSans-48"/>
      </defs>
      <g transform="translate(48.979688 147.796563)scale(0.1 -0.1)">
       <use xlink:href="#DejaVuSans-48"/>
      </g>
     </g>
    </g>
    <g id="xtick_2">
     <g id="line2d_2">
      <g>
       <use style="stroke:#000000;stroke-width:0.8;" x="121.910938" xlink:href="#mef4e5d2239" y="133.198125"/>
      </g>
     </g>
     <g id="text_2">
      <!-- 250 -->
      <defs>
       <path d="M 19.1875 8.296875 
L 53.609375 8.296875 
L 53.609375 0 
L 7.328125 0 
L 7.328125 8.296875 
Q 12.9375 14.109375 22.625 23.890625 
Q 32.328125 33.6875 34.8125 36.53125 
Q 39.546875 41.84375 41.421875 45.53125 
Q 43.3125 49.21875 43.3125 52.78125 
Q 43.3125 58.59375 39.234375 62.25 
Q 35.15625 65.921875 28.609375 65.921875 
Q 23.96875 65.921875 18.8125 64.3125 
Q 13.671875 62.703125 7.8125 59.421875 
L 7.8125 69.390625 
Q 13.765625 71.78125 18.9375 73 
Q 24.125 74.21875 28.421875 74.21875 
Q 39.75 74.21875 46.484375 68.546875 
Q 53.21875 62.890625 53.21875 53.421875 
Q 53.21875 48.921875 51.53125 44.890625 
Q 49.859375 40.875 45.40625 35.40625 
Q 44.1875 33.984375 37.640625 27.21875 
Q 31.109375 20.453125 19.1875 8.296875 
z
" id="DejaVuSans-50"/>
       <path d="M 10.796875 72.90625 
L 49.515625 72.90625 
L 49.515625 64.59375 
L 19.828125 64.59375 
L 19.828125 46.734375 
Q 21.96875 47.46875 24.109375 47.828125 
Q 26.265625 48.1875 28.421875 48.1875 
Q 40.625 48.1875 47.75 41.5 
Q 54.890625 34.8125 54.890625 23.390625 
Q 54.890625 11.625 47.5625 5.09375 
Q 40.234375 -1.421875 26.90625 -1.421875 
Q 22.3125 -1.421875 17.546875 -0.640625 
Q 12.796875 0.140625 7.71875 1.703125 
L 7.71875 11.625 
Q 12.109375 9.234375 16.796875 8.0625 
Q 21.484375 6.890625 26.703125 6.890625 
Q 35.15625 6.890625 40.078125 11.328125 
Q 45.015625 15.765625 45.015625 23.390625 
Q 45.015625 31 40.078125 35.4375 
Q 35.15625 39.890625 26.703125 39.890625 
Q 22.75 39.890625 18.8125 39.015625 
Q 14.890625 38.140625 10.796875 36.28125 
z
" id="DejaVuSans-53"/>
      </defs>
      <g transform="translate(112.367188 147.796563)scale(0.1 -0.1)">
       <use xlink:href="#DejaVuSans-50"/>
       <use x="63.623047" xlink:href="#DejaVuSans-53"/>
       <use x="127.246094" xlink:href="#DejaVuSans-48"/>
      </g>
     </g>
    </g>
    <g id="xtick_3">
     <g id="line2d_3">
      <g>
       <use style="stroke:#000000;stroke-width:0.8;" x="191.660938" xlink:href="#mef4e5d2239" y="133.198125"/>
      </g>
     </g>
     <g id="text_3">
      <!-- 500 -->
      <g transform="translate(182.117188 147.796563)scale(0.1 -0.1)">
       <use xlink:href="#DejaVuSans-53"/>
       <use x="63.623047" xlink:href="#DejaVuSans-48"/>
       <use x="127.246094" xlink:href="#DejaVuSans-48"/>
      </g>
     </g>
    </g>
    <g id="xtick_4">
     <g id="line2d_4">
      <g>
       <use style="stroke:#000000;stroke-width:0.8;" x="261.410938" xlink:href="#mef4e5d2239" y="133.198125"/>
      </g>
     </g>
     <g id="text_4">
      <!-- 750 -->
      <defs>
       <path d="M 8.203125 72.90625 
L 55.078125 72.90625 
L 55.078125 68.703125 
L 28.609375 0 
L 18.3125 0 
L 43.21875 64.59375 
L 8.203125 64.59375 
z
" id="DejaVuSans-55"/>
      </defs>
      <g transform="translate(251.867188 147.796563)scale(0.1 -0.1)">
       <use xlink:href="#DejaVuSans-55"/>
       <use x="63.623047" xlink:href="#DejaVuSans-53"/>
       <use x="127.246094" xlink:href="#DejaVuSans-48"/>
      </g>
     </g>
    </g>
    <g id="xtick_5">
     <g id="line2d_5">
      <g>
       <use style="stroke:#000000;stroke-width:0.8;" x="331.160937" xlink:href="#mef4e5d2239" y="133.198125"/>
      </g>
     </g>
     <g id="text_5">
      <!-- 1000 -->
      <defs>
       <path d="M 12.40625 8.296875 
L 28.515625 8.296875 
L 28.515625 63.921875 
L 10.984375 60.40625 
L 10.984375 69.390625 
L 28.421875 72.90625 
L 38.28125 72.90625 
L 38.28125 8.296875 
L 54.390625 8.296875 
L 54.390625 0 
L 12.40625 0 
z
" id="DejaVuSans-49"/>
      </defs>
      <g transform="translate(318.435937 147.796563)scale(0.1 -0.1)">
       <use xlink:href="#DejaVuSans-49"/>
       <use x="63.623047" xlink:href="#DejaVuSans-48"/>
       <use x="127.246094" xlink:href="#DejaVuSans-48"/>
       <use x="190.869141" xlink:href="#DejaVuSans-48"/>
      </g>
     </g>
    </g>
    <g id="xtick_6">
     <g id="line2d_6">
      <g>
       <use style="stroke:#000000;stroke-width:0.8;" x="400.910938" xlink:href="#mef4e5d2239" y="133.198125"/>
      </g>
     </g>
     <g id="text_6">
      <!-- 1250 -->
      <g transform="translate(388.185938 147.796563)scale(0.1 -0.1)">
       <use xlink:href="#DejaVuSans-49"/>
       <use x="63.623047" xlink:href="#DejaVuSans-50"/>
       <use x="127.246094" xlink:href="#DejaVuSans-53"/>
       <use x="190.869141" xlink:href="#DejaVuSans-48"/>
      </g>
     </g>
    </g>
    <g id="xtick_7">
     <g id="line2d_7">
      <g>
       <use style="stroke:#000000;stroke-width:0.8;" x="470.660938" xlink:href="#mef4e5d2239" y="133.198125"/>
      </g>
     </g>
     <g id="text_7">
      <!-- 1500 -->
      <g transform="translate(457.935938 147.796563)scale(0.1 -0.1)">
       <use xlink:href="#DejaVuSans-49"/>
       <use x="63.623047" xlink:href="#DejaVuSans-53"/>
       <use x="127.246094" xlink:href="#DejaVuSans-48"/>
       <use x="190.869141" xlink:href="#DejaVuSans-48"/>
      </g>
     </g>
    </g>
    <g id="xtick_8">
     <g id="line2d_8">
      <g>
       <use style="stroke:#000000;stroke-width:0.8;" x="540.410938" xlink:href="#mef4e5d2239" y="133.198125"/>
      </g>
     </g>
     <g id="text_8">
      <!-- 1750 -->
      <g transform="translate(527.685938 147.796563)scale(0.1 -0.1)">
       <use xlink:href="#DejaVuSans-49"/>
       <use x="63.623047" xlink:href="#DejaVuSans-55"/>
       <use x="127.246094" xlink:href="#DejaVuSans-53"/>
       <use x="190.869141" xlink:href="#DejaVuSans-48"/>
      </g>
     </g>
    </g>
    <g id="xtick_9">
     <g id="line2d_9">
      <g>
       <use style="stroke:#000000;stroke-width:0.8;" x="610.160938" xlink:href="#mef4e5d2239" y="133.198125"/>
      </g>
     </g>
     <g id="text_9">
      <!-- 2000 -->
      <g transform="translate(597.435938 147.796563)scale(0.1 -0.1)">
       <use xlink:href="#DejaVuSans-50"/>
       <use x="63.623047" xlink:href="#DejaVuSans-48"/>
       <use x="127.246094" xlink:href="#DejaVuSans-48"/>
       <use x="190.869141" xlink:href="#DejaVuSans-48"/>
      </g>
     </g>
    </g>
    <g id="text_10">
     <!-- Array Index -->
     <defs>
      <path d="M 34.1875 63.1875 
L 20.796875 26.90625 
L 47.609375 26.90625 
z
M 28.609375 72.90625 
L 39.796875 72.90625 
L 67.578125 0 
L 57.328125 0 
L 50.6875 18.703125 
L 17.828125 18.703125 
L 11.1875 0 
L 0.78125 0 
z
" id="DejaVuSans-65"/>
      <path d="M 41.109375 46.296875 
Q 39.59375 47.171875 37.8125 47.578125 
Q 36.03125 48 33.890625 48 
Q 26.265625 48 22.1875 43.046875 
Q 18.109375 38.09375 18.109375 28.8125 
L 18.109375 0 
L 9.078125 0 
L 9.078125 54.6875 
L 18.109375 54.6875 
L 18.109375 46.1875 
Q 20.953125 51.171875 25.484375 53.578125 
Q 30.03125 56 36.53125 56 
Q 37.453125 56 38.578125 55.875 
Q 39.703125 55.765625 41.0625 55.515625 
z
" id="DejaVuSans-114"/>
      <path d="M 34.28125 27.484375 
Q 23.390625 27.484375 19.1875 25 
Q 14.984375 22.515625 14.984375 16.5 
Q 14.984375 11.71875 18.140625 8.90625 
Q 21.296875 6.109375 26.703125 6.109375 
Q 34.1875 6.109375 38.703125 11.40625 
Q 43.21875 16.703125 43.21875 25.484375 
L 43.21875 27.484375 
z
M 52.203125 31.203125 
L 52.203125 0 
L 43.21875 0 
L 43.21875 8.296875 
Q 40.140625 3.328125 35.546875 0.953125 
Q 30.953125 -1.421875 24.3125 -1.421875 
Q 15.921875 -1.421875 10.953125 3.296875 
Q 6 8.015625 6 15.921875 
Q 6 25.140625 12.171875 29.828125 
Q 18.359375 34.515625 30.609375 34.515625 
L 43.21875 34.515625 
L 43.21875 35.40625 
Q 43.21875 41.609375 39.140625 45 
Q 35.0625 48.390625 27.6875 48.390625 
Q 23 48.390625 18.546875 47.265625 
Q 14.109375 46.140625 10.015625 43.890625 
L 10.015625 52.203125 
Q 14.9375 54.109375 19.578125 55.046875 
Q 24.21875 56 28.609375 56 
Q 40.484375 56 46.34375 49.84375 
Q 52.203125 43.703125 52.203125 31.203125 
z
" id="DejaVuSans-97"/>
      <path d="M 32.171875 -5.078125 
Q 28.375 -14.84375 24.75 -17.8125 
Q 21.140625 -20.796875 15.09375 -20.796875 
L 7.90625 -20.796875 
L 7.90625 -13.28125 
L 13.1875 -13.28125 
Q 16.890625 -13.28125 18.9375 -11.515625 
Q 21 -9.765625 23.484375 -3.21875 
L 25.09375 0.875 
L 2.984375 54.6875 
L 12.5 54.6875 
L 29.59375 11.921875 
L 46.6875 54.6875 
L 56.203125 54.6875 
z
" id="DejaVuSans-121"/>
      <path id="DejaVuSans-32"/>
      <path d="M 9.8125 72.90625 
L 19.671875 72.90625 
L 19.671875 0 
L 9.8125 0 
z
" id="DejaVuSans-73"/>
      <path d="M 54.890625 33.015625 
L 54.890625 0 
L 45.90625 0 
L 45.90625 32.71875 
Q 45.90625 40.484375 42.875 44.328125 
Q 39.84375 48.1875 33.796875 48.1875 
Q 26.515625 48.1875 22.3125 43.546875 
Q 18.109375 38.921875 18.109375 30.90625 
L 18.109375 0 
L 9.078125 0 
L 9.078125 54.6875 
L 18.109375 54.6875 
L 18.109375 46.1875 
Q 21.34375 51.125 25.703125 53.5625 
Q 30.078125 56 35.796875 56 
Q 45.21875 56 50.046875 50.171875 
Q 54.890625 44.34375 54.890625 33.015625 
z
" id="DejaVuSans-110"/>
      <path d="M 45.40625 46.390625 
L 45.40625 75.984375 
L 54.390625 75.984375 
L 54.390625 0 
L 45.40625 0 
L 45.40625 8.203125 
Q 42.578125 3.328125 38.25 0.953125 
Q 33.9375 -1.421875 27.875 -1.421875 
Q 17.96875 -1.421875 11.734375 6.484375 
Q 5.515625 14.40625 5.515625 27.296875 
Q 5.515625 40.1875 11.734375 48.09375 
Q 17.96875 56 27.875 56 
Q 33.9375 56 38.25 53.625 
Q 42.578125 51.265625 45.40625 46.390625 
z
M 14.796875 27.296875 
Q 14.796875 17.390625 18.875 11.75 
Q 22.953125 6.109375 30.078125 6.109375 
Q 37.203125 6.109375 41.296875 11.75 
Q 45.40625 17.390625 45.40625 27.296875 
Q 45.40625 37.203125 41.296875 42.84375 
Q 37.203125 48.484375 30.078125 48.484375 
Q 22.953125 48.484375 18.875 42.84375 
Q 14.796875 37.203125 14.796875 27.296875 
z
" id="DejaVuSans-100"/>
      <path d="M 56.203125 29.59375 
L 56.203125 25.203125 
L 14.890625 25.203125 
Q 15.484375 15.921875 20.484375 11.0625 
Q 25.484375 6.203125 34.421875 6.203125 
Q 39.59375 6.203125 44.453125 7.46875 
Q 49.3125 8.734375 54.109375 11.28125 
L 54.109375 2.78125 
Q 49.265625 0.734375 44.1875 -0.34375 
Q 39.109375 -1.421875 33.890625 -1.421875 
Q 20.796875 -1.421875 13.15625 6.1875 
Q 5.515625 13.8125 5.515625 26.8125 
Q 5.515625 40.234375 12.765625 48.109375 
Q 20.015625 56 32.328125 56 
Q 43.359375 56 49.78125 48.890625 
Q 56.203125 41.796875 56.203125 29.59375 
z
M 47.21875 32.234375 
Q 47.125 39.59375 43.09375 43.984375 
Q 39.0625 48.390625 32.421875 48.390625 
Q 24.90625 48.390625 20.390625 44.140625 
Q 15.875 39.890625 15.1875 32.171875 
z
" id="DejaVuSans-101"/>
      <path d="M 54.890625 54.6875 
L 35.109375 28.078125 
L 55.90625 0 
L 45.3125 0 
L 29.390625 21.484375 
L 13.484375 0 
L 2.875 0 
L 24.125 28.609375 
L 4.6875 54.6875 
L 15.28125 54.6875 
L 29.78125 35.203125 
L 44.28125 54.6875 
z
" id="DejaVuSans-120"/>
     </defs>
     <g transform="translate(302.164844 161.474688)scale(0.1 -0.1)">
      <use xlink:href="#DejaVuSans-65"/>
      <use x="68.408203" xlink:href="#DejaVuSans-114"/>
      <use x="109.505859" xlink:href="#DejaVuSans-114"/>
      <use x="150.619141" xlink:href="#DejaVuSans-97"/>
      <use x="211.898438" xlink:href="#DejaVuSans-121"/>
      <use x="271.078125" xlink:href="#DejaVuSans-32"/>
      <use x="302.865234" xlink:href="#DejaVuSans-73"/>
      <use x="332.357422" xlink:href="#DejaVuSans-110"/>
      <use x="395.736328" xlink:href="#DejaVuSans-100"/>
      <use x="459.212891" xlink:href="#DejaVuSans-101"/>
      <use x="520.720703" xlink:href="#DejaVuSans-120"/>
     </g>
    </g>
   </g>
   <g id="matplotlib.axis_2">
    <g id="ytick_1">
     <g id="line2d_10">
      <defs>
       <path d="M 0 0 
L -3.5 0 
" id="m750c31bdab" style="stroke:#000000;stroke-width:0.8;"/>
      </defs>
      <g>
       <use style="stroke:#000000;stroke-width:0.8;" x="52.160938" xlink:href="#m750c31bdab" y="109.258606"/>
      </g>
     </g>
     <g id="text_11">
      <!-- −0.5 -->
      <defs>
       <path d="M 10.59375 35.5 
L 73.1875 35.5 
L 73.1875 27.203125 
L 10.59375 27.203125 
z
" id="DejaVuSans-8722"/>
       <path d="M 10.6875 12.40625 
L 21 12.40625 
L 21 0 
L 10.6875 0 
z
" id="DejaVuSans-46"/>
      </defs>
      <g transform="translate(20.878125 113.057824)scale(0.1 -0.1)">
       <use xlink:href="#DejaVuSans-8722"/>
       <use x="83.789062" xlink:href="#DejaVuSans-48"/>
       <use x="147.412109" xlink:href="#DejaVuSans-46"/>
       <use x="179.199219" xlink:href="#DejaVuSans-53"/>
      </g>
     </g>
    </g>
    <g id="ytick_2">
     <g id="line2d_11">
      <g>
       <use style="stroke:#000000;stroke-width:0.8;" x="52.160938" xlink:href="#m750c31bdab" y="77.758125"/>
      </g>
     </g>
     <g id="text_12">
      <!-- 0.0 -->
      <g transform="translate(29.257813 81.557344)scale(0.1 -0.1)">
       <use xlink:href="#DejaVuSans-48"/>
       <use x="63.623047" xlink:href="#DejaVuSans-46"/>
       <use x="95.410156" xlink:href="#DejaVuSans-48"/>
      </g>
     </g>
    </g>
    <g id="ytick_3">
     <g id="line2d_12">
      <g>
       <use style="stroke:#000000;stroke-width:0.8;" x="52.160938" xlink:href="#m750c31bdab" y="46.257644"/>
      </g>
     </g>
     <g id="text_13">
      <!-- 0.5 -->
      <g transform="translate(29.257813 50.056863)scale(0.1 -0.1)">
       <use xlink:href="#DejaVuSans-48"/>
       <use x="63.623047" xlink:href="#DejaVuSans-46"/>
       <use x="95.410156" xlink:href="#DejaVuSans-53"/>
      </g>
     </g>
    </g>
    <g id="text_14">
     <!-- Value -->
     <defs>
      <path d="M 28.609375 0 
L 0.78125 72.90625 
L 11.078125 72.90625 
L 34.1875 11.53125 
L 57.328125 72.90625 
L 67.578125 72.90625 
L 39.796875 0 
z
" id="DejaVuSans-86"/>
      <path d="M 9.421875 75.984375 
L 18.40625 75.984375 
L 18.40625 0 
L 9.421875 0 
z
" id="DejaVuSans-108"/>
      <path d="M 8.5 21.578125 
L 8.5 54.6875 
L 17.484375 54.6875 
L 17.484375 21.921875 
Q 17.484375 14.15625 20.5 10.265625 
Q 23.53125 6.390625 29.59375 6.390625 
Q 36.859375 6.390625 41.078125 11.03125 
Q 45.3125 15.671875 45.3125 23.6875 
L 45.3125 54.6875 
L 54.296875 54.6875 
L 54.296875 0 
L 45.3125 0 
L 45.3125 8.40625 
Q 42.046875 3.421875 37.71875 1 
Q 33.40625 -1.421875 27.6875 -1.421875 
Q 18.265625 -1.421875 13.375 4.4375 
Q 8.5 10.296875 8.5 21.578125 
z
M 31.109375 56 
z
" id="DejaVuSans-117"/>
     </defs>
     <g transform="translate(14.798438 91.871406)rotate(-90)scale(0.1 -0.1)">
      <use xlink:href="#DejaVuSans-86"/>
      <use x="68.298828" xlink:href="#DejaVuSans-97"/>
      <use x="129.578125" xlink:href="#DejaVuSans-108"/>
      <use x="157.361328" xlink:href="#DejaVuSans-117"/>
      <use x="220.740234" xlink:href="#DejaVuSans-101"/>
     </g>
    </g>
   </g>
   <g id="line2d_13">
    <path clip-path="url(#p0fd75ab9e3)" d="M 52.160938 77.758125 
L 54.392938 53.479068 
L 55.508938 43.258331 
L 56.345938 36.984767 
L 57.182938 32.155104 
L 57.740938 29.824868 
L 58.298938 28.250228 
L 58.856938 27.458102 
L 59.135938 27.358125 
L 59.414938 27.458102 
L 59.693938 27.756111 
L 60.251938 28.942378 
L 60.809938 30.897699 
L 61.367938 33.593236 
L 62.204938 38.924708 
L 63.320938 48.134138 
L 64.715938 62.184767 
L 69.179938 109.883463 
L 70.295938 118.531483 
L 71.132938 123.361146 
L 71.690938 125.691382 
L 72.248938 127.266022 
L 72.806938 128.058148 
L 73.085938 128.158125 
L 73.364938 128.058148 
L 73.643938 127.760139 
L 74.201938 126.573872 
L 74.759938 124.618551 
L 75.317938 121.923014 
L 76.154938 116.591542 
L 77.270938 107.382112 
L 78.665938 93.331483 
L 83.129938 45.632787 
L 84.245938 36.984767 
L 85.082938 32.155104 
L 85.640938 29.824868 
L 86.198938 28.250228 
L 86.756938 27.458102 
L 87.035938 27.358125 
L 87.314938 27.458102 
L 87.593938 27.756111 
L 88.151938 28.942378 
L 88.709938 30.897699 
L 89.267938 33.593236 
L 90.104938 38.924708 
L 91.220938 48.134138 
L 92.615938 62.184767 
L 97.079938 109.883463 
L 98.195938 118.531483 
L 99.032938 123.361146 
L 99.590938 125.691382 
L 100.148938 127.266022 
L 100.706938 128.058148 
L 100.985938 128.158125 
L 101.264938 128.058148 
L 101.543938 127.760139 
L 102.101938 126.573872 
L 102.659938 124.618551 
L 103.217938 121.923014 
L 104.054938 116.591542 
L 105.170938 107.382112 
L 106.565938 93.331483 
L 111.029938 45.632787 
L 112.145938 36.984767 
L 112.982938 32.155104 
L 113.540938 29.824868 
L 114.098938 28.250228 
L 114.656938 27.458102 
L 114.935938 27.358125 
L 115.214938 27.458102 
L 115.493938 27.756111 
L 116.051938 28.942378 
L 116.609938 30.897699 
L 117.167938 33.593236 
L 118.004938 38.924708 
L 119.120938 48.134138 
L 120.515938 62.184767 
L 124.979938 109.883463 
L 126.095938 118.531483 
L 126.932938 123.361146 
L 127.490938 125.691382 
L 128.048938 127.266022 
L 128.606938 128.058148 
L 128.885938 128.158125 
L 129.164938 128.058148 
L 129.443938 127.760139 
L 130.001938 126.573872 
L 130.559938 124.618551 
L 131.117938 121.923014 
L 131.954938 116.591542 
L 133.070938 107.382112 
L 134.465938 93.331483 
L 138.929938 45.632787 
L 140.045938 36.984767 
L 140.882938 32.155104 
L 141.440938 29.824868 
L 141.998938 28.250228 
L 142.556938 27.458102 
L 142.835938 27.358125 
L 143.114938 27.458102 
L 143.393938 27.756111 
L 143.951938 28.942378 
L 144.509938 30.897699 
L 145.067938 33.593236 
L 145.904938 38.924708 
L 147.020938 48.134138 
L 148.415938 62.184767 
L 152.879938 109.883463 
L 153.995938 118.531483 
L 154.832938 123.361146 
L 155.390938 125.691382 
L 155.948938 127.266022 
L 156.506938 128.058148 
L 156.785938 128.158125 
L 157.064938 128.058148 
L 157.343938 127.760139 
L 157.901938 126.573872 
L 158.459938 124.618551 
L 159.017938 121.923014 
L 159.854938 116.591542 
L 160.970938 107.382112 
L 162.365938 93.331483 
L 166.829938 45.632787 
L 167.945938 36.984767 
L 168.782938 32.155104 
L 169.340938 29.824868 
L 169.898938 28.250228 
L 170.456938 27.458102 
L 170.735938 27.358125 
L 171.014938 27.458102 
L 171.293938 27.756111 
L 171.851938 28.942378 
L 172.409938 30.897699 
L 172.967938 33.593236 
L 173.804938 38.924708 
L 174.920938 48.134138 
L 176.315938 62.184767 
L 180.779938 109.883463 
L 181.895938 118.531483 
L 182.732938 123.361146 
L 183.290938 125.691382 
L 183.848938 127.266022 
L 184.406938 128.058148 
L 184.685938 128.158125 
L 184.964938 128.058148 
L 185.243938 127.760139 
L 185.801938 126.573872 
L 186.359938 124.618551 
L 186.917938 121.923014 
L 187.754938 116.591542 
L 188.870938 107.382112 
L 190.265938 93.331483 
L 194.729938 45.632787 
L 195.845938 36.984767 
L 196.682938 32.155104 
L 197.240938 29.824868 
L 197.798938 28.250228 
L 198.356938 27.458102 
L 198.635938 27.358125 
L 198.914938 27.458102 
L 199.193938 27.756111 
L 199.751938 28.942378 
L 200.309938 30.897699 
L 200.867938 33.593236 
L 201.704938 38.924708 
L 202.820938 48.134138 
L 204.215938 62.184767 
L 208.679938 109.883463 
L 209.795938 118.531483 
L 210.632938 123.361146 
L 211.190938 125.691382 
L 211.748938 127.266022 
L 212.306938 128.058148 
L 212.585938 128.158125 
L 212.864938 128.058148 
L 213.143938 127.760139 
L 213.701938 126.573872 
L 214.259938 124.618551 
L 214.817938 121.923014 
L 215.654938 116.591542 
L 216.770938 107.382112 
L 218.165938 93.331483 
L 222.629938 45.632787 
L 223.745938 36.984767 
L 224.582938 32.155104 
L 225.140938 29.824868 
L 225.698938 28.250228 
L 226.256938 27.458102 
L 226.535938 27.358125 
L 226.814938 27.458102 
L 227.093938 27.756111 
L 227.651938 28.942378 
L 228.209938 30.897699 
L 228.767938 33.593236 
L 229.604938 38.924708 
L 230.720938 48.134138 
L 232.115938 62.184767 
L 236.579938 109.883463 
L 237.695938 118.531483 
L 238.532938 123.361146 
L 239.090938 125.691382 
L 239.648938 127.266022 
L 240.206938 128.058148 
L 240.485938 128.158125 
L 240.764938 128.058148 
L 241.043938 127.760139 
L 241.601938 126.573872 
L 242.159938 124.618551 
L 242.717938 121.923014 
L 243.554938 116.591542 
L 244.670938 107.382112 
L 246.065938 93.331483 
L 250.529938 45.632787 
L 251.645938 36.984767 
L 252.482938 32.155104 
L 253.040938 29.824868 
L 253.598938 28.250228 
L 254.156938 27.458102 
L 254.435938 27.358125 
L 254.714938 27.458102 
L 254.993938 27.756111 
L 255.551938 28.942378 
L 256.109938 30.897699 
L 256.667937 33.593236 
L 257.504938 38.924708 
L 258.620938 48.134138 
L 260.015938 62.184767 
L 264.479938 109.883463 
L 265.595938 118.531483 
L 266.432938 123.361146 
L 266.990938 125.691382 
L 267.548938 127.266022 
L 268.106938 128.058148 
L 268.385938 128.158125 
L 268.664938 128.058148 
L 268.943938 127.760139 
L 269.501937 126.573872 
L 270.059938 124.618551 
L 270.617938 121.923014 
L 271.454938 116.591542 
L 272.570938 107.382112 
L 273.965937 93.331483 
L 278.429938 45.632787 
L 279.545938 36.984767 
L 280.382938 32.155104 
L 280.940938 29.824868 
L 281.498938 28.250228 
L 282.056938 27.458102 
L 282.335938 27.358125 
L 282.614937 27.458102 
L 282.893938 27.756111 
L 283.451938 28.942378 
L 284.009938 30.897699 
L 284.567938 33.593236 
L 285.404938 38.924708 
L 286.520938 48.134138 
L 287.915938 62.184767 
L 292.379938 109.883463 
L 293.495938 118.531483 
L 294.332938 123.361146 
L 294.890938 125.691382 
L 295.448937 127.266022 
L 296.006938 128.058148 
L 296.285938 128.158125 
L 296.564938 128.058148 
L 296.843938 127.760139 
L 297.401938 126.573872 
L 297.959938 124.618551 
L 298.517938 121.923014 
L 299.354938 116.591542 
L 300.470938 107.382112 
L 301.865938 93.331483 
L 306.329938 45.632787 
L 307.445938 36.984767 
L 308.282938 32.155104 
L 308.840937 29.824868 
L 309.398937 28.250228 
L 309.956938 27.458102 
L 310.235938 27.358125 
L 310.514938 27.458102 
L 310.793938 27.756111 
L 311.351938 28.942378 
L 311.909938 30.897699 
L 312.467938 33.593236 
L 313.304937 38.924708 
L 314.420938 48.134138 
L 315.815938 62.184767 
L 320.279938 109.883463 
L 321.395938 118.531483 
L 322.232937 123.361146 
L 322.790938 125.691382 
L 323.348938 127.266022 
L 323.906938 128.058148 
L 324.185938 128.158125 
L 324.464938 128.058148 
L 324.743938 127.760139 
L 325.301938 126.573872 
L 325.859938 124.618551 
L 326.417937 121.923014 
L 327.254938 116.591542 
L 328.370938 107.382112 
L 329.765938 93.331483 
L 334.229938 45.632787 
L 335.345937 36.984767 
L 336.182938 32.155104 
L 336.740938 29.824868 
L 337.298938 28.250228 
L 337.856938 27.458102 
L 338.135938 27.358125 
L 338.414938 27.458102 
L 338.693938 27.756111 
L 339.251937 28.942378 
L 339.809937 30.897699 
L 340.367938 33.593236 
L 341.204938 38.924708 
L 342.320938 48.134138 
L 343.715937 62.184767 
L 348.179937 109.883463 
L 349.295938 118.531483 
L 350.132938 123.361146 
L 350.690938 125.691382 
L 351.248938 127.266022 
L 351.806938 128.058148 
L 352.085938 128.158125 
L 352.364937 128.058148 
L 352.643937 127.760139 
L 353.201938 126.573872 
L 353.759938 124.618551 
L 354.317938 121.923014 
L 355.154938 116.591542 
L 356.270938 107.382112 
L 357.665938 93.331483 
L 362.129938 45.632787 
L 363.245938 36.984767 
L 364.082938 32.155104 
L 364.640938 29.824868 
L 365.198937 28.250228 
L 365.756937 27.458102 
L 366.035938 27.358125 
L 366.314938 27.458102 
L 366.593938 27.756111 
L 367.151938 28.942378 
L 367.709938 30.897699 
L 368.267938 33.593236 
L 369.104938 38.924708 
L 370.220937 48.134138 
L 371.615938 62.184767 
L 376.079938 109.883463 
L 377.195938 118.531483 
L 378.032938 123.361146 
L 378.590937 125.691382 
L 379.148938 127.266022 
L 379.706938 128.058148 
L 379.985938 128.158125 
L 380.264938 128.058148 
L 380.543938 127.760139 
L 381.101938 126.573872 
L 381.659938 124.618551 
L 382.217938 121.923014 
L 383.054937 116.591542 
L 384.170938 107.382112 
L 385.565938 93.331483 
L 390.029938 45.632787 
L 391.145938 36.984767 
L 391.982938 32.155104 
L 392.540938 29.824868 
L 393.098938 28.250228 
L 393.656938 27.458102 
L 393.935938 27.358125 
L 394.214938 27.458102 
L 394.493938 27.756111 
L 395.051938 28.942378 
L 395.609938 30.897699 
L 396.167937 33.593236 
L 397.004938 38.924708 
L 398.120938 48.134138 
L 399.515938 62.184767 
L 403.979938 109.883463 
L 405.095938 118.531483 
L 405.932938 123.361146 
L 406.490938 125.691382 
L 407.048938 127.266022 
L 407.606938 128.058148 
L 407.885938 128.158125 
L 408.164938 128.058148 
L 408.443938 127.760139 
L 409.001937 126.573872 
L 409.559938 124.618551 
L 410.117938 121.923014 
L 410.954938 116.591542 
L 412.070938 107.382112 
L 413.465937 93.331483 
L 417.929937 45.632787 
L 419.045938 36.984767 
L 419.882938 32.155104 
L 420.440938 29.824868 
L 420.998938 28.250228 
L 421.556938 27.458102 
L 421.835938 27.358125 
L 422.114937 27.458102 
L 422.393938 27.756111 
L 422.951938 28.942378 
L 423.509938 30.897699 
L 424.067938 33.593236 
L 424.904938 38.924708 
L 426.020938 48.134138 
L 427.415938 62.184767 
L 431.879938 109.883463 
L 432.995938 118.531483 
L 433.832938 123.361146 
L 434.390938 125.691382 
L 434.948937 127.266022 
L 435.506938 128.058148 
L 435.785938 128.158125 
L 436.064938 128.058148 
L 436.343938 127.760139 
L 436.901938 126.573872 
L 437.459938 124.618551 
L 438.017938 121.923014 
L 438.854938 116.591542 
L 439.970938 107.382112 
L 441.365938 93.331483 
L 445.829938 45.632787 
L 446.945938 36.984767 
L 447.782938 32.155104 
L 448.340938 29.824868 
L 448.898938 28.250228 
L 449.456938 27.458102 
L 449.735938 27.358125 
L 450.014938 27.458102 
L 450.293938 27.756111 
L 450.851938 28.942378 
L 451.409938 30.897699 
L 451.967938 33.593236 
L 452.804938 38.924708 
L 453.920938 48.134138 
L 455.315938 62.184767 
L 459.779938 109.883463 
L 460.895938 118.531483 
L 461.732938 123.361146 
L 462.290938 125.691382 
L 462.848938 127.266022 
L 463.406938 128.058148 
L 463.685938 128.158125 
L 463.964938 128.058148 
L 464.243938 127.760139 
L 464.801938 126.573872 
L 465.359938 124.618551 
L 465.917938 121.923014 
L 466.754938 116.591542 
L 467.870938 107.382112 
L 469.265938 93.331483 
L 473.729938 45.632787 
L 474.845938 36.984767 
L 475.682938 32.155104 
L 476.240938 29.824868 
L 476.798938 28.250228 
L 477.356938 27.458102 
L 477.635938 27.358125 
L 477.914938 27.458102 
L 478.193938 27.756111 
L 478.751938 28.942378 
L 479.309938 30.897699 
L 479.867938 33.593236 
L 480.704938 38.924708 
L 481.820938 48.134138 
L 483.215938 62.184767 
L 487.679938 109.883463 
L 488.795938 118.531483 
L 489.632938 123.361146 
L 490.190938 125.691382 
L 490.748938 127.266022 
L 491.306938 128.058148 
L 491.585938 128.158125 
L 491.864938 128.058148 
L 492.143938 127.760139 
L 492.701938 126.573872 
L 493.259938 124.618551 
L 493.817938 121.923014 
L 494.654938 116.591542 
L 495.770938 107.382112 
L 497.165938 93.331483 
L 501.629938 45.632787 
L 502.745938 36.984767 
L 503.582938 32.155104 
L 504.140938 29.824868 
L 504.698938 28.250228 
L 505.256938 27.458102 
L 505.535938 27.358125 
L 505.814938 27.458102 
L 506.093938 27.756111 
L 506.651938 28.942378 
L 507.209938 30.897699 
L 507.767938 33.593236 
L 508.604938 38.924708 
L 509.720938 48.134138 
L 511.115938 62.184767 
L 515.579938 109.883463 
L 516.695938 118.531483 
L 517.532938 123.361146 
L 518.090938 125.691382 
L 518.648938 127.266022 
L 519.206938 128.058148 
L 519.485938 128.158125 
L 519.764938 128.058148 
L 520.043938 127.760139 
L 520.601938 126.573872 
L 521.159938 124.618551 
L 521.717938 121.923014 
L 522.554938 116.591542 
L 523.670938 107.382112 
L 525.065938 93.331483 
L 529.529938 45.632787 
L 530.645938 36.984767 
L 531.482938 32.155104 
L 532.040938 29.824868 
L 532.598938 28.250228 
L 533.156938 27.458102 
L 533.435938 27.358125 
L 533.714938 27.458102 
L 533.993938 27.756111 
L 534.551938 28.942378 
L 535.109938 30.897699 
L 535.667938 33.593236 
L 536.504938 38.924708 
L 537.620938 48.134138 
L 539.015938 62.184767 
L 543.479938 109.883463 
L 544.595938 118.531483 
L 545.432938 123.361146 
L 545.990938 125.691382 
L 546.548938 127.266022 
L 547.106938 128.058148 
L 547.385938 128.158125 
L 547.664938 128.058148 
L 547.943938 127.760139 
L 548.501938 126.573872 
L 549.059938 124.618551 
L 549.617938 121.923014 
L 550.454938 116.591542 
L 551.570938 107.382112 
L 552.965938 93.331483 
L 557.429938 45.632787 
L 558.545938 36.984767 
L 559.382938 32.155104 
L 559.940938 29.824868 
L 560.498938 28.250228 
L 561.056938 27.458102 
L 561.335938 27.358125 
L 561.614938 27.458102 
L 561.893938 27.756111 
L 562.451938 28.942378 
L 563.009938 30.897699 
L 563.567938 33.593236 
L 564.404938 38.924708 
L 565.520938 48.134138 
L 566.915938 62.184767 
L 571.379938 109.883463 
L 572.495938 118.531483 
L 573.332938 123.361146 
L 573.890938 125.691382 
L 574.448938 127.266022 
L 575.006938 128.058148 
L 575.285938 128.158125 
L 575.564938 128.058148 
L 575.843938 127.760139 
L 576.401938 126.573872 
L 576.959938 124.618551 
L 577.517938 121.923014 
L 578.354938 116.591542 
L 579.470938 107.382112 
L 580.865938 93.331483 
L 585.329938 45.632787 
L 586.445938 36.984767 
L 587.282938 32.155104 
L 587.840938 29.824868 
L 588.398938 28.250228 
L 588.956938 27.458102 
L 589.235938 27.358125 
L 589.514938 27.458102 
L 589.793938 27.756111 
L 590.351938 28.942378 
L 590.909938 30.897699 
L 591.467938 33.593236 
L 592.304938 38.924708 
L 593.420938 48.134138 
L 594.815938 62.184767 
L 599.279938 109.883463 
L 600.395938 118.531483 
L 601.232938 123.361146 
L 601.790938 125.691382 
L 602.348938 127.266022 
L 602.906938 128.058148 
L 603.185938 128.158125 
L 603.464938 128.058148 
L 603.743938 127.760139 
L 604.301938 126.573872 
L 604.859938 124.618551 
L 605.417938 121.923014 
L 606.254938 116.591542 
L 607.370938 107.382112 
L 608.765938 93.331483 
L 610.439938 74.593465 
L 610.439938 74.593465 
" style="fill:none;stroke:#1f77b4;stroke-linecap:square;stroke-width:1.5;"/>
   </g>
   <g id="patch_3">
    <path d="M 52.160938 133.198125 
L 52.160938 22.318125 
" style="fill:none;stroke:#000000;stroke-linecap:square;stroke-linejoin:miter;stroke-width:0.8;"/>
   </g>
   <g id="patch_4">
    <path d="M 610.160938 133.198125 
L 610.160938 22.318125 
" style="fill:none;stroke:#000000;stroke-linecap:square;stroke-linejoin:miter;stroke-width:0.8;"/>
   </g>
   <g id="patch_5">
    <path d="M 52.160938 133.198125 
L 610.160938 133.198125 
" style="fill:none;stroke:#000000;stroke-linecap:square;stroke-linejoin:miter;stroke-width:0.8;"/>
   </g>
   <g id="patch_6">
    <path d="M 52.160938 22.318125 
L 610.160938 22.318125 
" style="fill:none;stroke:#000000;stroke-linecap:square;stroke-linejoin:miter;stroke-width:0.8;"/>
   </g>
   <g id="text_15">
    <!-- Sinusoid100 -->
    <defs>
     <path d="M 53.515625 70.515625 
L 53.515625 60.890625 
Q 47.90625 63.578125 42.921875 64.890625 
Q 37.9375 66.21875 33.296875 66.21875 
Q 25.25 66.21875 20.875 63.09375 
Q 16.5 59.96875 16.5 54.203125 
Q 16.5 49.359375 19.40625 46.890625 
Q 22.3125 44.4375 30.421875 42.921875 
L 36.375 41.703125 
Q 47.40625 39.59375 52.65625 34.296875 
Q 57.90625 29 57.90625 20.125 
Q 57.90625 9.515625 50.796875 4.046875 
Q 43.703125 -1.421875 29.984375 -1.421875 
Q 24.8125 -1.421875 18.96875 -0.25 
Q 13.140625 0.921875 6.890625 3.21875 
L 6.890625 13.375 
Q 12.890625 10.015625 18.65625 8.296875 
Q 24.421875 6.59375 29.984375 6.59375 
Q 38.421875 6.59375 43.015625 9.90625 
Q 47.609375 13.234375 47.609375 19.390625 
Q 47.609375 24.75 44.3125 27.78125 
Q 41.015625 30.8125 33.5 32.328125 
L 27.484375 33.5 
Q 16.453125 35.6875 11.515625 40.375 
Q 6.59375 45.0625 6.59375 53.421875 
Q 6.59375 63.09375 13.40625 68.65625 
Q 20.21875 74.21875 32.171875 74.21875 
Q 37.3125 74.21875 42.625 73.28125 
Q 47.953125 72.359375 53.515625 70.515625 
z
" id="DejaVuSans-83"/>
     <path d="M 9.421875 54.6875 
L 18.40625 54.6875 
L 18.40625 0 
L 9.421875 0 
z
M 9.421875 75.984375 
L 18.40625 75.984375 
L 18.40625 64.59375 
L 9.421875 64.59375 
z
" id="DejaVuSans-105"/>
     <path d="M 44.28125 53.078125 
L 44.28125 44.578125 
Q 40.484375 46.53125 36.375 47.5 
Q 32.28125 48.484375 27.875 48.484375 
Q 21.1875 48.484375 17.84375 46.4375 
Q 14.5 44.390625 14.5 40.28125 
Q 14.5 37.15625 16.890625 35.375 
Q 19.28125 33.59375 26.515625 31.984375 
L 29.59375 31.296875 
Q 39.15625 29.25 43.1875 25.515625 
Q 47.21875 21.78125 47.21875 15.09375 
Q 47.21875 7.46875 41.1875 3.015625 
Q 35.15625 -1.421875 24.609375 -1.421875 
Q 20.21875 -1.421875 15.453125 -0.5625 
Q 10.6875 0.296875 5.421875 2 
L 5.421875 11.28125 
Q 10.40625 8.6875 15.234375 7.390625 
Q 20.0625 6.109375 24.8125 6.109375 
Q 31.15625 6.109375 34.5625 8.28125 
Q 37.984375 10.453125 37.984375 14.40625 
Q 37.984375 18.0625 35.515625 20.015625 
Q 33.0625 21.96875 24.703125 23.78125 
L 21.578125 24.515625 
Q 13.234375 26.265625 9.515625 29.90625 
Q 5.8125 33.546875 5.8125 39.890625 
Q 5.8125 47.609375 11.28125 51.796875 
Q 16.75 56 26.8125 56 
Q 31.78125 56 36.171875 55.265625 
Q 40.578125 54.546875 44.28125 53.078125 
z
" id="DejaVuSans-115"/>
     <path d="M 30.609375 48.390625 
Q 23.390625 48.390625 19.1875 42.75 
Q 14.984375 37.109375 14.984375 27.296875 
Q 14.984375 17.484375 19.15625 11.84375 
Q 23.34375 6.203125 30.609375 6.203125 
Q 37.796875 6.203125 41.984375 11.859375 
Q 46.1875 17.53125 46.1875 27.296875 
Q 46.1875 37.015625 41.984375 42.703125 
Q 37.796875 48.390625 30.609375 48.390625 
z
M 30.609375 56 
Q 42.328125 56 49.015625 48.375 
Q 55.71875 40.765625 55.71875 27.296875 
Q 55.71875 13.875 49.015625 6.21875 
Q 42.328125 -1.421875 30.609375 -1.421875 
Q 18.84375 -1.421875 12.171875 6.21875 
Q 5.515625 13.875 5.515625 27.296875 
Q 5.515625 40.765625 12.171875 48.375 
Q 18.84375 56 30.609375 56 
z
" id="DejaVuSans-111"/>
    </defs>
    <g transform="translate(294.354688 16.318125)scale(0.12 -0.12)">
     <use xlink:href="#DejaVuSans-83"/>
     <use x="63.476562" xlink:href="#DejaVuSans-105"/>
     <use x="91.259766" xlink:href="#DejaVuSans-110"/>
     <use x="154.638672" xlink:href="#DejaVuSans-117"/>
     <use x="218.017578" xlink:href="#DejaVuSans-115"/>
     <use x="270.117188" xlink:href="#DejaVuSans-111"/>
     <use x="331.298828" xlink:href="#DejaVuSans-105"/>
     <use x="359.082031" xlink:href="#DejaVuSans-100"/>
     <use x="422.558594" xlink:href="#DejaVuSans-49"/>
     <use x="486.181641" xlink:href="#DejaVuSans-48"/>
     <use x="549.804688" xlink:href="#DejaVuSans-48"/>
    </g>
   </g>
  </g>
 </g>
 <defs>
  <clipPath id="p0fd75ab9e3">
   <rect height="110.88" width="558" x="52.160938" y="22.318125"/>
  </clipPath>
 </defs>
</svg>
